<svg width="460" height="310" viewBox="0 0 460 310" fill="none" xmlns="http://www.w3.org/2000/svg">
<g opacity="0.5" filter="url(#filter0_f)">
<path d="M147.054 274.654L37.1187 211.351C32.1802 208.571 31.7508 204.294 36.0451 201.941L296.388 50.1084C300.682 47.5421 307.982 47.9698 312.921 50.75L422.856 113.839C427.794 116.833 428.438 121.11 424.144 123.463L358.364 161.795L290.701 201.223L163.587 275.296C159.292 277.862 151.992 277.434 147.054 274.654Z" fill="#253C77"/>
</g>
<g filter="url(#filter1_f)">
<path d="M136.361 255.172L31.0423 193.859C26.0789 191.065 25.6473 186.766 29.9633 184.402L291.62 31.8031C295.936 29.2238 303.273 29.6537 308.236 32.4479L418.726 95.8554C423.689 98.8646 424.337 103.163 420.021 105.528L353.909 144.053L285.904 183.681L161.645 255.172C157.329 257.752 141.324 257.967 136.361 255.172Z" fill="#253C77"/>
</g>
<path d="M316.379 32.2057C307.207 26.9288 292.337 26.9288 283.166 32.2057L38.5747 172.931C29.4031 178.208 29.9839 185.619 39.1555 190.896L132.83 245.806C142.002 251.083 156.812 251.512 165.984 246.235L408.715 106.672C417.887 101.395 419.746 91.6779 410.575 86.401L316.379 32.2057Z" fill="url(#paint0_linear)"/>
<path d="M413.693 70.111C429.494 78.6528 422.063 96.5067 412.359 104.007L407.552 95.2615C407.543 85.9474 404.598 65.1946 413.693 70.111Z" fill="url(#paint1_linear)"/>
<path d="M422.889 84.5623C422.772 76.057 417.673 72.8037 414.906 70.7615L396.323 90.9935L400.585 111.275C401.686 110.674 405.146 108.706 410.175 105.647C416.462 101.825 423.006 93.0676 422.889 84.5623Z" fill="url(#paint2_linear)"/>
<path d="M37.9513 191.233C21.1649 179.698 27.0935 165.18 33.3284 158.597L145.158 227.516L145.682 249.754C139.985 249.516 133.692 246.449 131.342 245.122L74.8864 213.238L37.9513 191.233Z" fill="url(#paint3_linear)"/>
<path d="M126.811 229.822L126.811 242.363C128.042 242.922 130.797 245.477 137.556 247.981C149.067 252.245 160.476 249.5 165.154 246.776L174.398 241.355L171.735 233.461L126.811 229.822Z" fill="url(#paint4_radial)"/>
<path d="M121.603 229.9L121.483 240.124C121.363 240.298 124.001 241.714 135.512 245.978C147.024 250.243 155.737 247.755 158.655 245.978L173.894 239.264L178.261 227.332L121.603 229.9Z" fill="url(#paint5_radial)"/>
<path d="M89.3602 217.889L73.893 208.897C72.8286 208.271 71.9385 207.59 71.9385 206.169C71.9385 204.987 72.0413 203.427 73.893 204.482L89.3602 213.475C91.0793 214.484 91.2989 214.632 91.2989 216.412C91.2989 217.851 90.4436 218.495 89.3602 217.889Z" fill="#0D1C44"/>
<path d="M55.0186 194.806C55.7287 195.22 56.2918 196.196 56.2918 197.002C56.2918 197.807 55.7287 198.124 55.0186 197.734C54.3086 197.319 53.7454 196.343 53.7454 195.538C53.7454 194.732 54.3331 194.391 55.0186 194.806Z" fill="#0D1C44"/>
<path d="M50.9054 192.439C51.6155 192.854 52.1786 193.83 52.1786 194.635C52.1786 195.44 51.6155 195.757 50.9054 195.367C50.1954 194.952 49.6322 193.976 49.6322 193.171C49.6322 192.341 50.1954 192.024 50.9054 192.439Z" fill="#0D1C44"/>
<path d="M46.791 190.048C47.501 190.462 48.0642 191.438 48.0642 192.244C48.0642 193.049 47.501 193.366 46.791 192.976C46.0809 192.585 45.5177 191.585 45.5177 190.78C45.4933 189.974 46.0809 189.657 46.791 190.048Z" fill="#0D1C44"/>
<path d="M42.6538 187.681C43.3639 188.096 43.927 189.072 43.927 189.877C43.927 190.682 43.3639 190.999 42.6538 190.609C41.9437 190.194 41.3806 189.218 41.3806 188.413C41.3806 187.608 41.9437 187.291 42.6538 187.681Z" fill="#0D1C44"/>
<path d="M38.4824 185.26C39.1924 185.675 39.7556 186.651 39.7556 187.456C39.7556 188.262 39.1924 188.579 38.4824 188.188C37.7723 187.774 37.2092 186.798 37.2092 185.992C37.2092 185.187 37.7968 184.846 38.4824 185.26Z" fill="#0D1C44"/>
<path d="M34.3692 182.894C35.0792 183.309 35.6424 184.285 35.6424 185.09C35.6424 185.895 35.0792 186.212 34.3692 185.822C33.6591 185.407 33.0959 184.431 33.0959 183.626C33.0959 182.796 33.6591 182.479 34.3692 182.894Z" fill="#0D1C44"/>
<path d="M129.779 237.739C130.489 238.154 131.052 239.13 131.052 239.935C131.052 240.74 130.489 241.057 129.779 240.667C129.069 240.252 128.506 239.276 128.506 238.471C128.506 237.666 129.094 237.324 129.779 237.739Z" fill="#0D1C44"/>
<path d="M125.666 235.372C126.376 235.787 126.939 236.763 126.939 237.568C126.939 238.374 126.376 238.691 125.666 238.3C124.956 237.886 124.393 236.91 124.393 236.104C124.393 235.275 124.956 234.958 125.666 235.372Z" fill="#0D1C44"/>
<path d="M121.551 232.981C122.262 233.396 122.825 234.372 122.825 235.177C122.825 235.982 122.262 236.299 121.551 235.909C120.841 235.519 120.278 234.518 120.278 233.713C120.254 232.908 120.841 232.591 121.551 232.981Z" fill="#0D1C44"/>
<path d="M117.414 230.614C118.124 231.029 118.687 232.005 118.687 232.81C118.687 233.616 118.124 233.933 117.414 233.542C116.704 233.128 116.141 232.152 116.141 231.346C116.141 230.541 116.704 230.224 117.414 230.614Z" fill="#0D1C44"/>
<path d="M113.243 228.194C113.953 228.609 114.516 229.585 114.516 230.39C114.516 231.195 113.953 231.512 113.243 231.122C112.533 230.707 111.97 229.731 111.97 228.926C111.97 228.121 112.557 227.779 113.243 228.194Z" fill="#0D1C44"/>
<path d="M109.13 225.827C109.84 226.242 110.403 227.218 110.403 228.023C110.403 228.828 109.84 229.146 109.13 228.755C108.42 228.34 107.856 227.364 107.856 226.559C107.856 225.73 108.42 225.412 109.13 225.827Z" fill="#0D1C44"/>
<path d="M316.378 13.3616C307.218 8.04668 292.294 8.02855 283.095 13.3212L38.5043 154.046C29.3601 159.307 29.3288 167.831 38.4343 173.115L134.601 228.914C143.761 234.229 158.686 234.247 167.885 228.954L412.475 88.2293C421.62 82.9683 421.651 74.4439 412.545 69.1607L316.378 13.3616Z" fill="#0D1C44"/>
<path fill-rule="evenodd" clip-rule="evenodd" d="M181.94 229.788C181.759 225.818 178.474 222.872 178.474 222.872L179.936 222.038C180.89 223.084 183.299 225.544 183.471 229.294C183.642 233.044 182.903 235.26 181.94 237.123L179.791 238.328C181.159 236.187 182.055 232.286 181.94 229.788Z" fill="url(#paint6_linear)"/>
<path fill-rule="evenodd" clip-rule="evenodd" d="M395.473 106.914C395.291 102.945 392.007 99.9983 392.007 99.9983L393.469 99.1648C394.422 100.211 396.831 102.671 397.003 106.421C397.175 110.17 396.402 112.437 395.439 114.3L393.408 115.461C394.776 113.32 395.587 109.413 395.473 106.914Z" fill="url(#paint7_linear)"/>
<path d="M315.288 17.8443C306.134 12.5888 291.318 12.5797 282.145 17.8241L47.8577 151.768C38.6296 157.043 38.6138 165.63 47.8225 170.917L133.807 220.283C142.96 225.539 157.776 225.548 166.95 220.304L401.237 86.3602C410.465 81.0844 410.481 72.4977 401.272 67.2107L315.288 17.8443Z" fill="url(#paint8_linear)"/>
<path d="M322.889 21.9058L319.418 20.07L321.899 18.6423L393.833 60.0289L391.474 61.3856C390.803 60.8464 389.138 59.9535 387.847 60.6965C381.073 64.5938 374.838 62.7272 372.568 61.3067L321.182 31.742C315.283 28.3482 322.469 24.2409 323.393 23.6128C324.131 23.1104 323.365 22.2655 322.889 21.9058Z" fill="#0D1C44"/>
<circle opacity="0.4" r="1.53253" transform="matrix(0.866776 0.498698 -0.866776 0.498698 364.894 49.644)" fill="#3857A4"/>
<g opacity="0.7" filter="url(#filter2_f)">
<path fill-rule="evenodd" clip-rule="evenodd" d="M415.422 81.3157C413.81 83.7627 411.292 85.6728 409.826 86.539L409.815 86.545C380.485 103.428 339.481 127.038 299.539 150.049C235.714 186.819 174.6 222.058 168.166 225.874C157.299 232.32 144.96 227.815 139.772 226.127C144.762 227.751 157.007 230.022 167.077 224.05C173.507 220.235 234.396 185.126 298.083 148.435C335.402 126.936 373.681 104.894 402.529 88.2873C404.653 87.0644 406.999 86.3156 409.017 85.154C410.313 84.3877 413.326 82.8367 414.7 80.7506C415.382 79.7148 416.434 78.1644 416.493 77.1132C416.551 76.0909 416.242 73.5529 415.33 72.4221C416.556 73.9423 417.03 75.5424 416.941 77.1132C416.855 78.6552 416.233 80.0835 415.422 81.3157Z" fill="#B0C6FA"/>
</g>
<g opacity="0.4" filter="url(#filter3_f)">
<path d="M122.094 111.809L212.058 164.298C213.731 165.23 216.281 165.346 217.756 164.531L274.909 130.928C276.383 130.112 276.184 128.675 274.511 127.704L184.547 75.2155C182.873 74.2833 180.323 74.1668 178.849 74.9825L121.695 108.585C120.221 109.44 120.42 110.877 122.094 111.809Z" fill="#294FA8"/>
</g>
<g opacity="0.4" filter="url(#filter4_f)">
<path d="M50.6031 154.755L140.567 207.243C142.24 208.175 144.791 208.292 146.265 207.476L203.418 173.874C204.893 173.058 204.693 171.621 203.02 170.65L113.056 118.161C111.383 117.229 108.833 117.113 107.358 117.928L50.2047 151.531C48.7304 152.385 48.9297 153.823 50.6031 154.755Z" fill="#294FA8"/>
</g>
<path d="M164.965 64.598C167.786 62.9711 172.36 62.9711 175.181 64.598L273.868 121.437C276.689 123.064 276.689 125.701 273.868 127.328L220.66 158.013C217.839 159.64 213.265 159.64 210.444 158.013L111.758 101.174C108.937 99.5475 108.937 96.9098 111.758 95.2829L164.965 64.598Z" fill="url(#paint9_linear)"/>
<path d="M271.665 128.622L220.955 157.948C217.843 159.743 212.796 159.743 209.683 157.948L131.683 112.813L210.729 157.344C213.264 158.806 217.374 158.806 219.909 157.345L271.665 128.622Z" fill="#9AB3F1"/>
<path d="M199.878 113.122L191.974 108.564L184.278 113.002L182.406 111.923L190.102 107.485L182.198 102.926L183.987 101.895L191.891 106.453L199.629 101.991L201.501 103.07L193.763 107.533L201.667 112.091L199.878 113.122Z" fill="#BFD2FE"/>
<path d="M91.8549 107.257C94.6759 105.631 99.2496 105.631 102.071 107.257L200.757 164.096C203.578 165.723 203.578 168.361 200.757 169.988L147.55 200.673C144.729 202.299 140.155 202.299 137.334 200.673L38.6475 143.834C35.8265 142.207 35.8265 139.569 38.6475 137.942L91.8549 107.257Z" fill="url(#paint10_linear)"/>
<path d="M198.702 171.166L148.108 200.613C144.995 202.408 139.949 202.408 136.836 200.613L58.6227 155.286L137.882 200.009C140.416 201.471 144.527 201.471 147.061 200.01L198.702 171.166Z" fill="#9AB3F1"/>
<path d="M128.925 158.441L121.021 153.883L113.325 158.322L111.453 157.242L119.149 152.804L111.245 148.245L113.034 147.214L120.938 151.772L128.676 147.31L130.548 148.389L122.81 152.852L130.714 157.41L128.925 158.441Z" fill="#BFD2FE"/>
<g opacity="0.6" filter="url(#filter5_f)">
<path d="M194.464 70.9845L289.048 125.914C291.036 127.021 294.065 127.16 295.817 126.191L363.715 86.2705C365.467 85.3015 365.23 83.5943 363.242 82.4407L268.659 27.5113C266.671 26.4038 263.641 26.2654 261.89 27.2344L193.991 67.1547C192.24 68.1698 192.476 69.8771 194.464 70.9845Z" fill="#294FA8"/>
</g>
<path fill-rule="evenodd" clip-rule="evenodd" d="M296.318 114.129C294.064 115.429 290.193 115.456 287.988 114.184L174.346 48.6519C172.141 47.3806 172.187 45.1483 174.441 43.8485L244.366 3.52599C246.62 2.22622 250.491 2.19995 252.696 3.47128L366.338 69.0035C368.543 70.2749 368.497 72.5072 366.243 73.807L296.318 114.129Z" fill="url(#paint11_linear)"/>
<path d="M172.726 46.3124L172.726 46.3205C172.721 46.3205 172.721 46.3177 172.726 46.3124L172.759 45.2456L173.768 45.6492C173.429 45.8811 172.783 46.2529 172.726 46.3124Z" fill="#7595E5"/>
<mask id="mask0" mask-type="alpha" maskUnits="userSpaceOnUse" x="172" y="1" width="196" height="114">
<path fill-rule="evenodd" clip-rule="evenodd" d="M296.432 113.015C294.039 114.396 290.17 114.423 287.832 113.073L174.522 47.659C172.184 46.3096 172.23 44.076 174.623 42.6945L244.228 2.51148C246.621 1.12993 250.49 1.10365 252.828 2.45306L366.138 67.8673C368.476 69.2167 368.43 71.4503 366.037 72.8319L296.432 113.015Z" fill="white"/>
</mask>
<g mask="url(#mask0)">
<path d="M248.5 0L370 70.5L292.5 116L170 45.5L248.5 0Z" fill="url(#paint12_linear)"/>
<path d="M202.076 -24.165H252.684V141.17H202.076V-24.165Z" fill="url(#paint13_linear)" fill-opacity="0.4"/>
<path d="M287.424 -24.165H358.164V141.17H287.424V-24.165Z" fill="url(#paint14_linear)" fill-opacity="0.4"/>
<path d="M255.71 -24.165H269.826V141.17H255.71V-24.165Z" fill="url(#paint15_linear)" fill-opacity="0.4"/>
</g>
<path d="M249.579 9.85717L247.807 12.1129L251.716 11.0893L252.549 11.5695L248.841 13.7077L248.199 13.3376L249.421 12.6327L251.12 11.7266L247.167 12.7429L246.707 12.4771L248.469 10.2008L246.9 11.1789L245.678 11.8838L245.036 11.5137L248.744 9.37549L249.579 9.85717Z" fill="white"/>
<path d="M251.041 13.3581C251.311 13.2024 251.607 13.0932 251.93 13.0306C252.254 12.9669 252.57 12.9576 252.879 13.0027C253.19 13.0467 253.471 13.1412 253.722 13.2861C254.094 13.5005 254.276 13.7433 254.267 14.0145C254.261 14.2867 254.069 14.5422 253.692 14.7811L253.549 14.8663C253.278 15.0229 252.982 15.1326 252.663 15.1952C252.345 15.2588 252.031 15.2681 251.718 15.2231C251.407 15.1791 251.125 15.0836 250.87 14.9367C250.481 14.7125 250.299 14.4585 250.323 14.1746C250.35 13.8907 250.579 13.6244 251.01 13.3757L251.041 13.3581ZM251.606 13.7458C251.323 13.9093 251.159 14.0713 251.115 14.2318C251.072 14.3914 251.155 14.5314 251.364 14.6518C251.573 14.7723 251.817 14.8188 252.095 14.7914C252.375 14.7649 252.672 14.6611 252.986 14.48C253.265 14.3195 253.425 14.1574 253.468 13.9939C253.512 13.8314 253.431 13.6909 253.226 13.5725C253.024 13.456 252.783 13.4099 252.503 13.4344C252.224 13.4579 251.925 13.5617 251.606 13.7458Z" fill="white"/>
<path d="M256.409 16.7943L256.08 16.6049L254.973 17.2437L254.354 16.8869L255.462 16.248L255.136 16.0601L253.394 16.3332L252.635 15.8956L254.983 15.596L255.439 14.3345L256.195 14.7707L255.737 15.7546L256.027 15.922L257.109 15.2979L257.728 15.6547L256.646 16.2789L256.939 16.4478L258.647 16.1849L259.404 16.621L257.226 16.881L256.704 18.2423L255.935 17.7988L256.409 16.7943Z" fill="white"/>
<path d="M259.63 19.9296L259.011 19.5727L260.124 18.9309L259.052 18.3127L257.939 18.9544L257.32 18.5976L260.076 17.0086L260.695 17.3655L259.546 18.0278L260.618 18.6461L261.767 17.9837L262.386 18.3406L259.63 19.9296Z" fill="white"/>
<path d="M261.787 19.555C262.057 19.3993 262.353 19.2901 262.676 19.2275C263 19.1638 263.317 19.1545 263.626 19.1996C263.936 19.2436 264.217 19.3381 264.469 19.483C264.84 19.6974 265.022 19.9402 265.014 20.2114C265.007 20.4836 264.815 20.7391 264.438 20.978L264.296 21.0632C264.024 21.2198 263.728 21.3295 263.409 21.3921C263.092 21.4557 262.777 21.465 262.464 21.42C262.154 21.376 261.871 21.2805 261.616 21.1336C261.228 20.9094 261.045 20.6554 261.069 20.3715C261.096 20.0876 261.325 19.8213 261.756 19.5726L261.787 19.555ZM262.352 19.9427C262.069 20.1062 261.905 20.2682 261.861 20.4287C261.818 20.5883 261.902 20.7283 262.11 20.8487C262.319 20.9692 262.563 21.0157 262.841 20.9883C263.121 20.9618 263.419 20.8581 263.733 20.6769C264.011 20.5164 264.172 20.3543 264.214 20.1908C264.258 20.0283 264.178 19.8878 263.972 19.7694C263.77 19.6529 263.529 19.6069 263.249 19.6313C262.97 19.6548 262.672 19.7586 262.352 19.9427Z" fill="white"/>
<path d="M269.661 22.5359L270.277 22.8913L267.522 24.4802L266.905 24.1248L268.744 23.0645L265.826 23.5022L265.209 23.1468L267.965 21.5578L268.581 21.9132L266.742 22.9735L269.661 22.5359Z" fill="white"/>
<path d="M269.964 25.3774C270.118 25.4665 270.291 25.5144 270.483 25.5213C270.675 25.5282 270.841 25.4954 270.98 25.4229L271.563 25.7592C271.385 25.8542 271.171 25.9159 270.921 25.9442C270.673 25.9717 270.42 25.9609 270.162 25.9119C269.904 25.863 269.676 25.7812 269.477 25.6667C269.092 25.4444 268.911 25.1963 268.935 24.9221C268.959 24.648 269.19 24.3842 269.63 24.1306L269.694 24.0939C270.113 23.8521 270.561 23.7233 271.036 23.7077C271.513 23.691 271.945 23.7943 272.332 24.0175C272.66 24.2065 272.83 24.4155 272.844 24.6446C272.861 24.8737 272.719 25.0807 272.419 25.2658L271.836 24.9295C271.987 24.8345 272.062 24.7283 272.062 24.6108C272.064 24.4943 271.987 24.391 271.83 24.3009C271.63 24.1854 271.403 24.1384 271.148 24.16C270.895 24.1805 270.62 24.2755 270.323 24.4449L270.224 24.5021C269.925 24.6744 269.755 24.834 269.714 24.9809C269.677 25.1277 269.76 25.2599 269.964 25.3774Z" fill="white"/>
<path d="M273.664 28.0221L273.045 27.6653L275.301 26.3641L274.227 25.7444L271.97 27.0455L271.352 26.6887L274.107 25.0997L276.419 26.4332L273.664 28.0221Z" fill="white"/>
<path d="M275.818 27.646C276.088 27.4904 276.384 27.3812 276.707 27.3186C277.031 27.2549 277.348 27.2456 277.657 27.2907C277.968 27.3347 278.249 27.4292 278.5 27.5741C278.872 27.7885 279.053 28.0313 279.045 28.3025C279.038 28.5747 278.846 28.8302 278.469 29.0691L278.327 29.1542C278.055 29.3109 277.76 29.4205 277.44 29.4832C277.123 29.5468 276.808 29.5561 276.496 29.5111C276.185 29.467 275.902 29.3716 275.648 29.2247C275.259 29.0005 275.076 28.7465 275.1 28.4626C275.127 28.1786 275.356 27.9123 275.788 27.6637L275.818 27.646ZM276.384 28.0337C276.1 28.1972 275.936 28.3593 275.892 28.5198C275.85 28.6794 275.933 28.8194 276.142 28.9398C276.35 29.0603 276.594 29.1068 276.872 29.0793C277.153 29.0529 277.45 28.9491 277.764 28.768C278.042 28.6075 278.203 28.4454 278.245 28.2819C278.289 28.1194 278.209 27.9789 278.003 27.8605C277.801 27.744 277.56 27.6979 277.28 27.7224C277.001 27.7459 276.703 27.8497 276.384 28.0337Z" fill="white"/>
<path d="M282.765 30.0925L280.01 31.6815L279.391 31.3246L281.647 30.0235L280.868 29.5741L279.857 30.0984C279.363 30.3461 278.942 30.4861 278.594 30.5184C278.249 30.5507 277.927 30.4807 277.629 30.3084L277.438 30.1983L277.95 29.9001L278.09 29.9662C278.244 30.0338 278.425 30.0431 278.632 29.9941C278.843 29.9452 279.151 29.8135 279.556 29.5991L280.784 28.95L282.765 30.0925Z" fill="white"/>
<path d="M283.422 31.4817L284.028 31.8312C284.254 31.9614 284.412 32.0975 284.502 32.2394C284.592 32.3814 284.61 32.518 284.555 32.6491C284.503 32.7813 284.383 32.9012 284.196 33.0089C283.913 33.1724 283.585 33.2459 283.213 33.2292C282.841 33.2126 282.488 33.1088 282.154 32.9179L280.924 32.2086L283.679 30.6196L284.298 30.9765L283.422 31.4817ZM282.925 31.768L282.037 32.2805L282.64 32.6286C282.791 32.7157 282.948 32.7627 283.109 32.7696C283.274 32.7764 283.425 32.7397 283.565 32.6594C283.704 32.5791 283.77 32.491 283.763 32.3951C283.76 32.2991 283.686 32.2086 283.542 32.1234L282.925 31.768Z" fill="white"/>
<path d="M288.047 34.0074C287.924 34.0779 287.774 34.1215 287.596 34.1381C287.421 34.1548 287.236 34.142 287.041 34.0999C287.246 34.3457 287.191 34.5596 286.875 34.7417C286.622 34.8876 286.317 34.9448 285.961 34.9135C285.606 34.8812 285.256 34.7657 284.912 34.5669C284.701 34.4455 284.544 34.3148 284.441 34.1748C284.339 34.0339 284.304 33.8983 284.336 33.7681C284.37 33.6369 284.476 33.5199 284.654 33.4171L285.271 33.7725C285.159 33.8371 285.115 33.9203 285.138 34.0221C285.164 34.123 285.253 34.2174 285.406 34.3055C285.557 34.3927 285.711 34.4416 285.869 34.4524C286.031 34.4632 286.168 34.4358 286.282 34.3702C286.416 34.2928 286.474 34.2145 286.455 34.1352C286.436 34.0559 286.345 33.9692 286.182 33.8753L285.739 33.6197L286.185 33.3627L286.643 33.6271C286.924 33.7847 287.176 33.7989 287.4 33.6697C287.512 33.605 287.559 33.5316 287.542 33.4494C287.525 33.3671 287.447 33.2859 287.308 33.2056C287.172 33.1273 287.024 33.0808 286.862 33.0661C286.703 33.0504 286.572 33.072 286.47 33.1307L285.854 32.7753C286.097 32.6353 286.397 32.5795 286.755 32.6079C287.115 32.6353 287.452 32.7396 287.766 32.9207C288.108 33.1175 288.304 33.3108 288.355 33.5008C288.406 33.6907 288.303 33.8596 288.047 34.0074Z" fill="white"/>
<path d="M288.118 34.7386C288.388 34.583 288.684 34.4738 289.007 34.4112C289.331 34.3475 289.647 34.3382 289.956 34.3833C290.267 34.4273 290.548 34.5218 290.799 34.6667C291.171 34.8811 291.353 35.1239 291.344 35.3951C291.338 35.6673 291.146 35.9228 290.769 36.1617L290.626 36.2468C290.355 36.4035 290.059 36.5131 289.74 36.5758C289.422 36.6394 289.108 36.6487 288.795 36.6037C288.484 36.5596 288.202 36.4642 287.947 36.3173C287.558 36.0931 287.376 35.8391 287.4 35.5552C287.427 35.2712 287.656 35.0049 288.087 34.7563L288.118 34.7386ZM288.683 35.1263C288.4 35.2898 288.236 35.4519 288.192 35.6124C288.149 35.772 288.232 35.912 288.441 36.0324C288.65 36.1529 288.894 36.1994 289.172 36.1719C289.452 36.1455 289.749 36.0417 290.063 35.8606C290.342 35.7001 290.502 35.538 290.545 35.3745C290.589 35.212 290.508 35.0715 290.303 34.9531C290.101 34.8365 289.86 34.7905 289.58 34.815C289.301 34.8385 289.002 34.9423 288.683 35.1263Z" fill="white"/>
<path d="M290.056 37.4744L292.811 35.8855L293.929 36.5302C294.306 36.7475 294.527 36.9511 294.591 37.1411C294.657 37.33 294.567 37.4955 294.321 37.6374C294.194 37.7109 294.039 37.7539 293.858 37.7667C293.679 37.7794 293.486 37.7569 293.277 37.6991C293.42 37.8244 293.487 37.9502 293.478 38.0765C293.47 38.2028 293.388 38.3105 293.234 38.3996C292.977 38.5474 292.687 38.6052 292.363 38.5729C292.04 38.5416 291.702 38.4236 291.347 38.219L290.056 37.4744ZM291.848 37.1543L291.163 37.5493L291.841 37.94C292.158 38.123 292.431 38.149 292.658 38.0178C292.887 37.8856 292.841 37.7265 292.518 37.5405L291.848 37.1543ZM292.292 36.8988L292.801 37.1925C293.152 37.3951 293.432 37.4367 293.639 37.3173C293.856 37.192 293.802 37.0314 293.476 36.8356L292.938 36.5257L292.292 36.8988Z" fill="white"/>
<path d="M294.838 40.2322C294.863 40.1862 294.925 40.1231 295.024 40.0428C294.622 40.0477 294.278 39.9679 293.992 39.8034C293.716 39.6438 293.569 39.4681 293.552 39.2762C293.535 39.0843 293.643 38.9213 293.875 38.7872C294.169 38.6178 294.503 38.5508 294.876 38.586C295.253 38.6212 295.644 38.7559 296.05 38.9898L296.43 39.2087L296.61 39.1044C296.753 39.0222 296.827 38.9336 296.832 38.8386C296.839 38.7426 296.761 38.6477 296.598 38.5537C296.457 38.4724 296.306 38.4264 296.144 38.4156C295.985 38.4039 295.851 38.4294 295.742 38.492L295.123 38.1352C295.274 38.048 295.465 37.9956 295.696 37.978C295.929 37.9594 296.168 37.978 296.414 38.0338C296.662 38.0906 296.892 38.1802 297.105 38.3026C297.427 38.4886 297.603 38.6839 297.632 38.8885C297.662 39.0922 297.533 39.2801 297.245 39.4524L296.002 40.1691C295.754 40.312 295.591 40.4461 295.513 40.5715L295.47 40.5964L294.838 40.2322ZM294.604 39.5831C294.726 39.6536 294.87 39.7026 295.037 39.73C295.205 39.7584 295.366 39.7594 295.52 39.7329L296.04 39.4333L295.706 39.241C295.477 39.1088 295.265 39.0324 295.07 39.0119C294.874 38.9913 294.704 39.0231 294.558 39.1073C294.439 39.1759 294.383 39.2532 294.39 39.3394C294.4 39.4255 294.471 39.5068 294.604 39.5831Z" fill="white"/>
<path d="M300.614 40.9517L299.72 40.4362L297.456 41.7418L296.837 41.3849L299.101 40.0794L298.217 39.5698L298.709 39.2864L301.105 40.6683L300.614 40.9517Z" fill="white"/>
<path d="M301.517 41.9164L302.124 42.2659C302.349 42.3961 302.507 42.5322 302.597 42.6742C302.687 42.8161 302.705 42.9527 302.651 43.0839C302.598 43.2161 302.478 43.336 302.292 43.4437C302.008 43.6072 301.68 43.6806 301.309 43.664C300.937 43.6473 300.584 43.5436 300.249 43.3527L299.019 42.6433L301.775 41.0544L302.394 41.4112L301.517 41.9164ZM301.021 42.2028L300.132 42.7153L300.736 43.0633C300.887 43.1505 301.043 43.1975 301.204 43.2043C301.369 43.2112 301.521 43.1745 301.66 43.0942C301.799 43.0139 301.866 42.9258 301.859 42.8298C301.855 42.7339 301.781 42.6433 301.637 42.5582L301.021 42.2028Z" fill="white"/>
<path d="M303.078 44.2322C303.194 44.2988 303.25 44.3693 303.246 44.4437C303.245 44.5171 303.195 44.5822 303.096 44.639C302.999 44.6948 302.887 44.7232 302.76 44.7242C302.634 44.7242 302.514 44.6909 302.398 44.6243C302.288 44.5607 302.232 44.4921 302.23 44.4187C302.229 44.3453 302.277 44.2802 302.375 44.2234C302.474 44.1666 302.587 44.1377 302.714 44.1367C302.843 44.1348 302.965 44.1666 303.078 44.2322ZM305.24 42.9854C305.356 43.052 305.412 43.1225 305.409 43.1969C305.407 43.2703 305.357 43.3354 305.258 43.3922C305.162 43.448 305.049 43.4764 304.922 43.4774C304.797 43.4774 304.676 43.4441 304.561 43.3775C304.45 43.3139 304.394 43.2453 304.392 43.1719C304.391 43.0985 304.439 43.0334 304.538 42.9766C304.636 42.9198 304.749 42.8909 304.876 42.8899C305.005 42.888 305.127 42.9198 305.24 42.9854Z" fill="white"/>
<path d="M237.9 26.1485L229.259 21.1654L230.973 20.1768L239.398 20.022C240.57 19.992 241.516 19.9221 242.238 19.8123C242.965 19.7058 243.534 19.5344 243.944 19.298C244.504 18.9751 244.801 18.6406 244.836 18.2944C244.876 17.9449 244.634 17.6187 244.108 17.3158C243.543 16.9896 242.899 16.8448 242.177 16.8814C241.467 16.918 240.795 17.1194 240.16 17.4855L237.649 16.0376C238.417 15.5948 239.3 15.2953 240.298 15.1388C241.303 14.9857 242.319 14.999 243.346 15.1788C244.38 15.3552 245.321 15.688 246.169 16.1774C247.468 16.9263 248.163 17.6869 248.256 18.4592C248.354 19.2348 247.834 19.9504 246.697 20.6062C246.074 20.9657 245.277 21.2386 244.307 21.4251C243.338 21.6115 242.03 21.7263 240.385 21.7696L234.497 21.8594L239.918 24.9851L237.9 26.1485Z" fill="white"/>
<path d="M249.451 24.2612L250.784 25.0302C251.419 25.3963 252.048 25.5761 252.672 25.5694C253.295 25.5627 253.87 25.408 254.395 25.105C254.903 24.8121 255.145 24.4959 255.122 24.1564C255.105 23.8202 254.831 23.499 254.3 23.1927C253.821 22.9164 253.287 22.7616 252.698 22.7284C252.115 22.6917 251.613 22.7949 251.191 23.0379L248.689 21.5949C249.347 21.2155 250.112 20.9775 250.983 20.8809C251.867 20.7844 252.773 20.8343 253.702 21.0307C254.637 21.2304 255.489 21.5517 256.257 21.9944C257.59 22.7633 258.314 23.5505 258.43 24.3561C258.551 25.1583 258.052 25.8823 256.932 26.5281C256.355 26.8609 255.648 27.0657 254.811 27.1422C253.974 27.2188 253.139 27.1672 252.308 26.9874C252.764 27.5433 252.911 28.0676 252.75 28.5602C252.594 29.0562 252.17 29.5039 251.477 29.9034C250.357 30.5491 249.05 30.8304 247.555 30.7472C246.065 30.6673 244.648 30.2396 243.303 29.464C242.045 28.7383 241.346 27.9527 241.208 27.1073C241.075 26.2651 241.554 25.5295 242.645 24.9003L245.148 26.3433C244.674 26.6163 244.464 26.9408 244.515 27.317C244.573 27.6964 244.862 28.036 245.381 28.3355C245.976 28.6784 246.596 28.8565 247.243 28.8698C247.901 28.8831 248.49 28.74 249.009 28.4404C250.268 27.7147 250.204 26.9525 248.819 26.1536L247.494 25.3897L249.451 24.2612Z" fill="white"/>
<path d="M267.894 37.4331C266.151 38.4384 264.457 38.9993 262.812 39.1158C261.166 39.2323 259.648 38.8894 258.257 38.0872C256.883 37.295 256.286 36.4278 256.465 35.4858C256.644 34.5438 257.57 33.5801 259.244 32.5949L261.565 31.2567C263.325 30.2415 265.025 29.6806 266.665 29.5741C268.31 29.4709 269.819 29.8154 271.193 30.6076C272.567 31.3999 273.164 32.267 272.986 33.209C272.812 34.1477 271.889 35.1097 270.215 36.095L267.894 37.4331ZM267.938 34.5222C268.982 33.9197 269.597 33.3987 269.782 32.9593C269.978 32.52 269.773 32.1255 269.167 31.776C268.578 31.4365 267.914 31.3166 267.176 31.4165C266.448 31.5164 265.594 31.8392 264.613 32.3851L261.547 34.1527C260.52 34.7452 259.894 35.2661 259.669 35.7155C259.455 36.1649 259.657 36.5677 260.275 36.9238C260.887 37.2767 261.568 37.3932 262.318 37.2733C263.068 37.1535 263.943 36.8123 264.942 36.2498L267.938 34.5222Z" fill="white"/>
<path d="M278.129 43.335C276.386 44.3403 274.692 44.9012 273.046 45.0177C271.401 45.1342 269.883 44.7913 268.492 43.9891C267.118 43.1969 266.521 42.3297 266.7 41.3877C266.879 40.4457 267.805 39.482 269.479 38.4968L271.8 37.1586C273.56 36.1434 275.26 35.5825 276.899 35.476C278.545 35.3728 280.054 35.7173 281.428 36.5095C282.802 37.3018 283.399 38.1689 283.22 39.1109C283.047 40.0496 282.124 41.0116 280.45 41.9969L278.129 43.335ZM278.172 40.4241C279.217 39.8216 279.832 39.3006 280.017 38.8612C280.213 38.4219 280.008 38.0274 279.402 37.6779C278.813 37.3384 278.149 37.2185 277.41 37.3184C276.683 37.4183 275.829 37.7411 274.847 38.287L271.782 40.0546C270.755 40.6471 270.128 41.168 269.903 41.6174C269.69 42.0668 269.892 42.4696 270.509 42.8257C271.121 43.1786 271.802 43.2951 272.553 43.1752C273.303 43.0554 274.178 42.7142 275.176 42.1517L278.172 40.4241Z" fill="white"/>
<path d="M288.364 49.2369C286.62 50.2422 284.926 50.8031 283.281 50.9196C281.636 51.0361 280.118 50.6932 278.727 49.891C277.353 49.0988 276.755 48.2316 276.934 47.2896C277.113 46.3476 278.04 45.3839 279.714 44.3987L282.034 43.0605C283.795 42.0453 285.495 41.4844 287.134 41.3779C288.779 41.2747 290.289 41.6192 291.663 42.4114C293.037 43.2037 293.634 44.0708 293.455 45.0128C293.282 45.9515 292.358 46.9135 290.684 47.8988L288.364 49.2369ZM288.407 46.326C289.452 45.7235 290.067 45.2025 290.251 44.7631C290.448 44.3238 290.243 43.9293 289.637 43.5798C289.048 43.2403 288.384 43.1204 287.645 43.2203C286.918 43.3202 286.063 43.643 285.082 44.1889L282.017 45.9565C280.989 46.549 280.363 47.0699 280.138 47.5193C279.924 47.9687 280.126 48.3715 280.744 48.7276C281.356 49.0805 282.037 49.197 282.788 49.0771C283.538 48.9573 284.413 48.6161 285.411 48.0536L288.407 46.326Z" fill="white"/>
<path d="M297.741 58.719L294.988 57.1312L293.308 58.0998L290.711 56.6019L292.39 55.6332L290.633 54.6197L292.737 53.4063L294.494 54.4199L295.153 54.0405L293.395 53.0269L295.499 51.8136L297.257 52.8272L303.318 49.332L308.218 52.1581C309.165 52.704 309.826 53.2815 310.201 53.8907C310.577 54.4998 310.643 55.1007 310.4 55.6932C310.17 56.2857 309.65 56.8149 308.842 57.281C307.595 58 306.187 58.3228 304.616 58.2496C303.052 58.1797 301.517 57.7104 300.01 56.8416L297.75 55.5384L297.092 55.9179L299.846 57.5056L297.741 58.719ZM299.854 54.3251L302.097 55.6183C303.551 56.4571 304.917 56.5087 306.192 55.7731C306.798 55.4235 307.101 55.0357 307.101 54.6097C307.107 54.1803 306.787 53.7758 306.14 53.3964L303.803 52.0482L299.854 54.3251Z" fill="white"/>
<path d="M215.438 28.9396C215.791 28.7359 216.187 28.6371 216.625 28.6429C217.063 28.6488 217.458 28.7536 217.811 28.9572C218.178 29.1687 218.365 29.3978 218.372 29.6445C218.382 29.8932 218.219 30.1183 217.883 30.32L217.664 30.4463C217.314 30.648 216.92 30.7459 216.482 30.74C216.051 30.7341 215.655 30.6274 215.295 30.4199C214.939 30.2143 214.752 29.9852 214.735 29.7326C214.721 29.482 214.896 29.2519 215.26 29.0424L215.438 28.9396Z" fill="white"/>
<path d="M219.187 31.1013C219.54 30.8976 219.935 30.7988 220.373 30.8046C220.811 30.8105 221.207 30.9153 221.56 31.1189C221.927 31.3304 222.114 31.5595 222.12 31.8062C222.131 32.0549 221.968 32.28 221.631 32.4817L221.412 32.608C221.063 32.8097 220.669 32.9076 220.231 32.9017C219.799 32.8958 219.404 32.7891 219.044 32.5816C218.687 32.376 218.501 32.1469 218.484 31.8943C218.47 31.6437 218.645 31.4136 219.008 31.2041L219.187 31.1013Z" fill="white"/>
<path d="M222.935 33.263C223.288 33.0593 223.684 32.9605 224.122 32.9663C224.56 32.9722 224.956 33.077 225.309 33.2806C225.675 33.4921 225.862 33.7212 225.869 33.9679C225.879 34.2165 225.716 34.4417 225.38 34.6434L225.161 34.7697C224.811 34.9714 224.417 35.0693 223.979 35.0634C223.548 35.0575 223.153 34.9508 222.793 34.7433C222.436 34.5377 222.249 34.3086 222.232 34.056C222.219 33.8054 222.394 33.5753 222.757 33.3658L222.935 33.263Z" fill="white"/>
<path d="M226.684 35.4247C227.037 35.221 227.433 35.1221 227.871 35.128C228.309 35.1339 228.704 35.2387 229.057 35.4423C229.424 35.6538 229.611 35.8829 229.618 36.1296C229.628 36.3782 229.465 36.6034 229.129 36.8051L228.91 36.9314C228.56 37.1331 228.166 37.231 227.728 37.2251C227.297 37.2192 226.901 37.1125 226.541 36.905C226.185 36.6994 225.998 36.4703 225.981 36.2177C225.967 35.9671 226.142 35.737 226.506 35.5275L226.684 35.4247Z" fill="white"/>
<path d="M240.823 43.578C241.176 43.3744 241.572 43.2755 242.01 43.2814C242.448 43.2873 242.843 43.392 243.197 43.5956C243.563 43.8071 243.75 44.0362 243.757 44.2829C243.767 44.5316 243.604 44.7568 243.268 44.9585L243.049 45.0847C242.699 45.2864 242.305 45.3843 241.867 45.3785C241.436 45.3726 241.04 45.2659 240.68 45.0583C240.324 44.8527 240.137 44.6236 240.12 44.371C240.107 44.1204 240.281 43.8903 240.645 43.6808L240.823 43.578Z" fill="white"/>
<path d="M244.572 45.7397C244.925 45.5361 245.32 45.4372 245.758 45.4431C246.196 45.4489 246.592 45.5537 246.945 45.7573C247.312 45.9688 247.499 46.1979 247.505 46.4446C247.516 46.6933 247.353 46.9185 247.017 47.1201L246.798 47.2464C246.448 47.4481 246.054 47.546 245.616 47.5402C245.185 47.5343 244.789 47.4276 244.429 47.22C244.073 47.0144 243.886 46.7853 243.869 46.5327C243.855 46.2821 244.03 46.052 244.393 45.8425L244.572 45.7397Z" fill="white"/>
<path d="M248.32 47.9014C248.674 47.6978 249.069 47.5989 249.507 47.6048C249.945 47.6106 250.341 47.7154 250.694 47.919C251.061 48.1305 251.247 48.3596 251.254 48.6063C251.264 48.855 251.101 49.0802 250.765 49.2818L250.546 49.4081C250.196 49.6098 249.803 49.7077 249.365 49.7019C248.933 49.696 248.538 49.5893 248.178 49.3817C247.821 49.1761 247.635 48.947 247.618 48.6944C247.604 48.4438 247.779 48.2137 248.142 48.0042L248.32 47.9014Z" fill="white"/>
<path d="M252.069 50.0631C252.422 49.8595 252.818 49.7606 253.256 49.7665C253.694 49.7723 254.089 49.8771 254.443 50.0807C254.809 50.2922 254.996 50.5213 255.003 50.768C255.013 51.0167 254.85 51.2419 254.514 51.4435L254.295 51.5698C253.945 51.7715 253.551 51.8694 253.113 51.8635C252.682 51.8577 252.286 51.751 251.926 51.5434C251.57 51.3378 251.383 51.1087 251.366 50.8561C251.353 50.6055 251.528 50.3754 251.891 50.1659L252.069 50.0631Z" fill="white"/>
<path d="M266.208 58.2165C266.561 58.0128 266.957 57.9139 267.395 57.9198C267.833 57.9257 268.229 58.0305 268.582 58.2341C268.948 58.4456 269.135 58.6747 269.142 58.9214C269.152 59.17 268.989 59.3952 268.653 59.5969L268.434 59.7232C268.084 59.9249 267.69 60.0228 267.252 60.0169C266.821 60.011 266.426 59.9043 266.066 59.6968C265.709 59.4912 265.522 59.2621 265.505 59.0095C265.492 58.7588 265.667 58.5288 266.03 58.3193L266.208 58.2165Z" fill="white"/>
<path d="M269.957 60.3782C270.31 60.1745 270.706 60.0756 271.144 60.0815C271.582 60.0874 271.977 60.1921 272.33 60.3958C272.697 60.6073 272.884 60.8363 272.891 61.0831C272.901 61.3317 272.738 61.5569 272.402 61.7586L272.183 61.8849C271.833 62.0866 271.439 62.1845 271.001 62.1786C270.57 62.1727 270.174 62.066 269.814 61.8585C269.458 61.6529 269.271 61.4238 269.254 61.1712C269.24 60.9205 269.415 60.6905 269.779 60.481L269.957 60.3782Z" fill="white"/>
<path d="M273.706 62.5399C274.059 62.3362 274.454 62.2373 274.892 62.2432C275.33 62.2491 275.726 62.3538 276.079 62.5575C276.446 62.769 276.633 62.998 276.639 63.2448C276.65 63.4934 276.487 63.7186 276.15 63.9203L275.931 64.0466C275.582 64.2483 275.188 64.3462 274.75 64.3403C274.318 64.3344 273.923 64.2277 273.563 64.0202C273.206 63.8146 273.02 63.5855 273.003 63.3329C272.989 63.0822 273.164 62.8522 273.527 62.6427L273.706 62.5399Z" fill="white"/>
<path d="M277.454 64.7016C277.807 64.4979 278.203 64.399 278.641 64.4049C279.079 64.4108 279.475 64.5155 279.828 64.7192C280.194 64.9306 280.381 65.1597 280.388 65.4065C280.398 65.6551 280.235 65.8803 279.899 66.082L279.68 66.2083C279.33 66.41 278.936 66.5079 278.498 66.502C278.067 66.4961 277.672 66.3894 277.312 66.1818C276.955 65.9763 276.768 65.7472 276.751 65.4946C276.738 65.2439 276.913 65.0139 277.276 64.8044L277.454 64.7016Z" fill="white"/>
<path d="M299.142 74.1061L289.683 76.2531L288.13 75.3573L297.227 73.4247L293.539 71.2983L294.731 70.611L299.967 73.6303L299.142 74.1061Z" fill="white"/>
<path d="M303.777 78.1005C303.417 78.3081 303.008 78.4403 302.549 78.4971C302.091 78.5538 301.62 78.5391 301.138 78.453C301.325 78.7604 301.371 79.0629 301.276 79.3606C301.184 79.6562 300.933 79.9225 300.522 80.1594C299.863 80.5393 299.118 80.7106 298.286 80.6734C297.457 80.6343 296.658 80.3925 295.887 79.948C295.116 79.5035 294.697 79.0404 294.629 78.5587C294.561 78.077 294.855 77.6473 295.51 77.2693C295.921 77.0324 296.384 76.8866 296.901 76.8317C297.417 76.7769 297.938 76.8033 298.464 76.911C298.315 76.633 298.289 76.3618 298.388 76.0975C298.49 75.8351 298.721 75.6001 299.081 75.3926C299.712 75.0284 300.425 74.86 301.22 74.8874C302.018 74.9128 302.778 75.1341 303.502 75.5512C304.221 75.9663 304.605 76.4029 304.653 76.8611C304.707 77.3193 304.415 77.7324 303.777 78.1005ZM299.152 79.246C299.474 79.06 299.639 78.8573 299.646 78.638C299.653 78.4187 299.498 78.218 299.182 78.0359C298.87 77.8558 298.524 77.7677 298.143 77.7716C297.766 77.7736 297.415 77.8685 297.089 78.0565C296.773 78.2386 296.61 78.4383 296.6 78.6557C296.59 78.873 296.748 79.0757 297.074 79.2636C297.393 79.4477 297.736 79.5378 298.103 79.5338C298.473 79.5319 298.822 79.4359 299.152 79.246ZM302.233 77.2928C302.522 77.1264 302.676 76.9492 302.697 76.7612C302.721 76.5713 302.593 76.3961 302.315 76.2355C302.04 76.0769 301.741 76.0025 301.418 76.0123C301.096 76.0221 300.785 76.1131 300.486 76.2854C300.191 76.4558 300.03 76.6369 300.002 76.8288C299.975 77.0207 300.101 77.1969 300.379 77.3575C300.658 77.518 300.962 77.5895 301.291 77.5719C301.624 77.5562 301.938 77.4632 302.233 77.2928Z" fill="white"/>
<path d="M305.895 82.1831C305.135 82.1792 304.498 82.0294 303.985 81.7337C303.33 81.3558 303.03 80.9241 303.084 80.4385C303.142 79.9509 303.552 79.4868 304.316 79.0463C304.802 78.7663 305.352 78.5705 305.967 78.4589C306.588 78.3473 307.201 78.3365 307.805 78.4266C308.413 78.5147 308.955 78.6958 309.43 78.9699C309.919 79.2519 310.232 79.573 310.367 79.9333C310.503 80.2936 310.447 80.6666 310.199 81.0523C309.951 81.4381 309.534 81.8023 308.946 82.1449L308.401 82.4592C307.165 83.1719 305.887 83.5547 304.566 83.6076C303.245 83.6605 301.997 83.3756 300.822 82.7529L300.456 82.5473L301.683 81.8395L302.014 82.0245C303.352 82.7294 304.646 82.7823 305.895 82.1831ZM305.473 81.2932C305.71 81.4302 305.975 81.5125 306.267 81.5399C306.563 81.5692 306.841 81.5595 307.103 81.5105L307.709 81.161C308.208 80.8732 308.5 80.5951 308.585 80.3269C308.67 80.0586 308.552 79.8324 308.233 79.6484C307.938 79.478 307.559 79.4164 307.097 79.4634C306.639 79.5084 306.206 79.6484 305.799 79.8834C305.395 80.1164 305.153 80.3611 305.075 80.6176C305.004 80.8741 305.137 81.0993 305.473 81.2932Z" fill="white"/>
<path d="M313.535 86.4712C312.51 87.0626 311.513 87.3925 310.546 87.461C309.578 87.5296 308.685 87.3279 307.867 86.856C307.058 86.39 306.707 85.8799 306.812 85.3258C306.917 84.7717 307.462 84.2048 308.447 83.6252L309.812 82.8381C310.848 82.2409 311.848 81.9109 312.812 81.8483C313.78 81.7876 314.668 81.9902 315.476 82.4562C316.284 82.9223 316.636 83.4323 316.53 83.9865C316.428 84.5386 315.885 85.1045 314.9 85.6841L313.535 86.4712ZM313.561 84.7589C314.175 84.4045 314.537 84.0981 314.646 83.8396C314.761 83.5811 314.641 83.3491 314.284 83.1435C313.938 82.9438 313.547 82.8733 313.113 82.9321C312.685 82.9908 312.182 83.1807 311.605 83.5018L309.802 84.5416C309.198 84.8901 308.829 85.1965 308.697 85.4609C308.571 85.7252 308.69 85.9621 309.053 86.1717C309.413 86.3792 309.814 86.4477 310.255 86.3773C310.697 86.3068 311.211 86.1061 311.799 85.7752L313.561 84.7589Z" fill="white"/>
<g clip-path="url(#clip0)">
<path d="M289.904 87.3174L278.098 90.1427L275.844 88.8427L280.81 84.0164C281.116 83.7203 281.178 83.5826 281.037 83.2997C280.804 82.8424 280.225 82.2033 279.645 81.6786L279.94 81.5658L283.57 83.6594C284.034 83.9268 284.138 84.3444 283.702 84.7154L279.766 88.0203L287.669 86.0231L289.909 87.3145L289.904 87.3174ZM293.11 95.6517C295.324 94.3862 292.425 92.5762 293.43 92.0198C293.734 91.8497 294.336 91.8274 295.032 92.1368C295.378 92.2901 296.251 92.7592 296.759 93.5647L298.903 92.7606C298.59 92.3552 298.109 91.8702 297.29 91.3981C295.184 90.1835 292.564 89.9816 290.93 90.9126C289.715 91.5959 290.116 92.6051 290.525 93.3022C290.944 94.0164 290.965 94.3284 290.59 94.5389C290.026 94.8588 289.12 94.6246 288.498 94.272C287.408 93.6662 287.096 93.1234 286.833 92.7064L284.619 93.5394C284.887 93.9593 285.599 94.6066 286.546 95.1641C288.781 96.4527 291.371 96.649 293.11 95.6517ZM295.955 100.434L297.928 101.572L304.554 95.7655L302.734 94.7159C302.324 94.4798 301.739 94.419 301.211 94.547L290.277 97.1599L292.517 98.4513L294.205 97.9896L296.938 99.5655L295.955 100.434ZM296.531 97.3537L300.795 96.1921L298.302 98.3749L296.531 97.3537ZM292.952 89.0753L282.839 92.8762L280.703 91.6445L290.816 87.8436L292.952 89.0753Z" fill="white"/>
<path d="M280.525 94.3013C280.718 94.3722 280.995 94.5029 281.251 94.6508C281.616 94.8613 281.783 95.0324 281.816 95.2184C281.854 95.3672 281.768 95.5135 281.543 95.6432C281.268 95.8017 280.841 95.8377 280.435 95.7305L280.425 95.7362C280.621 95.9302 280.717 96.2391 280.292 96.4841C280.047 96.6253 279.763 96.6808 279.48 96.679C279.103 96.669 278.702 96.5359 278.239 96.2686C277.987 96.1235 277.81 96.0039 277.706 95.9213L280.521 94.2985L280.525 94.3013ZM279.721 95.1863L280.051 95.3769C280.436 95.5988 280.868 95.6114 281.143 95.4529C281.478 95.2598 281.356 95.0398 280.986 94.8264C280.818 94.7297 280.71 94.6843 280.641 94.656L279.721 95.1863ZM278.351 95.9761C278.405 96.0245 278.514 96.0871 278.642 96.1611C279.017 96.3773 279.507 96.4985 279.922 96.2593C280.312 96.0344 280.141 95.7516 279.742 95.5212L279.441 95.3477L278.351 95.9761Z" fill="white"/>
<path d="M282.303 97.9299C282.093 98.051 281.908 98.1633 281.758 98.2613L281.433 98.0735L281.748 97.869L281.738 97.8633C281.474 97.9016 281.047 97.9032 280.687 97.6956C280.372 97.5135 280.167 97.1879 280.886 96.7728L282.086 96.0811L282.456 96.2944L281.321 96.9487C280.932 97.1735 280.785 97.3945 281.12 97.588C281.367 97.7302 281.715 97.7289 281.944 97.6707C282.018 97.6504 282.103 97.6186 282.168 97.5811L283.428 96.8548L283.798 97.0681L282.303 97.9299Z" fill="white"/>
<path d="M282.768 98.4008C282.807 98.5038 282.919 98.6608 283.102 98.7661C283.368 98.9197 283.631 98.9158 283.801 98.8178C283.981 98.714 283.972 98.5995 283.801 98.3854C283.566 98.1 283.598 97.8823 283.843 97.7411C284.173 97.5508 284.714 97.5459 285.149 97.7962C285.356 97.9157 285.473 98.0527 285.522 98.1556L285.158 98.2572C285.129 98.1828 285.051 98.0571 284.864 97.949C284.647 97.8239 284.398 97.8248 284.243 97.9142C284.074 98.0122 284.122 98.1265 284.278 98.3378C284.494 98.6176 284.496 98.8266 284.191 99.0024C283.831 99.21 283.3 99.1977 282.817 98.9189C282.595 98.7909 282.443 98.6397 282.39 98.5111L282.768 98.4008Z" fill="white"/>
<path d="M287.211 98.3764C287.091 98.4513 286.893 98.4578 286.75 98.3753C286.621 98.3014 286.628 98.1897 286.758 98.1147C286.888 98.0398 287.086 98.0333 287.219 98.1101C287.358 98.1897 287.346 98.2986 287.211 98.3764ZM284.173 99.6564L286.227 98.4718L286.597 98.6851L284.543 99.8698L284.173 99.6564Z" fill="white"/>
<path d="M286.734 99.4027C286.944 99.2816 287.114 99.1779 287.269 99.0714L287.595 99.2591L287.274 99.4665L287.284 99.4722C287.578 99.4166 288.005 99.4436 288.34 99.6371C288.621 99.7992 288.885 100.148 288.181 100.554L286.956 101.26L286.591 101.05L287.776 100.366C288.105 100.176 288.257 99.9466 287.912 99.7475C287.67 99.6081 287.303 99.5981 287.039 99.6821C286.979 99.6995 286.904 99.7313 286.839 99.7688L285.604 100.481L285.234 100.267L286.734 99.4027Z" fill="white"/>
<path d="M288.804 101.218C288.309 101.515 288.415 101.818 288.785 102.032C289.046 102.182 289.254 102.25 289.452 102.295L289.251 102.485C289.063 102.446 288.776 102.355 288.45 102.167C287.824 101.806 287.869 101.354 288.489 100.996C289.108 100.639 289.953 100.567 290.545 100.908C291.206 101.289 290.794 101.732 290.419 101.948C290.344 101.991 290.274 102.02 290.229 102.04L288.804 101.218ZM290.149 101.688C290.394 101.553 290.655 101.283 290.241 101.044C289.871 100.831 289.353 100.936 289.074 101.068L290.149 101.688Z" fill="white"/>
<path d="M290.152 102.659C290.191 102.762 290.303 102.919 290.486 103.025C290.752 103.178 291.015 103.174 291.185 103.076C291.365 102.973 291.357 102.858 291.185 102.644C290.95 102.359 290.983 102.141 291.228 102C291.557 101.809 292.099 101.804 292.533 102.055C292.74 102.174 292.858 102.311 292.906 102.414L292.542 102.516C292.513 102.441 292.435 102.316 292.248 102.208C292.031 102.082 291.783 102.083 291.628 102.173C291.458 102.271 291.506 102.385 291.663 102.596C291.878 102.876 291.88 103.085 291.576 103.261C291.216 103.469 290.685 103.456 290.201 103.177C289.979 103.049 289.827 102.898 289.774 102.77L290.152 102.659Z" fill="white"/>
</g>
<defs>
<filter id="filter0_f" x="0.526299" y="15.8339" width="459.044" height="293.736" filterUnits="userSpaceOnUse" color-interpolation-filters="sRGB">
<feFlood flood-opacity="0" result="BackgroundImageFix"/>
<feBlend mode="normal" in="SourceGraphic" in2="BackgroundImageFix" result="shape"/>
<feGaussianBlur stdDeviation="16.2852" result="effect1_foregroundBlur"/>
</filter>
<filter id="filter1_f" x="16.3908" y="19.4811" width="417.11" height="248.316" filterUnits="userSpaceOnUse" color-interpolation-filters="sRGB">
<feFlood flood-opacity="0" result="BackgroundImageFix"/>
<feBlend mode="normal" in="SourceGraphic" in2="BackgroundImageFix" result="shape"/>
<feGaussianBlur stdDeviation="5.30462" result="effect1_foregroundBlur"/>
</filter>
<filter id="filter2_f" x="138.238" y="70.8876" width="280.248" height="159.883" filterUnits="userSpaceOnUse" color-interpolation-filters="sRGB">
<feFlood flood-opacity="0" result="BackgroundImageFix"/>
<feBlend mode="normal" in="SourceGraphic" in2="BackgroundImageFix" result="shape"/>
<feGaussianBlur stdDeviation="0.767274" result="effect1_foregroundBlur"/>
</filter>
<filter id="filter3_f" x="113.235" y="66.9681" width="170.135" height="105.577" filterUnits="userSpaceOnUse" color-interpolation-filters="sRGB">
<feFlood flood-opacity="0" result="BackgroundImageFix"/>
<feBlend mode="normal" in="SourceGraphic" in2="BackgroundImageFix" result="shape"/>
<feGaussianBlur stdDeviation="3.73445" result="effect1_foregroundBlur"/>
</filter>
<filter id="filter4_f" x="41.744" y="109.914" width="170.135" height="105.577" filterUnits="userSpaceOnUse" color-interpolation-filters="sRGB">
<feFlood flood-opacity="0" result="BackgroundImageFix"/>
<feBlend mode="normal" in="SourceGraphic" in2="BackgroundImageFix" result="shape"/>
<feGaussianBlur stdDeviation="3.73445" result="effect1_foregroundBlur"/>
</filter>
<filter id="filter5_f" x="180.037" y="13.8103" width="197.633" height="125.805" filterUnits="userSpaceOnUse" color-interpolation-filters="sRGB">
<feFlood flood-opacity="0" result="BackgroundImageFix"/>
<feBlend mode="normal" in="SourceGraphic" in2="BackgroundImageFix" result="shape"/>
<feGaussianBlur stdDeviation="6.38809" result="effect1_foregroundBlur"/>
</filter>
<linearGradient id="paint0_linear" x1="201.993" y1="200.132" x2="213.535" y2="219.873" gradientUnits="userSpaceOnUse">
<stop stop-color="#B4CAFE"/>
<stop offset="0.612992" stop-color="#AFC5F9"/>
<stop offset="1" stop-color="#132554"/>
</linearGradient>
<linearGradient id="paint1_linear" x1="201.993" y1="200.132" x2="213.535" y2="219.873" gradientUnits="userSpaceOnUse">
<stop stop-color="#B4CAFE"/>
<stop offset="0.612992" stop-color="#AFC5F9"/>
<stop offset="1" stop-color="#132554"/>
</linearGradient>
<linearGradient id="paint2_linear" x1="423.763" y1="88.5941" x2="412.667" y2="83.6818" gradientUnits="userSpaceOnUse">
<stop stop-color="#08163B"/>
<stop offset="0.488052" stop-color="#08153A" stop-opacity="0.347936"/>
<stop offset="1" stop-color="#08153A" stop-opacity="0"/>
</linearGradient>
<linearGradient id="paint3_linear" x1="96.8093" y1="209.846" x2="89.1473" y2="222.866" gradientUnits="userSpaceOnUse">
<stop offset="0.120404" stop-color="#B4CAFE"/>
<stop offset="0.529412" stop-color="#899FD6"/>
<stop offset="1" stop-color="#132554"/>
</linearGradient>
<radialGradient id="paint4_radial" cx="0" cy="0" r="1" gradientUnits="userSpaceOnUse" gradientTransform="translate(145.916 216.821) rotate(92.7401) scale(33.4095 50.541)">
<stop offset="0.646454" stop-color="#B4CAFE" stop-opacity="0"/>
<stop offset="0.962879" stop-color="#132554"/>
</radialGradient>
<radialGradient id="paint5_radial" cx="0" cy="0" r="1" gradientUnits="userSpaceOnUse" gradientTransform="translate(147.756 237.832) rotate(97.2949) scale(8.75811 16.6372)">
<stop offset="0.540808" stop-color="#B4CAFE"/>
<stop offset="1" stop-color="#B4CAFE" stop-opacity="0"/>
</radialGradient>
<linearGradient id="paint6_linear" x1="180.862" y1="222.022" x2="180.862" y2="237.824" gradientUnits="userSpaceOnUse">
<stop stop-color="#CBDAFF"/>
<stop offset="0.494792" stop-color="#B4CAFE"/>
<stop offset="0.9375" stop-color="#5A74B5"/>
</linearGradient>
<linearGradient id="paint7_linear" x1="394.395" y1="99.1488" x2="394.395" y2="114.95" gradientUnits="userSpaceOnUse">
<stop stop-color="#CBDAFF"/>
<stop offset="0.494792" stop-color="#B4CAFE"/>
<stop offset="0.9375" stop-color="#5A74B5"/>
</linearGradient>
<linearGradient id="paint8_linear" x1="167.081" y1="87.2167" x2="224.277" y2="186.628" gradientUnits="userSpaceOnUse">
<stop stop-color="#8AAAF7"/>
<stop offset="1" stop-color="#4B77DE"/>
</linearGradient>
<linearGradient id="paint9_linear" x1="190" y1="54.5" x2="234" y2="129.5" gradientUnits="userSpaceOnUse">
<stop stop-color="#5F78B4"/>
<stop offset="0.490704" stop-color="#7493DF"/>
</linearGradient>
<linearGradient id="paint10_linear" x1="116.889" y1="97.1594" x2="160.889" y2="172.159" gradientUnits="userSpaceOnUse">
<stop stop-color="#5F78B4"/>
<stop offset="0.490704" stop-color="#7493DF"/>
</linearGradient>
<linearGradient id="paint11_linear" x1="353.509" y1="115.067" x2="190.731" y2="114.678" gradientUnits="userSpaceOnUse">
<stop stop-color="#7595E5"/>
<stop offset="0.110916" stop-color="#93AEF2"/>
<stop offset="0.249202" stop-color="#7595E5"/>
<stop offset="0.373848" stop-color="#C6D6FF"/>
<stop offset="0.465604" stop-color="#7595E5"/>
<stop offset="1" stop-color="#7595E5"/>
</linearGradient>
<linearGradient id="paint12_linear" x1="212" y1="22.5" x2="331" y2="93.5" gradientUnits="userSpaceOnUse">
<stop offset="0.236836" stop-color="#284180"/>
<stop offset="0.812429" stop-color="#4A72D2"/>
</linearGradient>
<linearGradient id="paint13_linear" x1="270.054" y1="-24.165" x2="266.556" y2="113.19" gradientUnits="userSpaceOnUse">
<stop stop-color="#547FE2"/>
<stop offset="1" stop-color="#85A6F5" stop-opacity="0"/>
</linearGradient>
<linearGradient id="paint14_linear" x1="270.054" y1="-24.165" x2="266.556" y2="113.19" gradientUnits="userSpaceOnUse">
<stop stop-color="#547FE2"/>
<stop offset="1" stop-color="#85A6F5" stop-opacity="0"/>
</linearGradient>
<linearGradient id="paint15_linear" x1="270.054" y1="-24.165" x2="266.556" y2="113.19" gradientUnits="userSpaceOnUse">
<stop stop-color="#547FE2"/>
<stop offset="1" stop-color="#85A6F5" stop-opacity="0"/>
</linearGradient>
<clipPath id="clip0">
<rect width="29.9342" height="16.3277" fill="white" transform="matrix(0.866529 0.499687 -0.866529 0.499687 287.71 79.4539)"/>
</clipPath>
</defs>
</svg>
