<?xml version="1.0" encoding="UTF-8" standalone="no"?>
<svg
   xmlns:dc="http://purl.org/dc/elements/1.1/"
   xmlns:cc="http://creativecommons.org/ns#"
   xmlns:rdf="http://www.w3.org/1999/02/22-rdf-syntax-ns#"
   xmlns:svg="http://www.w3.org/2000/svg"
   xmlns="http://www.w3.org/2000/svg"
   xmlns:sodipodi="http://sodipodi.sourceforge.net/DTD/sodipodi-0.dtd"
   xmlns:inkscape="http://www.inkscape.org/namespaces/inkscape"
   aria-hidden="true"
   focusable="false"
   data-prefix="fab"
   data-icon="instagram"
   role="img"
   viewBox="0 0 448 448"
   class="svg-inline--fa fa-instagram fa-w-14 fa-3x"
   version="1.1"
   id="svg949"
   sodipodi:docname="insta.svg"
   width="448"
   height="448"
   inkscape:version="0.92.4 (f8dce91, 2019-08-02)">
  <metadata
     id="metadata955">
    <rdf:RDF>
      <cc:Work
         rdf:about="">
        <dc:format>image/svg+xml</dc:format>
        <dc:type
           rdf:resource="http://purl.org/dc/dcmitype/StillImage" />
        <dc:title></dc:title>
      </cc:Work>
    </rdf:RDF>
  </metadata>
  <defs
     id="defs953" />
  <sodipodi:namedview
     pagecolor="#ffffff"
     bordercolor="#666666"
     borderopacity="1"
     objecttolerance="10"
     gridtolerance="10"
     guidetolerance="10"
     inkscape:pageopacity="0"
     inkscape:pageshadow="2"
     inkscape:window-width="1920"
     inkscape:window-height="1043"
     id="namedview951"
     showgrid="false"
     inkscape:zoom="0.921875"
     inkscape:cx="210.12368"
     inkscape:cy="223.42932"
     inkscape:window-x="0"
     inkscape:window-y="0"
     inkscape:window-maximized="1"
     inkscape:current-layer="svg949" />
  <path
     d="m 224.175,109.02501 c -63.6,0 -114.9,51.3 -114.9,114.9 0,63.6 51.3,114.9 114.9,114.9 63.6,0 114.9,-51.3 114.9,-114.9 0,-63.6 -51.3,-114.9 -114.9,-114.9 z m 0,189.6 c -41.1,0 -74.7,-33.5 -74.7,-74.7 0,-41.2 33.5,-74.7 74.7,-74.7 41.2,0 74.7,33.5 74.7,74.7 0,41.2 -33.6,74.7 -74.7,74.7 z m 146.4,-194.3 c 0,14.9 -12,26.8 -26.8,26.8 -14.9,0 -26.8,-12 -26.8,-26.8 0,-14.800004 12,-26.800004 26.8,-26.800004 14.8,0 26.8,12 26.8,26.800004 z m 76.1,27.2 c -1.7,-35.900004 -9.9,-67.700004 -36.2,-93.900004 -26.2,-26.2 -58,-34.3999999 -93.9,-36.1999999 -37,-2.1 -147.9,-2.1 -184.9,0 -35.8,1.7 -67.6,9.8999999 -93.9,36.0999999 -26.3,26.2 -34.4,58 -36.2,93.900004 -2.1,37 -2.1,147.9 0,184.9 1.7,35.9 9.9,67.7 36.2,93.9 26.3,26.2 58,34.4 93.9,36.2 37,2.1 147.9,2.1 184.9,0 35.9,-1.7 67.7,-9.9 93.9,-36.2 26.2,-26.2 34.4,-58 36.2,-93.9 2.1,-37 2.1,-147.8 0,-184.8 z m -47.8,224.5 c -7.8,19.6 -22.9,34.7 -42.6,42.6 -29.5,11.7 -99.5,9 -132.1,9 -32.6,0 -102.7,2.6 -132.1,-9 -19.6,-7.8 -34.7,-22.9 -42.6,-42.6 -11.7,-29.5 -9,-99.5 -9,-132.1 0,-32.6 -2.6,-102.7 9,-132.100004 7.8,-19.6 22.9,-34.7 42.6,-42.6 29.5,-11.7 99.5,-9 132.1,-9 32.6,0 102.7,-2.6 132.1,9 19.6,7.8 34.7,22.9 42.6,42.6 11.7,29.500004 9,99.500004 9,132.100004 0,32.6 2.7,102.7 -9,132.1 z"
     class=""
     id="path947"
     inkscape:connector-curvature="0"
     style="fill:#d4ab0f;fill-opacity:0.94117647" />
</svg>
