<svg width="360" height="252" viewBox="0 0 360 252" fill="none" xmlns="http://www.w3.org/2000/svg">
<path d="M24.9251 39.8633C55.5886 -4.5985 127.686 -11.5623 173.898 22.328C220.109 56.2183 255.442 87.8672 299.987 88.4337C344.532 89.0002 404.599 167.939 309.108 222.819C213.616 277.698 95.2228 244.826 50.1795 208.541C5.14308 172.276 -22.9345 109.295 24.9251 39.8633Z" fill="#F1F5FE"/>
<g filter="url(#filter0_f)">
<path d="M182.954 122.86L146.827 141.879L119.645 126.741L60.2175 159.875L66.6406 163.452L56.1654 169.405C55.3387 169.888 55.4504 170.702 56.3889 171.23L103.558 198.036C104.497 198.564 105.927 198.63 106.754 198.168L117.754 191.917L158.127 214.4L189.064 197.15L216.554 212.753C218.171 214.126 220.451 213.476 222.068 212.536L282.799 177.851C259.911 161.787 240.828 152.296 219.273 141.574C208.119 136.026 196.302 130.148 182.954 122.86Z" fill="#4971D0" fill-opacity="0.3"/>
</g>
<path d="M279.76 94.5258L186.454 40.7185C184.75 39.7563 183.416 40.3484 183.416 41.9767V114.287L282.739 174.404L282.799 99.2627C282.799 97.6344 281.465 95.488 279.76 94.5258Z" fill="#486DC6"/>
<path d="M182.888 41.1342L184.12 40.4717L184.959 41.5541L182.888 41.1342Z" fill="#476DCA"/>
<path d="M182.082 118.069L121.395 150.532C120.431 149.718 119.961 154.695 121.755 155.816L215.95 210.141C217.581 211.547 219.878 210.881 221.509 209.919L282.724 174.393C247.714 149.426 221.538 139.959 182.082 118.069Z" fill="#486DC6"/>
<path d="M281.461 172.237L182.078 114.951V42.7141C182.078 41.0118 183.412 40.4937 185.116 41.4559L278.422 95.2632C280.127 96.2254 281.461 98.3718 281.461 100V172.237Z" fill="url(#paint0_linear)"/>
<mask id="mask0" mask-type="alpha" maskUnits="userSpaceOnUse" x="185" y="45" width="94" height="124">
<path d="M278.122 168.053L185.699 114.341V45.0998L278.122 98.8123V168.053Z" fill="url(#paint1_linear)"/>
</mask>
<g mask="url(#mask0)">
<path opacity="0.05" d="M178.078 124.277L145.839 74.0965L215.8 20.8813L248.038 71.136L178.078 124.277Z" fill="white"/>
<path opacity="0.05" d="M246.704 160.841L241.072 152.033L311.107 98.7441L316.813 107.552L246.704 160.841Z" fill="white"/>
</g>
<path opacity="0.25" d="M231.956 71.1333C231.585 70.9113 231.289 70.4673 231.289 70.0973V69.8753C231.289 69.5052 231.585 69.3572 231.956 69.5793C232.326 69.8013 232.623 70.2453 232.623 70.6153V70.8373C232.623 71.2813 232.326 71.3553 231.956 71.1333Z" fill="black"/>
<path d="M182.081 114.951L281.464 172.237L221.508 206.801C219.877 207.763 217.358 207.837 215.95 207.023L121.754 152.772C120.346 151.957 120.495 150.551 122.125 149.589L182.081 114.951Z" fill="url(#paint2_linear)"/>
<g opacity="0.5">
<g opacity="0.7">
<path d="M178.462 129.122L249.569 170.228L252.746 168.415L181.639 127.309L178.462 129.122Z" fill="url(#paint3_linear)"/>
<path d="M170.596 133.655L237.466 172.192L240.643 170.379L173.773 131.842L170.596 133.655Z" fill="url(#paint4_linear)"/>
<path d="M165.603 136.527L244.274 181.864L247.452 180.051L168.78 134.713L165.603 136.527Z" fill="url(#paint5_linear)"/>
<path d="M160.459 139.549L239.131 184.887L242.308 183.073L163.636 137.736L160.459 139.549Z" fill="url(#paint6_linear)"/>
<path d="M155.466 142.42L234.137 187.758L237.315 185.944L158.643 140.607L155.466 142.42Z" fill="url(#paint7_linear)"/>
<path d="M253.958 172.798L257.135 174.611L260.312 172.798L257.135 170.985L253.958 172.798Z" fill="url(#paint8_linear)"/>
<path d="M242.762 175.216L249.268 178.993L252.445 177.18L245.939 173.403L242.762 175.216Z" fill="url(#paint9_linear)"/>
</g>
</g>
<g opacity="0.82" filter="url(#filter1_f)">
<path d="M216.828 171.939L185.257 190.508L87.7756 133.843L118.136 116.093L216.828 171.939Z" fill="#395DB5"/>
</g>
<path d="M216.828 169.147L156.926 203.084L58.2343 147.238L118.136 113.301L216.828 169.147Z" fill="url(#paint10_linear)"/>
<path fill-rule="evenodd" clip-rule="evenodd" d="M140.087 137.383L99.1685 161.007L97.8911 160.27L138.809 136.646L140.087 137.383Z" fill="#B1C4F5"/>
<path fill-rule="evenodd" clip-rule="evenodd" d="M130.837 148.929L104.543 164.11L103.265 163.373L129.56 148.192L130.837 148.929Z" fill="#B1C4F5"/>
<path fill-rule="evenodd" clip-rule="evenodd" d="M108.99 133.026L82.6955 148.207L81.4181 147.47L107.713 132.289L108.99 133.026Z" fill="#B1C4F5"/>
<path fill-rule="evenodd" clip-rule="evenodd" d="M145.558 140.43L135.869 146.024L134.592 145.286L144.28 139.693L145.558 140.43Z" fill="#B1C4F5"/>
<path fill-rule="evenodd" clip-rule="evenodd" d="M150.999 143.519L110.08 167.143L108.803 166.405L149.721 142.781L150.999 143.519Z" fill="#B1C4F5"/>
<path fill-rule="evenodd" clip-rule="evenodd" d="M150.534 150.003L115.689 170.129L114.412 169.391L149.257 149.266L150.534 150.003Z" fill="#B1C4F5"/>
<path fill-rule="evenodd" clip-rule="evenodd" d="M155.902 153.075L132.163 166.782L130.885 166.044L154.625 152.338L155.902 153.075Z" fill="#B1C4F5"/>
<path fill-rule="evenodd" clip-rule="evenodd" d="M114.094 136.021L90.3544 149.727L89.077 148.99L112.817 135.284L114.094 136.021Z" fill="#B1C4F5"/>
<path fill-rule="evenodd" clip-rule="evenodd" d="M167.496 152.617L126.578 176.241L125.301 175.503L166.219 151.879L167.496 152.617Z" fill="#B1C4F5"/>
<path fill-rule="evenodd" clip-rule="evenodd" d="M172.967 155.661L144.118 172.317L142.841 171.579L171.69 154.923L172.967 155.661Z" fill="#B1C4F5"/>
<path d="M168.253 175.524C167.305 174.271 167.073 172.872 167.6 171.546C168.085 170.293 169.56 168.712 172.13 168.736C174.301 168.748 175.86 170.013 176.134 171.169C176.45 172.544 175.375 173.894 174.385 175.123C174.469 175.123 174.532 175.111 174.617 175.111C172.931 173.967 173.542 172.033 175.733 171.23C177.946 170.415 181.128 170.938 182.624 172.118C184.246 173.395 183.825 175.269 182.118 176.449C181.233 177.057 179.505 177.739 178.262 177.021C177.208 176.413 177.272 175.403 177.419 174.612C177.798 172.69 179.042 170.853 180.959 169.259C180.875 169.259 180.812 169.271 180.727 169.271C181.528 169.831 182.329 170.391 183.129 170.95C183.214 171.023 183.403 170.938 183.382 170.877C183.066 170.013 182.771 169.138 182.455 168.274C182.371 168.298 182.287 168.322 182.202 168.347C183.382 169.125 185.742 170.318 187.47 169.271C188.229 168.809 188.25 168.116 188.334 167.507C188.376 167.118 188.439 166.668 188.819 166.327C189.24 165.962 190.041 165.743 190.757 165.962C190.926 166.011 191.073 165.877 190.905 165.804C190.252 165.597 189.493 165.695 188.945 165.987C188.25 166.339 188.123 166.875 188.06 167.374C187.955 168.164 187.976 169.271 186.269 169.454C184.647 169.636 183.403 168.846 182.455 168.225C182.35 168.164 182.181 168.237 182.202 168.298C182.518 169.162 182.813 170.038 183.129 170.902C183.214 170.877 183.298 170.853 183.382 170.829C182.582 170.269 181.781 169.709 180.98 169.15C180.896 169.101 180.812 169.125 180.748 169.162C178.62 170.902 177.272 172.945 177.061 175.038C176.998 175.804 177.145 176.838 178.409 177.301C179.568 177.726 180.917 177.361 181.844 176.875C183.951 175.731 184.668 173.687 183.108 172.228C181.718 170.914 178.578 170.269 176.113 170.914C173.373 171.644 172.467 173.894 174.427 175.22C174.49 175.257 174.617 175.257 174.659 175.208C176.155 173.322 177.883 170.695 174.511 169.089C173.226 168.493 171.498 168.395 170.086 168.919C168.401 169.551 167.558 170.695 167.221 171.765C166.82 173.067 167.094 174.393 167.979 175.61C168.063 175.707 168.337 175.622 168.253 175.524Z" fill="#4971D0" stroke="#4971D0" stroke-width="0.402743" stroke-linejoin="bevel"/>
<path opacity="0.58" d="M172.029 178.902C168.378 176.876 162.523 176.876 158.872 178.902C155.221 180.927 155.221 184.242 158.872 186.329C162.523 188.354 168.378 188.354 172.029 186.329C175.68 184.303 175.68 180.927 172.029 178.902Z" fill="#7B9FF5"/>
<path d="M239.758 141.544L241.762 140.13L240.087 138.014L239.758 141.544Z" fill="#A7432E"/>
<path d="M231.998 143.928L229.805 145.077L229.718 137.905L234.435 138.41L231.998 143.928Z" fill="#A7432E"/>
<path d="M229.801 145.082L224.212 134.23L233.154 137.186L229.801 145.082Z" fill="#FD8330"/>
<path d="M208.019 98.6338C208.019 95.0498 210.535 93.5971 213.639 95.3891L237.372 109.092C240.476 110.884 242.992 115.242 242.992 118.826L242.992 136.772C242.992 140.356 240.476 141.808 237.372 140.016L213.639 126.314C210.535 124.522 208.019 120.164 208.019 116.58L208.019 98.6338Z" fill="#A7432E"/>
<path d="M207.96 96.1738L209.58 95.0268L212.195 96.9624L207.96 96.1738Z" fill="#A7432E"/>
<path d="M206.32 99.8184C206.32 96.2344 208.836 94.7817 211.94 96.5737L235.673 110.276C238.777 112.068 241.293 116.426 241.293 120.01L241.293 137.956C241.293 141.54 238.777 142.993 235.673 141.201L211.94 127.498C208.836 125.706 206.32 121.348 206.32 117.764L206.32 99.8184Z" fill="url(#paint11_linear)"/>
<path fill-rule="evenodd" clip-rule="evenodd" d="M213.515 107.997C213.515 107.469 213.886 107.255 214.343 107.519L232.737 118.138C233.194 118.402 233.564 119.044 233.564 119.572C233.564 120.1 233.194 120.314 232.737 120.05L214.343 109.43C213.886 109.166 213.515 108.525 213.515 107.997ZM213.515 113.306C213.515 112.779 213.886 112.565 214.343 112.829L232.737 123.448C233.194 123.712 233.564 124.354 233.564 124.882C233.564 125.409 233.194 125.623 232.737 125.36L214.343 114.74C213.886 114.476 213.515 113.834 213.515 113.306ZM213.515 118.616C213.515 118.088 213.886 117.874 214.343 118.138L227.219 125.572C227.676 125.836 228.046 126.478 228.046 127.006C228.046 127.533 227.676 127.747 227.219 127.483L214.343 120.05C213.886 119.786 213.515 119.144 213.515 118.616Z" fill="white"/>
<path d="M134.382 46.5779C134.382 42.9761 136.91 41.5162 140.03 43.3171L163.881 57.0879C167.001 58.8888 169.529 63.2685 169.529 66.8703L169.529 84.9055C169.529 88.5074 167.001 89.9673 163.881 88.1664L140.03 74.3956C136.91 72.5947 134.382 68.2149 134.382 64.6131L134.382 46.5779Z" fill="#A7432E"/>
<path d="M165.937 89.7985L167.917 88.5192L166.481 86.1258L165.937 89.7985Z" fill="#A7432E"/>
<path d="M134.116 44.137L136.055 42.905L138.373 44.9294L134.116 44.137Z" fill="#A7432E"/>
<path d="M141.677 83.024L141.677 73.51L147.962 77.1094L141.677 83.024Z" fill="#A7432E"/>
<path d="M139.216 84.6006L141.687 83.0172L142.151 80.3979L139.216 84.6006Z" fill="#A7432E"/>
<path d="M132.468 47.7999C132.468 44.1981 134.996 42.7382 138.116 44.5391L161.967 58.3099C165.087 60.1108 167.615 64.4905 167.615 68.0924L167.615 86.1276C167.615 89.7294 165.087 91.1893 161.967 89.3884L138.116 75.6176C134.996 73.8167 132.468 69.4369 132.468 65.8351L132.468 47.7999Z" fill="url(#paint12_linear)"/>
<path d="M155.136 62.2895L142.68 55.0979C141.39 54.3531 140.344 54.9569 140.344 56.4463L140.344 57.4351L157.471 67.3236L157.471 66.3348C157.471 64.8453 156.426 63.0342 155.136 62.2895Z" fill="white"/>
<path fill-rule="evenodd" clip-rule="evenodd" d="M140.344 65.4358L140.344 59.0533L157.471 68.9417L157.471 75.3243C157.471 76.8137 156.426 77.4175 155.136 76.6727L142.68 69.4811C141.39 68.7364 140.344 66.9253 140.344 65.4358ZM149.686 68.2226C149.299 67.9992 148.986 68.1803 148.986 68.6271C148.986 69.0739 149.299 69.6173 149.686 69.8407L153.579 72.0881C153.966 72.3115 154.279 72.1304 154.279 71.6835C154.279 71.2367 153.966 70.6934 153.579 70.47L149.686 68.2226Z" fill="white"/>
<path d="M139.185 84.6096L139.185 75.0955L145.471 78.6949L139.185 84.6096Z" fill="#FD7C39"/>
<path d="M209.487 7.36534C209.487 4.3579 211.598 3.1389 214.203 4.64262L234.119 16.141C236.723 17.6447 238.835 21.3017 238.835 24.3091L238.835 39.3682C238.835 42.3756 236.723 43.5946 234.119 42.0909L214.203 30.5926C211.598 29.0888 209.487 25.4318 209.487 22.4244L209.487 7.36534Z" fill="#A7432E"/>
<path d="M235.835 43.4537L237.488 42.3855L236.289 40.3871L235.835 43.4537Z" fill="#A7432E"/>
<path d="M209.265 5.32727L210.883 4.29858L212.819 5.98897L209.265 5.32727Z" fill="#A7432E"/>
<path d="M215.578 37.797L215.578 29.853L220.826 32.8584L215.578 37.797Z" fill="#A7432E"/>
<path d="M213.523 39.1133L215.586 37.7912L215.974 35.6041L213.523 39.1133Z" fill="#A7432E"/>
<path d="M207.889 8.38579C207.889 5.37835 210 4.15934 212.605 5.66306L232.52 17.1614C235.125 18.6651 237.236 22.3221 237.236 25.3296L237.236 40.3886C237.236 43.3961 235.125 44.6151 232.52 43.1113L212.605 31.613C210 30.1093 207.889 26.4523 207.889 23.4448L207.889 8.38579Z" fill="url(#paint13_linear)"/>
<path d="M229.844 25.8176C229.844 23.5306 228.147 20.801 226.045 19.7313C224.126 18.7723 222.503 19.51 222.282 21.3912L222.208 21.3174C221.95 19.178 220.364 16.8542 218.446 15.8583C216.343 14.7886 214.647 15.7845 214.647 18.0715C214.647 19.178 215.052 20.3584 215.68 21.4281C215.864 21.7601 222.282 30.9078 222.282 30.9078C222.282 30.9078 226.93 28.916 228.479 28.2889C229.254 27.9938 229.844 27.1086 229.844 25.8176Z" fill="white"/>
<path d="M213.497 39.121L213.497 31.177L218.745 34.1824L213.497 39.121Z" fill="#FD7C39"/>
<g filter="url(#filter2_f)">
<path d="M120.843 183.013L133.614 176.332C134.448 175.859 134.335 175.025 133.389 174.462L85.8428 147.007C84.8968 146.466 83.4553 146.398 82.622 146.871L70.4736 154.535L120.843 183.013Z" fill="#4971D0" fill-opacity="0.51"/>
</g>
<path d="M53.7442 162.4L101.291 189.856C102.237 190.397 103.678 190.464 104.511 189.991L133.611 173.189C134.445 172.716 134.332 171.883 133.386 171.32L85.8397 143.864C84.8937 143.323 83.4523 143.256 82.6189 143.729L53.519 160.531C52.6857 161.026 52.7983 161.86 53.7442 162.4Z" fill="white"/>
<path d="M52.9598 160.896L52.9572 161.357C53.029 161.298 53.1755 161.176 53.1863 161.163C53.1971 161.15 53.0398 160.98 52.9598 160.896Z" fill="white"/>
<path d="M134.174 171.929L134.17 172.395L134.045 172.206L134.174 171.929Z" fill="white"/>
<path d="M53.748 161.944L101.294 189.399C102.24 189.94 103.682 190.007 104.515 189.534L133.615 172.732C134.448 172.259 134.336 171.426 133.39 170.863L85.8435 143.407C84.8975 142.867 83.456 142.799 82.6227 143.272L53.5228 160.074C52.6894 160.57 52.8021 161.403 53.748 161.944Z" fill="url(#paint14_linear)"/>
<path d="M75.6794 154.141C76.0366 154.379 76.3342 154.617 76.5128 154.855C76.6914 155.153 76.8105 155.391 76.8105 155.689C76.8105 155.986 76.6914 156.284 76.5128 156.522C76.3342 156.82 75.977 157.058 75.5604 157.296C75.1437 157.534 74.6675 157.712 74.1913 157.832C73.7151 157.951 73.1794 158.01 72.7032 158.01C72.227 158.01 71.6912 157.951 71.215 157.832C70.7388 157.712 70.3221 157.534 69.9054 157.355C69.4887 157.117 69.2507 156.879 69.1316 156.641C69.0126 156.403 68.953 156.165 69.0125 155.927L68.3578 156.284L67.1672 155.57L74.6675 151.224L75.858 151.938L73.1198 153.486C73.5365 153.486 73.9532 153.486 74.3698 153.546C74.9056 153.784 75.3223 153.903 75.6794 154.141ZM74.4294 154.736C74.1913 154.617 73.8937 154.498 73.596 154.439C73.2984 154.379 73.0008 154.319 72.7032 154.379C72.4055 154.379 72.1079 154.439 71.8103 154.498C71.5126 154.558 71.2745 154.677 70.9769 154.855C70.7388 154.974 70.5602 155.153 70.3816 155.331C70.2626 155.51 70.203 155.689 70.1435 155.867C70.1435 156.046 70.2031 156.224 70.3221 156.403C70.4412 156.581 70.6198 156.701 70.8579 156.879C71.096 156.998 71.3935 157.117 71.6912 157.177C71.9888 157.236 72.2864 157.296 72.5841 157.236C72.8817 157.236 73.1793 157.177 73.477 157.117C73.7746 157.058 74.0127 156.939 74.2508 156.82C74.4889 156.701 74.6675 156.522 74.7866 156.343C74.9056 156.165 75.0247 155.986 75.0247 155.808C75.0247 155.629 74.9651 155.45 74.9056 155.272C74.8461 155.034 74.6675 154.855 74.4294 154.736ZM81.5725 161.344C81.1558 161.582 80.6796 161.76 80.2629 161.879C79.7867 161.998 79.37 161.998 78.9534 161.998C78.5367 161.998 78.12 161.879 77.7033 161.76C77.2867 161.641 76.9295 161.463 76.6318 161.284C76.3342 161.105 76.0366 160.867 75.858 160.689C75.6199 160.451 75.5008 160.213 75.5008 159.974C75.4413 159.736 75.5009 159.439 75.6794 159.201C75.858 158.963 76.1557 158.665 76.5723 158.427L79.7272 156.641L80.9177 157.355L77.8819 159.082C77.6438 159.26 77.4057 159.379 77.3461 159.498C77.2271 159.617 77.1676 159.796 77.1676 159.915C77.1676 160.034 77.2271 160.153 77.3461 160.332C77.4652 160.451 77.5843 160.57 77.8224 160.689C78.0009 160.808 78.1795 160.867 78.4176 160.927C78.6557 160.986 78.8343 161.046 79.0724 161.046C79.3105 161.046 79.5486 161.046 79.7867 160.927C80.0248 160.867 80.3224 160.748 80.5605 160.629L83.5963 158.903L84.7868 159.617L81.5725 161.344ZM88.8346 163.486C88.7751 163.427 88.7751 163.308 88.656 163.189C88.5965 163.07 88.4775 163.01 88.418 162.891C88.2989 162.772 88.1798 162.653 88.0608 162.534C87.9417 162.415 87.7632 162.296 87.5846 162.236C87.2274 162.058 86.9298 161.939 86.6322 161.879C86.3346 161.82 86.0964 161.879 85.9178 161.998C85.7988 162.058 85.7393 162.117 85.7393 162.177C85.7393 162.236 85.7393 162.296 85.7988 162.355C85.8583 162.415 85.9178 162.475 85.9774 162.594C86.0369 162.713 86.1559 162.772 86.275 162.832L86.7512 163.189C87.287 163.606 87.5846 163.963 87.6441 164.32C87.7036 164.677 87.5251 164.975 87.0489 165.213C86.8107 165.391 86.5131 165.451 86.156 165.51C85.7988 165.57 85.5012 165.57 85.0845 165.57C84.7273 165.51 84.3107 165.451 83.9535 165.332C83.5369 165.213 83.1797 165.034 82.763 164.796C82.644 164.737 82.4654 164.617 82.2868 164.498C82.1082 164.379 81.9296 164.26 81.8106 164.082C81.632 163.903 81.513 163.784 81.3939 163.606C81.2749 163.427 81.1558 163.248 81.1558 163.01L82.5844 162.832C82.5844 162.951 82.6439 163.01 82.7034 163.129C82.763 163.248 82.8225 163.367 82.9416 163.486C83.0606 163.606 83.1796 163.725 83.2987 163.844C83.4178 163.963 83.6559 164.082 83.8344 164.201C84.2511 164.439 84.6083 164.558 84.9654 164.617C85.2631 164.677 85.5607 164.617 85.7393 164.498C85.9179 164.379 85.9178 164.32 85.9178 164.141C85.8583 164.022 85.6798 163.844 85.4417 163.606L84.9654 163.248C84.4297 162.832 84.1321 162.475 84.1321 162.117C84.0725 161.76 84.3107 161.463 84.7273 161.224C85.025 161.046 85.2631 160.986 85.6202 160.867C85.9178 160.808 86.275 160.808 86.6322 160.808C86.9894 160.808 87.3465 160.927 87.7036 161.046C88.0608 161.165 88.418 161.344 88.7751 161.522C89.1918 161.76 89.5489 162.058 89.8465 162.296C90.1442 162.594 90.3227 162.832 90.4418 163.129L88.8346 163.486ZM88.0012 167.713L86.8107 166.998L92.2276 163.844L93.4181 164.558L88.0012 167.713ZM98.2397 167.177C98.5373 167.356 98.8349 167.594 98.954 167.772C99.1326 168.01 99.1921 168.189 99.1921 168.427C99.1921 168.665 99.1326 168.844 98.954 169.082C98.7754 169.32 98.5373 169.499 98.2397 169.677L94.8467 171.641L93.6562 170.927L96.692 169.201C97.1682 168.963 97.4063 168.665 97.4063 168.427C97.4063 168.129 97.2278 167.891 96.8111 167.653C96.6325 167.534 96.3944 167.475 96.1563 167.415C95.9182 167.356 95.6801 167.296 95.442 167.296C95.2039 167.296 94.9658 167.296 94.6682 167.356C94.4301 167.415 94.1919 167.534 93.9538 167.653L90.918 169.38L89.7275 168.665L95.1443 165.51L96.3349 166.225L95.6801 166.582C95.9777 166.582 96.2158 166.522 96.4539 166.582C96.6921 166.582 96.9301 166.641 97.1087 166.701C97.2873 166.76 97.5254 166.82 97.704 166.879C97.9421 166.998 98.1207 167.058 98.2397 167.177ZM104.609 170.868C104.966 171.106 105.264 171.344 105.442 171.582C105.621 171.82 105.68 172.118 105.68 172.415C105.68 172.713 105.502 172.951 105.323 173.249C105.085 173.546 104.788 173.784 104.371 174.023C104.311 174.082 104.192 174.082 104.133 174.142C104.073 174.201 103.954 174.201 103.895 174.261L99.8469 171.939C99.6088 172.118 99.4898 172.237 99.4302 172.415C99.3707 172.594 99.3111 172.713 99.3707 172.892C99.4302 173.011 99.4897 173.189 99.6088 173.308C99.7278 173.427 99.9064 173.546 100.085 173.665C100.383 173.844 100.68 173.963 101.037 174.082C101.395 174.201 101.811 174.261 102.228 174.261L101.99 175.094C101.395 175.094 100.799 174.975 100.323 174.796C99.8469 174.618 99.3707 174.439 98.954 174.201C98.5373 173.963 98.2397 173.725 98.0016 173.427C97.823 173.13 97.704 172.892 97.704 172.594C97.704 172.296 97.823 171.999 98.0016 171.761C98.2397 171.463 98.5373 171.225 98.954 170.987C99.3707 170.749 99.8469 170.57 100.323 170.451C100.799 170.332 101.276 170.272 101.811 170.272C102.287 170.272 102.764 170.332 103.24 170.451C103.776 170.451 104.192 170.63 104.609 170.868ZM103.537 171.463C103.299 171.344 103.121 171.225 102.883 171.165C102.645 171.106 102.407 171.106 102.168 171.106C101.93 171.106 101.692 171.106 101.454 171.165C101.216 171.225 100.978 171.284 100.74 171.403L103.597 173.07C103.954 172.772 104.133 172.534 104.133 172.237C104.073 171.88 103.895 171.641 103.537 171.463ZM110.859 176.165C110.8 176.106 110.8 175.987 110.681 175.868C110.621 175.749 110.502 175.689 110.442 175.57C110.323 175.451 110.204 175.332 110.085 175.213C109.966 175.094 109.788 174.975 109.609 174.915C109.252 174.737 108.954 174.618 108.657 174.558C108.359 174.499 108.121 174.558 107.942 174.677C107.823 174.737 107.764 174.796 107.764 174.856C107.764 174.915 107.764 174.975 107.823 175.034C107.883 175.094 107.942 175.154 108.002 175.273C108.061 175.392 108.18 175.451 108.3 175.511L108.776 175.868C109.311 176.285 109.609 176.642 109.669 176.999C109.728 177.356 109.55 177.654 109.073 177.892C108.835 178.07 108.538 178.13 108.18 178.189C107.823 178.249 107.526 178.249 107.109 178.249C106.752 178.189 106.335 178.13 105.978 178.011C105.561 177.892 105.204 177.713 104.788 177.475C104.668 177.415 104.49 177.296 104.311 177.177C104.133 177.058 103.954 176.939 103.835 176.761C103.657 176.582 103.537 176.463 103.418 176.285C103.299 176.106 103.18 175.927 103.18 175.749L104.609 175.57C104.609 175.689 104.668 175.749 104.728 175.868C104.787 175.987 104.847 176.106 104.966 176.225C105.085 176.344 105.204 176.463 105.323 176.582C105.442 176.701 105.68 176.82 105.859 176.939C106.276 177.177 106.633 177.296 106.99 177.356C107.288 177.415 107.585 177.356 107.764 177.237C107.942 177.118 107.942 177.058 107.942 176.88C107.883 176.761 107.704 176.582 107.466 176.344L106.99 175.987C106.454 175.57 106.157 175.213 106.157 174.856C106.097 174.499 106.335 174.201 106.752 173.963C107.049 173.784 107.288 173.725 107.645 173.606C107.942 173.546 108.3 173.546 108.657 173.546C109.014 173.546 109.371 173.665 109.728 173.784C110.085 173.903 110.442 174.082 110.8 174.261C111.216 174.499 111.573 174.796 111.871 175.034C112.169 175.332 112.347 175.57 112.466 175.868L110.859 176.165ZM116.633 179.499C116.574 179.439 116.574 179.32 116.455 179.201C116.395 179.082 116.276 179.023 116.216 178.904C116.097 178.785 115.978 178.666 115.859 178.546C115.74 178.427 115.562 178.308 115.383 178.249C115.026 178.07 114.728 177.951 114.431 177.892C114.133 177.832 113.895 177.892 113.716 178.011C113.597 178.07 113.538 178.13 113.538 178.189C113.538 178.249 113.538 178.308 113.597 178.368C113.657 178.427 113.716 178.487 113.776 178.606C113.835 178.666 113.955 178.785 114.074 178.844L114.55 179.201C115.085 179.618 115.383 179.975 115.443 180.332C115.502 180.689 115.324 180.987 114.847 181.225C114.609 181.404 114.312 181.463 113.954 181.523C113.597 181.582 113.3 181.582 112.883 181.582C112.526 181.523 112.109 181.463 111.752 181.344C111.335 181.225 110.978 181.047 110.562 180.808C110.442 180.749 110.264 180.63 110.085 180.511C109.907 180.392 109.728 180.273 109.609 180.094C109.431 179.916 109.311 179.797 109.192 179.618C109.073 179.439 108.954 179.261 108.954 179.082L110.383 178.904C110.383 179.023 110.442 179.082 110.502 179.201C110.562 179.32 110.621 179.439 110.74 179.558C110.859 179.677 110.978 179.797 111.097 179.916C111.216 180.035 111.454 180.154 111.633 180.273C112.05 180.511 112.407 180.63 112.764 180.689C113.062 180.749 113.359 180.689 113.538 180.57C113.716 180.451 113.716 180.392 113.716 180.213C113.716 180.035 113.478 179.916 113.24 179.677L112.764 179.32C112.228 178.904 111.931 178.546 111.931 178.189C111.871 177.832 112.109 177.535 112.526 177.296C112.824 177.118 113.062 177.058 113.419 176.939C113.716 176.88 114.074 176.88 114.431 176.88C114.788 176.88 115.145 176.999 115.502 177.118C115.859 177.237 116.216 177.415 116.574 177.594C116.99 177.832 117.347 178.13 117.645 178.368C117.943 178.666 118.121 178.904 118.24 179.201L116.633 179.499ZM94.9062 162.594C94.7872 162.534 94.6086 162.534 94.4896 162.534C94.3705 162.534 94.192 162.534 94.0729 162.594C93.9539 162.653 93.7752 162.653 93.6562 162.772C93.5371 162.832 93.4776 162.891 93.3586 163.01C93.299 163.07 93.2991 163.189 93.2991 163.248C93.2991 163.308 93.3586 163.427 93.4181 163.486C93.4776 163.546 93.5967 163.665 93.7157 163.725C93.8348 163.784 93.9539 163.844 94.1324 163.903C94.2515 163.963 94.43 163.963 94.5491 163.963C94.6681 163.963 94.8468 163.963 94.9658 163.903C95.0849 163.844 95.2634 163.844 95.3825 163.725C95.5015 163.665 95.561 163.606 95.6206 163.486C95.6801 163.427 95.6801 163.308 95.6801 163.248C95.6801 163.189 95.6801 163.07 95.6206 163.01C95.561 162.951 95.5015 162.832 95.3825 162.772C95.2039 162.653 95.0848 162.653 94.9062 162.594Z" fill="white"/>
<path opacity="0.09" d="M104.974 154.461L59.0759 165.053L75.014 174.535L121.121 163.83L104.974 154.461Z" fill="url(#paint15_linear)"/>
<path opacity="0.09" d="M126.122 166.732L80.2241 177.324L85.0251 180.273L131.132 169.568L126.122 166.732Z" fill="url(#paint16_linear)"/>
<defs>
<filter id="filter0_f" x="41.7293" y="108.98" width="254.949" height="119.3" filterUnits="userSpaceOnUse" color-interpolation-filters="sRGB">
<feFlood flood-opacity="0" result="BackgroundImageFix"/>
<feBlend mode="normal" in="SourceGraphic" in2="BackgroundImageFix" result="shape"/>
<feGaussianBlur stdDeviation="6.94" result="effect1_foregroundBlur"/>
</filter>
<filter id="filter1_f" x="83.7482" y="112.066" width="137.107" height="82.4701" filterUnits="userSpaceOnUse" color-interpolation-filters="sRGB">
<feFlood flood-opacity="0" result="BackgroundImageFix"/>
<feBlend mode="normal" in="SourceGraphic" in2="BackgroundImageFix" result="shape"/>
<feGaussianBlur stdDeviation="2.01372" result="effect1_foregroundBlur"/>
</filter>
<filter id="filter2_f" x="65.1037" y="141.185" width="74.4411" height="47.1982" filterUnits="userSpaceOnUse" color-interpolation-filters="sRGB">
<feFlood flood-opacity="0" result="BackgroundImageFix"/>
<feBlend mode="normal" in="SourceGraphic" in2="BackgroundImageFix" result="shape"/>
<feGaussianBlur stdDeviation="2.68495" result="effect1_foregroundBlur"/>
</filter>
<linearGradient id="paint0_linear" x1="231.769" y1="40.9761" x2="313.02" y2="136.694" gradientUnits="userSpaceOnUse">
<stop stop-color="#739BF9"/>
<stop offset="1" stop-color="#4971D0"/>
</linearGradient>
<linearGradient id="paint1_linear" x1="184.524" y1="60.6205" x2="284.935" y2="165.981" gradientUnits="userSpaceOnUse">
<stop stop-color="#EFF1F4"/>
<stop offset="0.9658" stop-color="#263D78"/>
</linearGradient>
<linearGradient id="paint2_linear" x1="140.725" y1="120.284" x2="243.046" y2="224.132" gradientUnits="userSpaceOnUse">
<stop offset="0.00200321" stop-color="#A6C0FF"/>
<stop offset="0.9658" stop-color="#4971D0"/>
</linearGradient>
<linearGradient id="paint3_linear" x1="207.889" y1="127.309" x2="207.889" y2="187.758" gradientUnits="userSpaceOnUse">
<stop stop-color="#4971D0"/>
<stop offset="1" stop-color="#1641A7"/>
</linearGradient>
<linearGradient id="paint4_linear" x1="207.889" y1="127.309" x2="207.889" y2="187.758" gradientUnits="userSpaceOnUse">
<stop stop-color="#4971D0"/>
<stop offset="1" stop-color="#1641A7"/>
</linearGradient>
<linearGradient id="paint5_linear" x1="207.889" y1="127.309" x2="207.889" y2="187.758" gradientUnits="userSpaceOnUse">
<stop stop-color="#4971D0"/>
<stop offset="1" stop-color="#1641A7"/>
</linearGradient>
<linearGradient id="paint6_linear" x1="207.889" y1="127.309" x2="207.889" y2="187.758" gradientUnits="userSpaceOnUse">
<stop stop-color="#4971D0"/>
<stop offset="1" stop-color="#1641A7"/>
</linearGradient>
<linearGradient id="paint7_linear" x1="207.889" y1="127.309" x2="207.889" y2="187.758" gradientUnits="userSpaceOnUse">
<stop stop-color="#4971D0"/>
<stop offset="1" stop-color="#1641A7"/>
</linearGradient>
<linearGradient id="paint8_linear" x1="207.889" y1="127.309" x2="207.889" y2="187.758" gradientUnits="userSpaceOnUse">
<stop stop-color="#4971D0"/>
<stop offset="1" stop-color="#1641A7"/>
</linearGradient>
<linearGradient id="paint9_linear" x1="207.889" y1="127.309" x2="207.889" y2="187.758" gradientUnits="userSpaceOnUse">
<stop stop-color="#4971D0"/>
<stop offset="1" stop-color="#1641A7"/>
</linearGradient>
<linearGradient id="paint10_linear" x1="122.192" y1="113.301" x2="137.531" y2="203.084" gradientUnits="userSpaceOnUse">
<stop stop-color="#ECF2FF"/>
<stop offset="0.477179" stop-color="#FAFBFF"/>
<stop offset="1" stop-color="#E4ECFE"/>
</linearGradient>
<linearGradient id="paint11_linear" x1="241.293" y1="144.446" x2="223.946" y2="87.9197" gradientUnits="userSpaceOnUse">
<stop stop-color="#FD8A28"/>
<stop offset="1" stop-color="#FD6554"/>
</linearGradient>
<linearGradient id="paint12_linear" x1="167.615" y1="92.6492" x2="150.182" y2="35.842" gradientUnits="userSpaceOnUse">
<stop stop-color="#FD8A28"/>
<stop offset="1" stop-color="#FD6554"/>
</linearGradient>
<linearGradient id="paint13_linear" x1="237.236" y1="45.8341" x2="222.68" y2="-1.59882" gradientUnits="userSpaceOnUse">
<stop stop-color="#FD8A28"/>
<stop offset="1" stop-color="#FD6554"/>
</linearGradient>
<linearGradient id="paint14_linear" x1="134.176" y1="189.851" x2="93.5605" y2="119.513" gradientUnits="userSpaceOnUse">
<stop stop-color="#FD8A28"/>
<stop offset="1" stop-color="#FD6554"/>
</linearGradient>
<linearGradient id="paint15_linear" x1="95.7531" y1="155.588" x2="90.0982" y2="174.535" gradientUnits="userSpaceOnUse">
<stop stop-color="white"/>
<stop offset="1" stop-color="white" stop-opacity="0"/>
</linearGradient>
<linearGradient id="paint16_linear" x1="110.719" y1="174.611" x2="110.148" y2="171.256" gradientUnits="userSpaceOnUse">
<stop stop-color="white"/>
<stop offset="1" stop-color="white" stop-opacity="0"/>
</linearGradient>
</defs>
</svg>
