<svg xmlns="http://www.w3.org/2000/svg" xmlns:xlink="http://www.w3.org/1999/xlink" width="619.872" height="380.091" viewBox="0 0 619.872 380.091"><defs><linearGradient id="a" x1="0.5" x2="0.5" y2="1" gradientUnits="objectBoundingBox"><stop offset="0" stop-color="#ffdaba"/><stop offset="1" stop-color="#ffc7bd"/></linearGradient><linearGradient id="c" x1="0.5" x2="0.5" y2="1" gradientUnits="objectBoundingBox"><stop offset="0" stop-color="#6034e3"/><stop offset="1" stop-color="#1b087d"/></linearGradient><linearGradient id="f" x1="0.578" y1="1.033" x2="0.586" y2="0" xlink:href="#c"/><linearGradient id="i" x1="0.5" x2="0.5" y2="1" gradientUnits="objectBoundingBox"><stop offset="0" stop-color="#fea634"/><stop offset="1" stop-color="#ff6101"/></linearGradient></defs><g transform="translate(1166.097 -110.829)"><g transform="translate(-1054.738 142.32)"><g transform="translate(0 16.318)"><path d="M-1066.378,307.1l159.232,93.373a12.216,12.216,0,0,0,12.106.15l113.757-64.062a4.331,4.331,0,0,0,2.237-3.791v-1.315l-170.321-97.641-116.962,65.737C-1068.765,300.908-1068.8,305.68-1066.378,307.1Z" transform="translate(1068.174 -97.73)" fill="#e8ffff"/><path d="M-1066.2,306.162l158.683,92.424a12.036,12.036,0,0,0,12.043.042l116.343-66.684-170.113-99.082-116.934,67.022A3.625,3.625,0,0,0-1066.2,306.162Z" transform="translate(1068.262 -98.22)" fill="#cbe1ff"/><path d="M-1043.876,285.858l150.171,86.937,80.142-45.678L-963.734,240.18Z" transform="translate(1080.725 -94.441)" fill="#e8ffff"/><g transform="translate(55.154 150.277)"><path d="M-902.623,291.429l-11.315,6.534,12.114,7.062,11.315-6.535Z" transform="translate(1092.689 -218.246)" fill="#12005c"/><path d="M-912.22,298.994l11.315-6.535-12.114-7.062-11.315,6.535Z" transform="translate(1087.319 -221.362)" fill="#12005c"/><path d="M-922.615,292.962l11.315-6.535-12.114-7.062-11.315,6.535Z" transform="translate(1081.949 -224.477)" fill="#12005c"/><path d="M-933.011,286.929l11.315-6.535-12.114-7.062-11.315,6.535Z" transform="translate(1076.579 -227.593)" fill="#12005c"/><path d="M-943.407,280.9l11.315-6.535-12.114-7.061-11.315,6.535Z" transform="translate(1071.209 -230.709)" fill="#12005c"/><path d="M-953.8,274.865l11.315-6.535-12.114-7.062-11.315,6.535Z" transform="translate(1065.84 -233.825)" fill="#12005c"/><path d="M-964.2,268.833l11.315-6.535L-965,255.237l-11.315,6.535Z" transform="translate(1060.47 -236.941)" fill="#12005c"/><path d="M-974.594,262.8l11.315-6.535-12.114-7.062-11.315,6.535Z" transform="translate(1055.1 -240.056)" fill="#12005c"/><path d="M-973.675,250.234l-12.114-7.062-11.315,6.535,12.114,7.062Z" transform="translate(1049.73 -243.172)" fill="#12005c"/><path d="M-922.613,303.09l12.114,7.061,11.315-6.535-12.114-7.061Z" transform="translate(1088.208 -215.598)" fill="#12005c"/><path d="M-909.58,297.585l-12.114-7.062-11.315,6.535,12.114,7.062Z" transform="translate(1082.838 -218.714)" fill="#12005c"/><path d="M-919.976,291.553l-12.114-7.062-11.315,6.535,12.114,7.062Z" transform="translate(1077.468 -221.829)" fill="#12005c"/><path d="M-953.8,284.994l12.114,7.062,11.315-6.535-12.114-7.061Z" transform="translate(1072.098 -224.945)" fill="#12005c"/><path d="M-964.2,278.962l12.114,7.061,11.315-6.535-12.114-7.062Z" transform="translate(1066.728 -228.061)" fill="#12005c"/><path d="M-974.592,272.93l12.114,7.062,11.315-6.535-12.114-7.061Z" transform="translate(1061.359 -231.177)" fill="#12005c"/><path d="M-984.988,266.9l12.114,7.062,11.315-6.535-12.114-7.062Z" transform="translate(1055.989 -234.293)" fill="#12005c"/><path d="M-995.383,260.866l12.114,7.061,11.315-6.535-12.114-7.062Z" transform="translate(1050.619 -237.408)" fill="#12005c"/><path d="M-982.35,255.36l-12.114-7.061-11.315,6.535,12.114,7.062Z" transform="translate(1045.249 -240.524)" fill="#12005c"/><path d="M-931.289,308.217l12.114,7.062,11.315-6.535-12.114-7.061Z" transform="translate(1083.726 -212.95)" fill="#12005c"/><path d="M-918.256,302.712l-12.114-7.061-11.315,6.535,12.113,7.061Z" transform="translate(1078.357 -216.066)" fill="#12005c"/><path d="M-928.651,296.679l-12.114-7.061-11.315,6.535,12.114,7.062Z" transform="translate(1072.987 -219.181)" fill="#12005c"/><path d="M-939.047,290.647l-12.114-7.061-11.315,6.535,12.114,7.062Z" transform="translate(1067.617 -222.297)" fill="#12005c"/><path d="M-949.443,284.615l-12.114-7.062-11.315,6.535,12.114,7.062Z" transform="translate(1062.247 -225.413)" fill="#12005c"/><path d="M-959.839,278.583l-12.114-7.061-11.315,6.535,12.114,7.062Z" transform="translate(1056.877 -228.529)" fill="#12005c"/><path d="M-993.663,272.024l12.113,7.062,11.315-6.535-12.114-7.061Z" transform="translate(1051.507 -231.645)" fill="#12005c"/><path d="M-1004.059,265.992l12.114,7.062,11.315-6.535-12.114-7.062Z" transform="translate(1046.138 -234.76)" fill="#12005c"/><path d="M-991.026,260.487l-12.114-7.062-11.315,6.535,12.114,7.062Z" transform="translate(1040.768 -237.876)" fill="#12005c"/><path d="M-939.964,313.343l12.114,7.061,11.315-6.535-12.114-7.062Z" transform="translate(1079.245 -210.302)" fill="#12005c"/><path d="M-926.931,307.838l-12.114-7.061-11.315,6.535,12.114,7.062Z" transform="translate(1073.875 -213.418)" fill="#12005c"/><path d="M-937.327,301.806l-12.114-7.062-11.315,6.535,12.114,7.062Z" transform="translate(1068.505 -216.533)" fill="#12005c"/><path d="M-947.722,295.774l-12.114-7.061-11.315,6.535,12.114,7.062Z" transform="translate(1063.136 -219.649)" fill="#12005c"/><path d="M-958.118,289.742l-12.114-7.062-11.315,6.535,12.114,7.062Z" transform="translate(1057.766 -222.765)" fill="#12005c"/><path d="M-968.514,283.71l-12.114-7.062-11.315,6.535,12.114,7.062Z" transform="translate(1052.396 -225.881)" fill="#12005c"/><path d="M-978.91,277.677l-12.114-7.062-11.315,6.535,12.114,7.061Z" transform="translate(1047.026 -228.997)" fill="#12005c"/><path d="M-1012.734,271.119l12.114,7.062,11.315-6.535-12.114-7.062Z" transform="translate(1041.656 -232.112)" fill="#12005c"/><path d="M-999.7,265.613l-12.113-7.061-11.315,6.535,12.114,7.061Z" transform="translate(1036.287 -235.228)" fill="#12005c"/><path d="M-948.639,318.47l12.114,7.062L-925.211,319l-12.113-7.061Z" transform="translate(1074.764 -207.654)" fill="#12005c"/><path d="M-947.72,305.9l-11.315,6.535,12.114,7.061,11.315-6.535Z" transform="translate(1069.394 -210.77)" fill="#12005c"/><path d="M-958.116,299.871l-11.315,6.535,12.114,7.062L-946,306.932Z" transform="translate(1064.024 -213.885)" fill="#12005c"/><path d="M-956.042,301.106l.01-.006-12.114-7.062-.046.027-3.626-2.1.021-.012-12.114-7.062-.056.033-3.626-2.1.031-.018-12.114-7.062-.066.038h0l-11.315,6.535,59.477,34.467,11.315-6.535Z" transform="translate(1042.522 -226.349)" fill="#12005c"/><path d="M-1010.095,269.71l-11.315,6.535,12.114,7.062,11.315-6.535Z" transform="translate(1037.175 -229.465)" fill="#12005c"/><path d="M-1020.491,263.678l-11.315,6.535,12.114,7.062,11.315-6.535Z" transform="translate(1031.805 -232.58)" fill="#12005c"/></g><path d="M-1026.011,305.957l35.288,20.633,20.6-11.752a1.143,1.143,0,0,0,.011-1.979l-30.9-18.068a5.373,5.373,0,0,0-5.373-.029Z" transform="translate(1089.953 -66.611)" fill="#e8ffff"/><path d="M-985.306,318.777l-6.31,3.6-33.112-19.366,6.31-3.6Z" transform="translate(1090.616 -63.845)" fill="#cbe1ff"/><path d="M-980.8,144.773l156.718,91.25a11.78,11.78,0,0,1,5.857,10.184l-2.028,131.6L-988.4,277.176V149.141A5.053,5.053,0,0,1-980.8,144.773Z" transform="translate(1109.382 -144.08)" fill="#e8ffff"/><path d="M-982.139,145.8l155.078,90.3a15.078,15.078,0,0,1,7.5,13.035V377.276L-989.734,278.2V150.165A5.053,5.053,0,0,1-982.139,145.8Z" transform="translate(1108.691 -143.551)" fill="#b7c7ff"/><path d="M-819.563,361.616-989.734,262.54v-114.1a3.9,3.9,0,0,1,5.852-3.367L-824.455,237.9a9.841,9.841,0,0,1,4.892,8.5Z" transform="translate(1108.691 -143.843)" fill="#12005c"/><path d="M-830.944,341.607-984.1,252.937V153.8l153.152,88.671Z" transform="translate(1111.604 -139.058)" fill="#0067ff"/><path d="M-853.382,295.278-948.9,239.914v-60.8l95.518,55.363Z" transform="translate(1129.783 -125.984)" fill="#410890"/><path d="M-870.325,232.454l-54.96-31.82v-3.4l54.96,31.82Z" transform="translate(1141.982 -116.622)" fill="#ff6101"/><path d="M-870.325,238.3l-54.96-31.82v-3.4l54.96,31.82Z" transform="translate(1141.982 -113.6)" fill="#ff6101"/><path d="M-870.325,245.462l-54.96-31.82V209.7l54.96,31.82Z" transform="translate(1141.982 -110.187)" fill="#11c2ff"/><path d="M-870.325,251.487l-54.96-31.82v-3.945l54.96,31.82Z" transform="translate(1141.982 -107.075)" fill="#11c2ff"/><path d="M-927.67,219.833l-8.365-4.964V202.747l8.365,4.964Z" transform="translate(1136.429 -113.776)" fill="#11c2ff"/><path d="M-937.272,214.2l-8.365-4.964V197.114l8.365,4.964Z" transform="translate(1131.469 -116.686)" fill="#11c2ff"/><path d="M-937.272,226.151l-8.365-4.964V209.066l8.365,4.964Z" transform="translate(1131.469 -110.513)" fill="#11c2ff"/><path d="M-869,294.881-930.519,258.5V220.988L-869,257.372Z" transform="translate(1139.278 -104.354)" fill="#ff6101" opacity="0.56"/><path d="M-919.082,243.013l-18.211-10.771v-11.1l18.211,10.77Z" transform="translate(1135.779 -104.276)" fill="#11c2ff" opacity="0.57"/><path d="M-956.164,211.018l-23.96-14.218V162.081l23.96,14.217Z" transform="translate(1113.655 -134.782)" fill="#410890"/><path d="M-952.379,220.77l-19.084-11.324V181.792l19.084,11.324Z" transform="translate(1118.129 -124.6)" fill="#11c2ff"/><path d="M-959.03,207.186l-9.162-5.436V188.474l9.162,5.436Z" transform="translate(1119.819 -121.149)" fill="#ff6101"/><path d="M-952.108,232.4l-7.029-4.171V218.047l7.029,4.171Z" transform="translate(1124.496 -105.874)" fill="#11c2ff"/><path d="M-942.315,237.974l-7.029-4.171V223.617l7.029,4.171Z" transform="translate(1129.554 -102.996)" fill="#11c2ff"/><path d="M-960.715,176.932-973.42,169.5v-1.421l12.705,7.437Z" transform="translate(1117.118 -131.686)" fill="#ff1c4d"/><path d="M-960.715,178.769l-12.705-7.437v-1.421l12.705,7.437Z" transform="translate(1117.118 -130.738)" fill="#3bfaff"/><path d="M-964.9,179.852l-12.705-7.436v-1.421l12.705,7.437Z" transform="translate(1114.954 -130.178)" fill="#3bfaff"/><path d="M-964.9,182.773l-12.705-7.437v-1.421l12.705,7.437Z" transform="translate(1114.954 -128.669)" fill="#ffe51c"/><path d="M-972.448,181.421l-5.161-3.008v-1.422l5.161,3.008Z" transform="translate(1114.954 -127.08)" fill="#3bfaff"/><path d="M-972.448,184.185l-5.161-3.008v-1.421l5.161,3.008Z" transform="translate(1114.954 -125.652)" fill="#ffe51c"/><path d="M-972.448,186.949l-5.161-3.008V182.52l5.161,3.008Z" transform="translate(1114.954 -124.224)" fill="#3bfaff"/><path d="M-965.185,179.38l-1.913-1.123v-1.421l1.913,1.123Z" transform="translate(1120.384 -127.161)" fill="#3bfaff"/><path d="M-965.185,180.82-967.1,179.7v-1.421l1.913,1.123Z" transform="translate(1120.384 -126.417)" fill="#ff1c4d"/><path d="M-965.185,182.26l-1.913-1.123v-1.421l1.913,1.123Z" transform="translate(1120.384 -125.673)" fill="#3bfaff"/><path d="M-965.185,183.7l-1.913-1.123v-1.421l1.913,1.123Z" transform="translate(1120.384 -124.929)" fill="#ff1c4d"/><path d="M-965.185,185.14l-1.913-1.123V182.6l1.913,1.123Z" transform="translate(1120.384 -124.185)" fill="#ff1c4d"/><path d="M-879.617,262.971-916,241.675V237.6l36.383,21.3Z" transform="translate(1146.778 -95.771)" fill="#0040de"/><path d="M-879.617,267.712-916,246.416v-4.07l36.383,21.3Z" transform="translate(1146.778 -93.322)" fill="#0040de"/><path d="M-874.255,275.6l-52.126-30.522V241l52.126,30.522Z" transform="translate(1141.416 -94.015)" fill="#0040de"/></g><g transform="translate(106.615 -31.491)"><g transform="translate(0.006 0.003)" opacity="0.2"><path d="M-902.069,198.84l-70.463-.082a5.877,5.877,0,0,1-5.872-5.884l0-53.682a5.877,5.877,0,0,1,5.884-5.872l70.463.085a5.876,5.876,0,0,1,5.872,5.881l0,53.682A5.877,5.877,0,0,1-902.069,198.84Z" transform="translate(978.404 -133.321)" fill="#dadbfc" opacity="0.2"/></g><g opacity="0.75"><path d="M-900.334,133.408l-73.9-.088a4.161,4.161,0,0,0-4.164,4.158l-.012,11.163,82.221.093.009-11.163A4.161,4.161,0,0,0-900.334,133.408Z" transform="translate(978.406 -133.32)" fill="#dadbfc"/></g><g transform="translate(5.916 19.934)" opacity="0.81"><path d="M-909.354,180.731l-62.167-.076a4.85,4.85,0,0,1-4.844-4.85l-.015-30.816a4.844,4.844,0,0,1,4.85-4.841l62.167.076a4.843,4.843,0,0,1,4.841,4.85l.018,30.814A4.846,4.846,0,0,1-909.354,180.731Z" transform="translate(976.38 -140.147)" fill="#410890"/></g><g transform="translate(4.076 3.527)" opacity="0.3"><path d="M-968.729,138.671a4.138,4.138,0,0,1-4.143,4.135,4.141,4.141,0,0,1-4.137-4.143,4.138,4.138,0,0,1,4.143-4.135A4.139,4.139,0,0,1-968.729,138.671Z" transform="translate(977.01 -134.528)" fill="#002ab4"/></g><g transform="translate(5.005 4.456)" opacity="0.75"><path d="M-970.268,138.058a3.21,3.21,0,0,1-3.215,3.209,3.212,3.212,0,0,1-3.209-3.215,3.212,3.212,0,0,1,3.215-3.206A3.209,3.209,0,0,1-970.268,138.058Z" transform="translate(976.692 -134.846)" fill="#c6d2e0"/></g><g transform="translate(5.615 5.066)"><path d="M-971.28,137.657a2.6,2.6,0,0,1-2.6,2.6,2.6,2.6,0,0,1-2.6-2.6,2.6,2.6,0,0,1,2.6-2.6A2.6,2.6,0,0,1-971.28,137.657Z" transform="translate(976.483 -135.055)" fill="#ff2232"/></g><g transform="translate(6.654 6.105)"><path d="M-973,136.973a1.563,1.563,0,0,1-1.562,1.559,1.562,1.562,0,0,1-1.562-1.562,1.562,1.562,0,0,1,1.565-1.559A1.562,1.562,0,0,1-973,136.973Z" transform="translate(976.127 -135.411)" fill="#b51413"/></g><g transform="translate(16.071 3.536)" opacity="0.3"><path d="M-964.621,138.674a4.141,4.141,0,0,1-4.143,4.138,4.141,4.141,0,0,1-4.137-4.143,4.143,4.143,0,0,1,4.143-4.137A4.143,4.143,0,0,1-964.621,138.674Z" transform="translate(972.902 -134.531)" fill="#002ab4"/></g><g transform="translate(17 4.464)" opacity="0.75"><path d="M-966.16,138.064a3.214,3.214,0,0,1-3.215,3.209,3.212,3.212,0,0,1-3.209-3.215,3.212,3.212,0,0,1,3.215-3.209A3.216,3.216,0,0,1-966.16,138.064Z" transform="translate(972.584 -134.849)" fill="#c6d2e0"/></g><g transform="translate(17.589 5.054)"><path d="M-967.138,137.676a2.62,2.62,0,0,1-2.625,2.619,2.62,2.62,0,0,1-2.619-2.625,2.622,2.622,0,0,1,2.625-2.619A2.622,2.622,0,0,1-967.138,137.676Z" transform="translate(972.382 -135.051)" fill="#ffc500"/></g><g transform="translate(18.629 6.094)"><path d="M-968.861,136.992a1.584,1.584,0,0,1-1.585,1.58,1.581,1.581,0,0,1-1.58-1.583,1.582,1.582,0,0,1,1.583-1.583A1.584,1.584,0,0,1-968.861,136.992Z" transform="translate(972.026 -135.407)" fill="#ff9700"/></g><g transform="translate(28.066 3.548)" opacity="0.3"><path d="M-960.516,138.678a4.141,4.141,0,0,1-4.144,4.138,4.139,4.139,0,0,1-4.135-4.143,4.141,4.141,0,0,1,4.144-4.137A4.139,4.139,0,0,1-960.516,138.678Z" transform="translate(968.794 -134.535)" fill="#002ab4"/></g><g transform="translate(28.995 4.476)" opacity="0.75"><path d="M-962.055,138.068a3.211,3.211,0,0,1-3.212,3.209,3.212,3.212,0,0,1-3.209-3.215,3.208,3.208,0,0,1,3.215-3.209A3.208,3.208,0,0,1-962.055,138.068Z" transform="translate(968.476 -134.853)" fill="#c6d2e0"/></g><g transform="translate(29.581 5.066)"><path d="M-963.028,137.68a2.624,2.624,0,0,1-2.625,2.619,2.624,2.624,0,0,1-2.622-2.625,2.622,2.622,0,0,1,2.625-2.619A2.624,2.624,0,0,1-963.028,137.68Z" transform="translate(968.275 -135.055)" fill="#3dff76"/></g><g transform="translate(30.624 6.105)"><path d="M-964.753,136.994a1.587,1.587,0,0,1-1.586,1.583,1.582,1.582,0,0,1-1.58-1.586,1.579,1.579,0,0,1,1.583-1.58A1.584,1.584,0,0,1-964.753,136.994Z" transform="translate(967.918 -135.411)" fill="#1a9f58"/></g><g transform="translate(9.221 23.463)"><path d="M-971.455,148.952a.577.577,0,0,1-.409-.169l-3.215-3.221a.581.581,0,0,1-.169-.409.583.583,0,0,1,.169-.412l3.224-3.215a.578.578,0,0,1,.82,0,.584.584,0,0,1,0,.82l-2.815,2.806,2.806,2.809a.584.584,0,0,1,0,.821A.578.578,0,0,1-971.455,148.952Z" transform="translate(975.248 -141.356)" fill="#ffd000"/></g><g transform="translate(20.534 23.47)"><path d="M-970.794,148.953a.568.568,0,0,1-.409-.169.578.578,0,0,1,0-.82l2.809-2.8-2.809-2.812a.583.583,0,0,1,0-.82.581.581,0,0,1,.821,0l3.218,3.224a.582.582,0,0,1,.169.409.583.583,0,0,1-.169.412l-3.221,3.212A.568.568,0,0,1-970.794,148.953Z" transform="translate(971.373 -141.358)" fill="#ffd000"/></g><g transform="translate(15.121 23.467)"><path d="M-972.648,149.5a.6.6,0,0,1-.2-.035.58.58,0,0,1-.345-.745l2.561-6.987a.582.582,0,0,1,.745-.345.58.58,0,0,1,.344.745l-2.561,6.987A.579.579,0,0,1-972.648,149.5Z" transform="translate(973.227 -141.357)" fill="#ffd000"/></g><g transform="translate(26.553 29.903)"><path d="M-968.115,145.958h0a1.2,1.2,0,0,1-1.2-1.2,1.2,1.2,0,0,1,1.2-1.2,1.2,1.2,0,0,1,1.2,1.2h0A1.2,1.2,0,0,1-968.115,145.958Zm0-1.816a.623.623,0,0,0-.619.616.62.62,0,0,0,.619.619h0a.619.619,0,0,0,.619-.616A.619.619,0,0,0-968.115,144.142Zm.908.619h0Z" transform="translate(969.312 -143.561)" fill="#ffd000"/></g><g transform="translate(30.311 29.905)"><path d="M-966.825,145.959h0a1.186,1.186,0,0,1-.847-.353,1.191,1.191,0,0,1-.35-.847,1.191,1.191,0,0,1,.353-.847,1.19,1.19,0,0,1,.847-.35h0a1.2,1.2,0,0,1,1.2,1.2,1.2,1.2,0,0,1-.35.847A1.2,1.2,0,0,1-966.825,145.959Zm0-1.816a.614.614,0,0,0-.438.181.612.612,0,0,0-.181.435.613.613,0,0,0,.181.438.612.612,0,0,0,.435.181h0a.6.6,0,0,0,.435-.181.612.612,0,0,0,.181-.435.617.617,0,0,0-.616-.619Z" transform="translate(968.025 -143.562)" fill="#ffd000"/></g><g transform="translate(34.072 29.908)"><path d="M-965.54,145.96h0a1.2,1.2,0,0,1-1.2-1.2,1.2,1.2,0,0,1,1.2-1.2,1.2,1.2,0,0,1,1.2,1.2h0A1.2,1.2,0,0,1-965.54,145.96Zm0-1.816a.623.623,0,0,0-.619.619.623.623,0,0,0,.619.619h0a.619.619,0,0,0,.619-.619A.619.619,0,0,0-965.54,144.144Zm.908.619h0Z" transform="translate(966.737 -143.563)" fill="#ffd000"/></g><g transform="translate(10.821 37.053)"><path d="M-920.954,147.225h0l-53.168-.055a.584.584,0,0,1-.578-.581.578.578,0,0,1,.581-.578h0l53.168.053a.584.584,0,0,1,.578.581A.581.581,0,0,1-920.954,147.225Z" transform="translate(974.7 -146.01)" fill="#12d77e"/></g><g transform="translate(69.858 37.112)"><path d="M-951.468,147.2h0l-2.432-.009a.576.576,0,0,1-.578-.581.58.58,0,0,1,.578-.578h0l2.432.009a.576.576,0,0,1,.578.581A.58.58,0,0,1-951.468,147.2Z" transform="translate(954.481 -146.03)" fill="#12d77e"/></g><g transform="translate(10.815 44.668)"><path d="M-936.717,149.818h0l-37.407-.041a.58.58,0,0,1-.578-.581.58.58,0,0,1,.578-.578h0l37.407.041a.582.582,0,0,1,.578.581A.58.58,0,0,1-936.717,149.818Z" transform="translate(974.702 -148.618)" fill="#12ffff"/></g><g transform="translate(57.233 44.718)"><path d="M-955.932,149.8h0l-2.292,0a.578.578,0,0,1-.578-.581.577.577,0,0,1,.578-.578h0l2.292,0a.579.579,0,0,1,.578.578A.58.58,0,0,1-955.932,149.8Z" transform="translate(958.805 -148.635)" fill="#12ffff"/></g><g transform="translate(42.28 49.083)"><path d="M-957.409,151.295h0l-5.939-.006a.58.58,0,0,1-.578-.578.58.58,0,0,1,.578-.581h0l5.939.006a.581.581,0,0,1,.581.581A.58.58,0,0,1-957.409,151.295Z" transform="translate(963.926 -150.13)" fill="#12ffff"/></g><g transform="translate(31.625 49.075)"><path d="M-961.058,151.292h0l-5.936-.006a.581.581,0,0,1-.581-.581.58.58,0,0,1,.581-.578h0l5.936.006a.581.581,0,0,1,.581.581A.58.58,0,0,1-961.058,151.292Z" transform="translate(967.575 -150.127)" fill="#12ffff"/></g><g transform="translate(19.814 49.054)"><path d="M-965.1,151.285h0l-5.939,0a.582.582,0,0,1-.578-.581.58.58,0,0,1,.578-.581h0l5.939.006a.582.582,0,0,1,.578.581A.578.578,0,0,1-965.1,151.285Z" transform="translate(971.62 -150.12)" fill="#12ffff"/></g><g transform="translate(19.809 54.38)"><path d="M-922.845,153.156h0l-48.2-.053a.579.579,0,0,1-.578-.578.58.58,0,0,1,.578-.581h0l48.2.053a.579.579,0,0,1,.578.578A.581.581,0,0,1-922.845,153.156Z" transform="translate(971.622 -151.944)" fill="#ff3181"/></g><g transform="translate(10.812 49.048)"><path d="M-971.982,151.28h0l-2.14,0a.58.58,0,0,1-.578-.581.579.579,0,0,1,.578-.578h0l2.14,0a.578.578,0,0,1,.578.578A.578.578,0,0,1-971.982,151.28Z" transform="translate(974.703 -150.118)" fill="#12ffff"/></g><g transform="translate(10.806 54.371)"><path d="M-971.984,153.1h-2.14a.581.581,0,0,1-.581-.581.581.581,0,0,1,.581-.581h0l2.14,0a.581.581,0,0,1,.581.581A.58.58,0,0,1-971.984,153.1Z" transform="translate(974.705 -151.941)" fill="#12ffff"/></g></g><g transform="translate(167.997 5.808)"><path d="M-919.3,163.642l-3.581,22.455h5.8l-.964-23.141Z" transform="translate(975.226 -123.82)" fill="#cfe4ff"/><path d="M-895.615,174.068l-34.759,1.339-19.935,31.063,1.6.975s15.478-7.235,23.273-23.111c14.248,1.788,36.987-2.263,36.987-2.263l.742-5.828" transform="translate(961.059 -118.08)" fill="#000d3a"/><path d="M-945.049,197.531l-1.6,3.4-10.75-7.676,10.75,3.3Z" transform="translate(957.398 -108.167)" fill="#000f1f"/><path d="M-935.157,213.224l-2.578-.8,5.981-35.349,19.117.161,20.581,3.211s1.25,4.362-5.352,8.753c-5.5,3.661-12,1.416-12,1.416l-14.45-5.443C-923.155,189.443-925.022,198.986-935.157,213.224Z" transform="translate(967.554 -116.526)" fill="#001f5e"/><path d="M-920.718,177.237s5.02,10.519,18.716,7.605a9.325,9.325,0,0,0,1.157-4.477Z" transform="translate(976.344 -116.443)" fill="#000d3a"/><path d="M-933.224,200.386l-13.243,2.782,15.616,1.565.205-3.549Z" transform="translate(963.043 -104.486)" fill="#000f1f"/><g transform="translate(12.015 17.566)"><path d="M-908.012,157.874s3.665,3.834,4.419,11.336c0,0-20.08,4.434-37.287-14.216l2.722-3.706S-920.728,162.565-908.012,157.874Z" transform="translate(953.914 -147.413)" fill="#f5fdff"/><path d="M-922.261,167.1l3.911-11.147.127,11.31A39.135,39.135,0,0,1-922.261,167.1Z" transform="translate(963.532 -145.006)" fill="#cfe4ff"/><path d="M-935.694,151.648l-4.019-2.915-9.754,0s-.482,2.011,6.382,1.83l-.434,2.079,2.173,2.668,3.79-.288.9.7Z" transform="translate(949.475 -148.733)" fill="url(#a)"/><path d="M-942.227,154.012l2.791-3.626,1.974,1.368-2.722,3.707Z" transform="translate(953.218 -147.879)" fill="#5f33e2"/></g><g transform="translate(47.598)"><path d="M-923.6,143.248a31.652,31.652,0,0,0-1.369,11.953s2.661,1.4,7.4.375l1.335,6.134s4.087-.993,4.83-2.078c.346-.5.089-2.445.089-2.445l-.927-4.258-1.374.052.508-1.982a3.125,3.125,0,0,0,2.093-2.628c.231-2.082-1.891-1.124-2.385-.769l-.514,1.4s-.391-2.815,1.125-3.888l-1.172-2.6A16.75,16.75,0,0,1-923.6,143.248Z" transform="translate(926.508 -134.378)" fill="url(#a)"/><path d="M-915.781,147.6l-.746-1.653c1.594-2.17-3.013-5.532-2.719-8.244,7.475,1.517,8.286,6.738,8.286,6.738,3.294,7.493-2.944,10.438-2.944,10.438a3.046,3.046,0,0,1-1.019,1.962l-.311-1.426-1.374.052.508-1.982c1.609-.755,2.557-2.8,1.69-3.564s-1.981.167-1.981.167l-.516,1.4C-917.448,148.457-915.781,147.6-915.781,147.6Z" transform="translate(929.499 -136.864)" fill="#131637"/><path d="M-921.3,145.218c.437,1.092,2.335,1.36,4.242.6s3.1-2.264,2.661-3.356-2.334-1.362-4.24-.6S-921.739,144.124-921.3,145.218Z" transform="translate(928.397 -134.94)" fill="#131637"/><path d="M-918.4,145.05c.2.5,1.075.626,1.952.276s1.427-1.042,1.227-1.545-1.075-.626-1.953-.276S-918.6,144.547-918.4,145.05Z" transform="translate(929.921 -133.97)" fill="#131637"/><path d="M-923.756,144.054c.253.936,1.984,1.281,3.866.772s3.2-1.68,2.951-2.615-1.984-1.281-3.866-.772S-924.01,143.118-923.756,144.054Z" transform="translate(927.16 -135.056)" fill="#131637"/><path d="M-925.878,143.725c.253.936,1.984,1.281,3.866.772s3.2-1.679,2.951-2.615-1.984-1.281-3.866-.772S-926.132,142.789-925.878,143.725Z" transform="translate(926.064 -135.226)" fill="#131637"/><path d="M-925.912,139.184c-.578,1.512,1.422,3.679,4.466,4.841s11.145,2.775,11.723,1.263.278-5.924-8.107-7.889C-921,136.656-925.334,137.672-925.912,139.184Z" transform="translate(926.012 -137.15)" fill="#131637"/><path d="M-900.713,193.3s1.2,2.985-7.05,2.238c-13.973-1.265-13.2-10.173-13.2-10.173l1.371-26.5a3.408,3.408,0,0,1,1.256-2.15c1.436-1.3,4.466-1.554,4.92-4.522,4.1-.2,8.1,6.4,10.311,13.932C-900.656,174.5-900.713,193.3-900.713,193.3Z" transform="translate(928.613 -129.382)" fill="url(#c)"/></g><path d="M-911.654,162.692s-1.1-6.893,3.967-7.712c5.038-.813,6.488,3.628,6.777,8.238.281,4.5-1.583,22.61-1.583,22.61s-13.212,2.238-31.806-5.012l.244-3.076,24.613.285Z" transform="translate(969.329 -127.99)" fill="#f5fdff"/><path d="M-931.717,170.24l-5.584-.666-4.594,1.938-.646,5.678s1.3.37,1.767-2.989l1.281-.279a7.773,7.773,0,0,0,4.243.534,28.234,28.234,0,0,1,3.667-.719Z" transform="translate(965.071 -120.402)" fill="url(#a)"/><rect width="2.556" height="3.5" transform="translate(36.043 53.237) rotate(177.783)" fill="#5f33e2"/><g transform="translate(8.824 44.703)"><path d="M-950.292,166.889a1.571,1.571,0,0,1,.813.682l7.58,13.118-1.055.485-8.2-14.189A1.011,1.011,0,0,1-950.292,166.889Z" transform="translate(951.799 -166.516)" fill="#21eeff"/><path d="M-950.628,166.68a1.744,1.744,0,0,1,.9.755l8.379,14.5-1.166.537-9.063-15.687A1.117,1.117,0,0,1-950.628,166.68Z" transform="translate(951.579 -166.627)" fill="#e8ffff"/><rect width="20.868" height="1.438" transform="translate(8.807 14.432) rotate(-12.268)" fill="#e8ffff"/></g></g><path d="M-938.807,283.79-993.388,251.4v-79.09l54.581,32.387Z" transform="translate(1106.804 -113.179)" fill="#6b29ab" opacity="0.75"/><path d="M-957.076,269.958l-44.479-26.393V179.115l44.479,26.392Z" transform="translate(1102.586 -109.665)" fill="#11c2ff" opacity="0.75"/><path d="M-1004.466,250.416V173.167l53.311,31.633" transform="translate(1101.082 -112.737)" fill="none" stroke="#6b29ab" stroke-linecap="round" stroke-linejoin="round" stroke-width="0.5" opacity="0.75"/><path d="M-984.584,248.841l-29.054-17.24V189.5l29.054,17.239Z" transform="translate(1096.344 -104.3)" fill="#6b29ab" opacity="0.75"/><path d="M-979.38,259.47l-36.817-21.847V184.274l36.817,21.846Z" transform="translate(1095.022 -107)" fill="none" stroke="#6b29ab" stroke-miterlimit="10" stroke-width="0.5" opacity="0.75"/><path d="M-1002.778,232.813l-17.346-10.293V197.385l17.346,10.293Z" transform="translate(1092.994 -100.228)" fill="#11c2ff" opacity="0.75"/><path d="M-1009.77,220.886l-8.634-5.123V203.252l8.634,5.123Z" transform="translate(1093.882 -97.198)" fill="#11c2ff" opacity="0.75"/><path d="M-1014.7,216.623l-5.52-3.276v-8l5.52,3.276Z" transform="translate(1092.942 -96.115)" fill="#6b29ab" opacity="0.75"/><path d="M-1012.616,220.886l-8.634-5.123V203.252l8.634,5.123Z" transform="translate(1092.412 -97.198)" fill="none" stroke="#6b29ab" stroke-miterlimit="10" stroke-width="0.5" opacity="0.75"/><path d="M-1017.267,215.1l-4.41-2.617V206.1l4.41,2.617Z" transform="translate(1092.191 -95.728)" fill="#6b29ab" opacity="0.75"/><path d="M-1018.855,211.86l-2.041-1.211v-2.958l2.041,1.211Z" transform="translate(1092.595 -94.904)" fill="#c6d2e0" opacity="0.75"/></g><g transform="translate(-802.109 293.753)"><path d="M-967.994,366.182c0,1.409-12.941,2.551-28.9,2.551s-28.9-1.142-28.9-2.551,12.939-2.551,28.9-2.551S-967.994,364.773-967.994,366.182Z" transform="translate(1025.8 -174.789)" fill="#afb0de" opacity="0.21"/><path d="M-837.382,366.355c0,1.673-12.941,3.027-28.9,3.027s-28.9-1.354-28.9-3.027,12.941-3.027,28.9-3.027S-837.382,364.682-837.382,366.355Z" transform="translate(1093.266 -174.945)" fill="#afb0de" opacity="0.21"/><path d="M-968.331,366.534c0,.8-3.215,1.444-7.184,1.444s-7.184-.646-7.184-1.444,3.217-1.442,7.184-1.442S-968.331,365.738-968.331,366.534Z" transform="translate(1048.063 -174.034)" fill="#afb0de" opacity="0.21"/><g transform="translate(168.95 35.053)"><path d="M-877.885,362.395v2.829h-11.739l7.958-2.829Z" transform="translate(927.19 -210.48)" fill="#000f1f"/><path d="M-859.9,362.395v2.829l-7.095,3.249h-3.187l5.948-6.078Z" transform="translate(937.234 -210.48)" fill="#000f1f"/><path d="M-884.377,312.526v75.628h3.782s6.3-17.646,5.294-35.041l4.286-26.218,14.116,61.259h4.286s3.726-22.618-1.512-36.3l-2.017-39.327Z" transform="translate(929.901 -236.24)" fill="#001f5e"/><path d="M-884.377,313.552s6.9,5.387,28.478,4.736l-.243-4.736-16.3-3.013" transform="translate(929.901 -237.266)" fill="#000d3a"/><path d="M-873.92,325.282l-4.833-9.633.547,35.851Z" transform="translate(932.805 -234.626)" fill="#000d3a"/><path d="M-876.347,266.9c.323-.541-1.6-.758-1.376-1.328,5.309-1.03,11.172.079,11.527,4.387,0,0,7.363,6.426-1.467,14.848v1.121l-7.3-4.349-5.895-8.208a6.876,6.876,0,0,1-1.548-.271A18.731,18.731,0,0,0-876.347,266.9Z" transform="translate(930.919 -260.676)" fill="#131637"/><path d="M-879.981,275.564s-5.508-.972-3.993-6.824l1.864,1.046s-2.282-2.722,1.464-7.563l5.349,5.42,1.137,5.464Z" transform="translate(929.972 -262.223)" fill="#131637"/><path d="M-867.719,283.025s-4.439-2.486-4.295-5.942c0,0,3.162-.654,2.627-2.957-.446-1.914-2.851-1.271-3.618.378v2.2s-1.238-.033-1.454-4.246l-1.45-1.858h-5a20.168,20.168,0,0,0-1.271,9.351s.147,1.072.3,1.827a15.642,15.642,0,0,0,.966,2.986h4.99l-.021,4.316s-.452,2.963,1.911,3.562c4.507,1.142,6.316-3.806,6.316-3.806v-5.808Z" transform="translate(930.976 -257.897)" fill="url(#a)"/><path d="M-861.555,287.325c-.206-2.6-3.022-6.614-9-.312-7.534,7.936-17,18.032-36.074,13.512l-2.009,3.826s20.364,12.2,40.634-5.209C-865.46,296.955-861.147,292.44-861.555,287.325Z" transform="translate(917.367 -251.154)" fill="url(#f)"/><path d="M-903.3,297.15a12.135,12.135,0,0,0-1.656-2.21s-2.573-2.657-3-3.038c0,0-.828.344-.328,1.309a11.032,11.032,0,0,0,1.412,1.964,8.247,8.247,0,0,1-2.381-.971c-.828-.605-2.5-1.747-3.135-1.626s-.34.733-.34.733,2.564,1.752,3.11,2.132c.481.335.209.466.209.466l-3.989-1.5c-.605-.227-.97.042-1,.661,0,0,1.8.692,2.865,1.219.372.185,1.748.564,1.507,1,0,0-3.022-.773-3.514-.969s-.9.158-.748.719l4.005,1.382s.261.152.1.3a9.755,9.755,0,0,1-2.355.1c-.212-.056-.89-.173-.927.417,0,0,.014.2.648.32s3.615.789,3.615.789a9,9,0,0,0,4.174.218c2.281-.435,2.575-1.356,1.7-.3l-.011-1.3Z" transform="translate(914.395 -246.892)" fill="#ffcda9"/><path d="M-858.154,293.244a11.535,11.535,0,0,0-3.7-8.443c-.99-1.04-4.544-2.2-4.788-2.2v.042c-.035.062-2.478,4.454-6.313,3.449-2.357-.617-1.911-3.211-1.911-3.211v-.061l-.256.006c-3.3.317-6.26,5.664-7.272,12.278-.8,13.373-1.978,32.883-1.978,32.883,12.765,4.2,28.233,0,28.235,0l.517.472Z" transform="translate(929.901 -251.699)" fill="url(#c)"/><path d="M-884.256,320.169c12.737-7.169,14.079-18.506,15.214-27.687.828-6.7,4.539-7.517,6.826-6.541a9.287,9.287,0,0,1,2.311,4.871l-1.212.043c-.194,1.23,1.486,3.238,1.339,4.073-3.538,20.055-17.355,29.271-24.583,31.11C-884.347,325.216-884.309,323.084-884.256,320.169Z" transform="translate(929.909 -250.148)" fill="#000d3a" opacity="0.2"/></g><g transform="translate(8.127 0)"><path d="M-987.393,312.526v75.628h-3.781s-6.3-17.646-5.294-35.041l-4.286-26.218-14.118,61.259h-4.286s-3.726-22.618,1.514-36.3l2.015-39.327Z" transform="translate(1020.441 -201.187)" fill="#001f5e"/><path d="M-988.949,313.552s-6.9,5.387-28.478,4.736l.243-4.736,16.3-3.013" transform="translate(1021.998 -202.213)" fill="#000d3a"/><path d="M-988.031,309.081a12.921,12.921,0,0,1,2.12-2.023s3.157-2.331,3.67-2.655a.913.913,0,0,1,.114,1.427,11.693,11.693,0,0,1-1.82,1.809,8.719,8.719,0,0,0,2.661-.6c.972-.488,2.918-1.392,3.565-1.153s.226.825.226.825-2.989,1.386-3.628,1.689c-.561.265-.3.45-.3.45l4.436-.875c.675-.132,1.01.214.931.866,0,0-2,.411-3.212.776-.42.129-1.927.285-1.75.781,0,0,3.3-.282,3.846-.4s.911.323.657.883l-4.433.746s-.3.114-.156.3a10.343,10.343,0,0,0,2.448.511c.231-.021.962-.026.9.6,0,0-.05.208-.736.221s-3.922.194-3.922.194a9.57,9.57,0,0,1-4.406-.5c-2.311-.855-2.458-1.868-1.721-.613l.238-1.357Z" transform="translate(1036.714 -205.383)" fill="#ffcda9"/><path d="M-1005.564,286.007c1.391-2.2,6.627-3.508,9,4.851,2.983,10.528,6.671,23.866,25.661,28.729v4.321s-23.7,1.336-33.556-23.5C-1005.7,297.292-1008.3,290.347-1005.564,286.007Z" transform="translate(1027.501 -215.738)" fill="url(#f)"/><path d="M-1017.091,327.985s15.47,4.2,28.235,0c0,0-1.153-24.1-3.694-36.115-1.151-5.441-3.35-9.046-6.7-9.046l-7.339-.226a8.749,8.749,0,0,0-4.322,2.247c-1.812,1.991-2.61,5.073-3.541,11.145l-3.157,32.466Z" transform="translate(1021.905 -216.646)" fill="url(#i)"/><path d="M5.07,0H168.488a5.07,5.07,0,0,1,5.07,5.07V150.693a5.069,5.069,0,0,1-5.069,5.069H5.07A5.07,5.07,0,0,1,0,150.693V5.07A5.07,5.07,0,0,1,5.07,0Z" transform="matrix(0.972, -0.237, 0.237, 0.972, 21.716, 41.127)" fill="#dadbfc" opacity="0.2"/><path d="M-844.62,240.242l-155.356,37.894a6.825,6.825,0,0,0-5.012,8.247l4.339,17.788,168.613-41.127-4.337-17.788A6.826,6.826,0,0,0-844.62,240.242Z" transform="translate(1028.322 -238.625)" fill="#dadbfc"/><rect width="154.667" height="114.874" rx="4.18" transform="translate(38.899 70.58) rotate(-13.708)" fill="#3c03a5" opacity="0.81"/><path d="M-986.622,272.879a6.791,6.791,0,0,1-4.988,8.206,6.791,6.791,0,0,1-8.206-4.988,6.789,6.789,0,0,1,4.988-8.206A6.79,6.79,0,0,1-986.622,272.879Z" transform="translate(1030.994 -224.343)" fill="#002ab4" opacity="0.3"/><path d="M-988.62,272.722a5.265,5.265,0,0,1-3.869,6.365,5.268,5.268,0,0,1-6.366-3.869,5.269,5.269,0,0,1,3.87-6.366A5.267,5.267,0,0,1-988.62,272.722Z" transform="translate(1031.513 -223.824)" fill="#c6d2e0" opacity="0.75"/><path d="M-989.887,272.62a4.3,4.3,0,0,1-3.16,5.2,4.3,4.3,0,0,1-5.2-3.159,4.3,4.3,0,0,1,3.161-5.2A4.3,4.3,0,0,1-989.887,272.62Z" transform="translate(1031.842 -223.495)" fill="#ff2232"/><path d="M-992.127,272.444a2.594,2.594,0,0,1-1.906,3.136,2.6,2.6,0,0,1-3.136-1.906,2.6,2.6,0,0,1,1.906-3.136A2.594,2.594,0,0,1-992.127,272.444Z" transform="translate(1032.423 -222.914)" fill="#b51413"/><path d="M-974.019,269.805a6.791,6.791,0,0,1-4.988,8.206,6.791,6.791,0,0,1-8.206-4.988,6.79,6.79,0,0,1,4.988-8.206A6.79,6.79,0,0,1-974.019,269.805Z" transform="translate(1037.504 -225.931)" fill="#002ab4" opacity="0.3"/><path d="M-976.017,269.646a5.266,5.266,0,0,1-3.869,6.366,5.268,5.268,0,0,1-6.366-3.869,5.269,5.269,0,0,1,3.87-6.366A5.266,5.266,0,0,1-976.017,269.646Z" transform="translate(1038.023 -225.412)" fill="#c6d2e0" opacity="0.75"/><path d="M-977.284,269.546a4.3,4.3,0,0,1-3.161,5.2,4.3,4.3,0,0,1-5.2-3.159,4.3,4.3,0,0,1,3.16-5.2A4.3,4.3,0,0,1-977.284,269.546Z" transform="translate(1038.352 -225.083)" fill="#ffc500"/><path d="M-979.523,269.37a2.6,2.6,0,0,1-1.908,3.136,2.6,2.6,0,0,1-3.136-1.906,2.6,2.6,0,0,1,1.906-3.136A2.6,2.6,0,0,1-979.523,269.37Z" transform="translate(1038.933 -224.502)" fill="#ff9700"/><path d="M-961.416,266.732a6.791,6.791,0,0,1-4.988,8.206,6.792,6.792,0,0,1-8.206-4.988,6.793,6.793,0,0,1,4.988-8.208A6.792,6.792,0,0,1-961.416,266.732Z" transform="translate(1044.014 -227.519)" fill="#002ab4" opacity="0.3"/><path d="M-963.413,266.572a5.268,5.268,0,0,1-3.87,6.366,5.268,5.268,0,0,1-6.366-3.869,5.269,5.269,0,0,1,3.87-6.366A5.268,5.268,0,0,1-963.413,266.572Z" transform="translate(1044.533 -227)" fill="#c6d2e0" opacity="0.75"/><path d="M-964.681,266.472a4.3,4.3,0,0,1-3.16,5.2,4.3,4.3,0,0,1-5.2-3.159,4.3,4.3,0,0,1,3.16-5.2A4.3,4.3,0,0,1-964.681,266.472Z" transform="translate(1044.862 -226.671)" fill="#3dff76"/><path d="M-966.92,266.3a2.6,2.6,0,0,1-1.906,3.136,2.6,2.6,0,0,1-3.138-1.906,2.6,2.6,0,0,1,1.908-3.136A2.6,2.6,0,0,1-966.92,266.3Z" transform="translate(1045.443 -226.089)" fill="#1a9f58"/><path d="M-984.948,288.142l-3.88,6.383,6.376,3.876" transform="translate(1036.771 -213.782)" fill="none" stroke="#12d77e" stroke-linecap="round" stroke-linejoin="round" stroke-width="1"/><path d="M-977.767,286.068l6.383,3.88-3.875,6.376" transform="translate(1042.484 -214.853)" fill="none" stroke="#12d77e" stroke-linecap="round" stroke-linejoin="round" stroke-width="1"/><line y1="12.13" x2="1.355" transform="translate(58.815 72.324)" stroke-width="1" stroke="#12d77e" stroke-linecap="round" stroke-linejoin="round" fill="none"/><path d="M-967.027,291.923a1.49,1.49,0,0,1-1.095,1.8,1.489,1.489,0,0,1-1.8-1.093,1.489,1.489,0,0,1,1.095-1.8A1.489,1.489,0,0,1-967.027,291.923Z" transform="translate(1046.514 -212.416)" fill="#12d77e"/><path d="M-963.078,290.96a1.491,1.491,0,0,1-1.095,1.8,1.491,1.491,0,0,1-1.8-1.095,1.491,1.491,0,0,1,1.095-1.8A1.491,1.491,0,0,1-963.078,290.96Z" transform="translate(1048.554 -212.913)" fill="#12d77e"/><path d="M-959.127,290a1.488,1.488,0,0,1-1.095,1.8,1.489,1.489,0,0,1-1.8-1.093,1.49,1.49,0,0,1,1.095-1.8A1.489,1.489,0,0,1-959.127,290Z" transform="translate(1050.595 -213.411)" fill="#12d77e"/><line y1="24.356" x2="99.854" transform="translate(54.539 72.286)" stroke-width="1" stroke="#12d77e" stroke-linecap="round" stroke-linejoin="round" fill="none"/><line y1="2.899" x2="11.886" transform="translate(163.748 67.106)" stroke-width="1" stroke="#12d77e" stroke-linecap="round" stroke-linejoin="round" fill="none"/><line y1="1.236" x2="5.069" transform="translate(182.309 64.241)" stroke-width="1" stroke="#12d77e" stroke-linecap="round" stroke-linejoin="round" fill="none"/><line y1="18.23" x2="74.742" transform="translate(57.499 90.549)" stroke-width="1" stroke="#12ffff" stroke-linecap="round" stroke-linejoin="round" fill="none"/><line y1="0.892" x2="3.657" transform="translate(146.597 86.155)" stroke-width="1" stroke="#12ffff" stroke-linecap="round" stroke-linejoin="round" fill="none"/><line x1="11.562" y2="2.82" transform="translate(140.394 93.134)" stroke-width="1" stroke="#12ffff" stroke-linecap="round" stroke-linejoin="round" fill="none"/><line x1="9.462" y2="2.308" transform="translate(124.481 97.528)" stroke-width="1" stroke="#12ffff" stroke-linecap="round" stroke-linejoin="round" fill="none"/><line x1="9.462" y2="2.308" transform="translate(107.503 101.669)" stroke-width="1" stroke="#12ffff" stroke-linecap="round" stroke-linejoin="round" fill="none"/><line x1="9.462" y2="2.308" transform="translate(90.525 105.81)" stroke-width="1" stroke="#12ffff" stroke-linecap="round" stroke-linejoin="round" fill="none"/><line x1="9.462" y2="2.308" transform="translate(73.546 109.951)" stroke-width="1" stroke="#12ffff" stroke-linecap="round" stroke-linejoin="round" fill="none"/><line x1="91.939" y2="22.425" transform="translate(75.616 98.32)" stroke-width="1" stroke="#ff3181" stroke-linecap="round" stroke-linejoin="round" fill="none"/><line x1="3.414" y2="0.833" transform="translate(59.201 114.925)" stroke-width="1" stroke="#12ffff" stroke-linecap="round" stroke-linejoin="round" fill="none"/><line x1="3.414" y2="0.833" transform="translate(61.271 123.411)" stroke-width="1" stroke="#12ffff" stroke-linecap="round" stroke-linejoin="round" fill="none"/><line x1="3.414" y2="0.833" transform="translate(63.341 131.896)" stroke-width="1" stroke="#12ffff" stroke-linecap="round" stroke-linejoin="round" fill="none"/><line x1="3.414" y2="0.833" transform="translate(65.41 140.381)" stroke-width="1" stroke="#12ffff" stroke-linecap="round" stroke-linejoin="round" fill="none"/><line y1="2.464" x2="10.102" transform="translate(176.423 93.692)" stroke-width="1" stroke="#ff3181" stroke-linecap="round" stroke-linejoin="round" fill="none"/><line y1="9.875" x2="40.486" transform="translate(77.336 119.44)" stroke-width="1" stroke="#ff3181" stroke-linecap="round" stroke-linejoin="round" fill="none"/><line y1="9.875" x2="40.486" transform="translate(79.457 128.133)" stroke-width="1" stroke="#ff3181" stroke-linecap="round" stroke-linejoin="round" fill="none"/><line y1="9.875" x2="40.486" transform="translate(81.577 136.826)" stroke-width="1" stroke="#ff3181" stroke-linecap="round" stroke-linejoin="round" fill="none"/><line y1="9.875" x2="40.486" transform="translate(83.697 145.52)" stroke-width="1" stroke="#ff3181" stroke-linecap="round" stroke-linejoin="round" fill="none"/><line y1="6.834" x2="28.016" transform="translate(150.895 132.171)" stroke-width="1" stroke="#ffd000" stroke-linecap="round" stroke-linejoin="round" fill="none"/><line y1="3.55" x2="14.555" transform="translate(162.235 123.478)" stroke-width="1" stroke="#ffd000" stroke-linecap="round" stroke-linejoin="round" fill="none"/><line y1="3.249" x2="13.319" transform="translate(161.3 114.576)" stroke-width="1" stroke="#ffd000" stroke-linecap="round" stroke-linejoin="round" fill="none"/></g><g transform="translate(9.364 38.406)"><path d="M-1001.142,362.395v2.829H-989.4l-7.958-2.829Z" transform="translate(1029.173 -213.833)" fill="#000f1f"/><path d="M-1019.626,362.395v2.829l7.095,3.249h3.186l-5.947-6.078Z" transform="translate(1019.626 -213.833)" fill="#000f1f"/><path d="M-1007.459,325.282l4.833-9.633-.548,35.851Z" transform="translate(1025.91 -237.979)" fill="#000d3a"/><path d="M-991.582,264.662c-.323-.541-6.348,0-8.957.4-3.029-.093-9.791,2.085-10.681,6.453,0,0-9.039,6.418,3.013,14.992l2.988-.955,4.313-3.561,5.893-8.208a6.9,6.9,0,0,0,1.55-.271C-988.825,271.152-990.1,267.15-991.582,264.662Z" transform="translate(1022.287 -264.434)" fill="#131637"/><path d="M-1008.228,282.033a13.542,13.542,0,0,0,2.181-4.95s-3.16-.654-2.625-2.957c.444-1.914,2.851-1.271,3.617.378v2.2s1.237-.033,1.456-4.246l1.45-1.858h5a20.157,20.157,0,0,1,1.272,9.351s-.133.885-.3,1.827a15.543,15.543,0,0,1-.968,2.986h-4.988v4.348l-.02,3.779-8.186-4.092v-5.476Z" transform="translate(1024.422 -261.25)" fill="url(#a)"/><path d="M-997.945,309.352c-5.6-4.48-9.222-10.951-12.037-17.515a23.406,23.406,0,0,1-1.788-5.917,8.257,8.257,0,0,0-.99,3.308l-.5,7.038c.249,1.28.541,2.42.772,3.279,4.058,15.115,13.864,21.85,21.3,24.844-.1-1.715-.261-4.478-.5-7.794A28.094,28.094,0,0,1-997.945,309.352Z" transform="translate(1022.911 -253.335)" fill="#410890" opacity="0.53"/><path d="M-1012.835,286.007c1.391-2.2,6.629-3.508,9,4.851,2.982,10.528,6.67,23.866,25.661,28.729v4.321s-23.7,1.336-33.558-23.5C-1012.973,297.292-1015.574,290.347-1012.835,286.007Z" transform="translate(1022.509 -254.144)" fill="url(#f)"/><path d="M-989.5,309.563a12.909,12.909,0,0,1,2.12-2.025s3.157-2.329,3.672-2.655a.916.916,0,0,1,.114,1.429,11.818,11.818,0,0,1-1.821,1.809,8.732,8.732,0,0,0,2.661-.6c.972-.487,2.918-1.391,3.565-1.153s.227.827.227.827-2.991,1.385-3.629,1.688c-.56.267-.3.45-.3.45s3.762-.743,4.437-.875,1.008.215.93.867c0,0-2,.409-3.211.776-.42.127-1.929.285-1.752.78,0,0,3.3-.282,3.846-.4s.911.322.658.883l-4.434.745s-.3.114-.156.3a10.262,10.262,0,0,0,2.449.51c.23-.021.961-.024.9.6,0,0-.05.209-.735.223s-3.922.193-3.922.193a9.545,9.545,0,0,1-4.406-.5c-2.31-.855-2.457-1.868-1.721-.611l.238-1.359Z" transform="translate(1034.719 -243.54)" fill="#ffcda9"/><rect width="2.429" height="4.528" transform="translate(46.022 69.778) rotate(180)" fill="#ff9901"/></g><path d="M-887.019,309.863a12.858,12.858,0,0,0-2.231-1.9s-3.285-2.147-3.816-2.443a.916.916,0,0,0-.033,1.433,11.8,11.8,0,0,0,1.921,1.7,8.731,8.731,0,0,1-2.692-.449c-1-.431-2.992-1.222-3.625-.948s-.18.839-.18.839,3.065,1.212,3.719,1.479c.576.233.326.432.326.432s-3.8-.528-4.48-.62-.995.271-.878.917c0,0,2.024.3,3.25.593.426.1,1.941.174,1.793.679,0,0-3.309-.094-3.863-.181s-.892.373-.607.919l4.469.491s.3.1.173.287a10.269,10.269,0,0,1-2.416.649c-.231-.008-.961.03-.861.649,0,0,.062.206.746.18s3.928-.03,3.928-.03a9.549,9.549,0,0,0,4.369-.751c2.258-.986,2.348-2,1.685-.708l-.315-1.344Z" transform="translate(1091.291 -204.805)" fill="#ffcda9"/><g transform="translate(203.539 69.444)"><path d="M-856.731,286.57c-1.379-2.211-6.611-3.543-9.022,4.8-3.038,10.513-6.8,23.831-25.812,28.594l-.023,4.322s23.693,1.459,33.681-23.321C-856.652,297.854-854.015,290.924-856.731,286.57Z" transform="translate(891.587 -284.9)" fill="url(#f)"/></g></g><g transform="translate(-1166.097 249.824)"><path d="M-985.049,367.06c0,3.57-30.933,6.463-69.089,6.463s-69.088-2.894-69.088-6.463,30.931-6.464,69.088-6.464S-985.049,363.49-985.049,367.06Z" transform="translate(1123.225 -132.427)" fill="#afb0de" opacity="0.21"/><g transform="translate(3.302 105.578)"><g transform="translate(46.76)"><path d="M-1041.108,327.462s-8.084,1.028-7.956-11.7a29.86,29.86,0,0,0-7.426-7.389v-1.551s-.362.334-.933.913c-.886-.579-1.485-.913-1.485-.913l.23,2.238a60.158,60.158,0,0,0-5.241,6.7c.13,12.731-7.954,11.7-7.954,11.7l15.382.437v.073h0Z" transform="translate(1099.688 -265.783)" fill="#c6c7f0"/><path d="M-1066.878,316.842h15.616a22.281,22.281,0,0,1-.318-2.607h-14.979A22.252,22.252,0,0,1-1066.878,316.842Z" transform="translate(1102.268 -261.952)" fill="#b0b8f0"/><path d="M-1003.817,306.876v9.551a3.015,3.015,0,0,1-3.015,3.015H-1087.2a3.014,3.014,0,0,1-3.013-3.015V306.79" transform="translate(1090.214 -265.798)" fill="#dcecff"/><path d="M-1007.02,279.76h-79.991a3.2,3.2,0,0,0-3.2,3.2v38.726h86.4V282.963A3.2,3.2,0,0,0-1007.02,279.76Z" transform="translate(1090.214 -279.76)" fill="#1a0835"/><g transform="translate(40.912 43.989)"><path d="M-1058.642,311.652a2.442,2.442,0,0,0-2.141-1.28,2.453,2.453,0,0,0-2.454,2.452,2.453,2.453,0,0,0,2.454,2.454,2.442,2.442,0,0,0,2.141-1.28A2.645,2.645,0,0,0-1058.642,311.652Z" transform="translate(1063.237 -307.936)" fill="#c1cae4"/><path d="M-1059.852,309.125a1.234,1.234,0,0,0-1.741,0,1.231,1.231,0,0,0,0,1.741Z" transform="translate(1063.9 -308.766)" fill="#c1cae4"/></g><rect width="32.87" height="1.336" transform="translate(26.763 61.521)" fill="#dcecff"/><rect width="78.581" height="33.303" transform="translate(4.206 4.565)" fill="#0067ff"/><rect width="51.007" height="21.617" transform="translate(22.846 5.932)" fill="#410890"/><rect width="47.455" height="1.761" transform="translate(24.622 8.877)" fill="#11c2ff"/><rect width="47.455" height="1.761" transform="translate(24.622 15.515)" fill="#11c2ff"/><rect width="47.455" height="1.761" transform="translate(24.622 22.152)" fill="#11c2ff"/><rect width="36.384" height="15.42" transform="translate(41.341 19.398)" fill="#11c2ff"/><rect width="14.466" height="12.262" transform="translate(43.091 20.978)" fill="#00b8ff"/><rect width="14.466" height="1.061" transform="translate(61.192 20.978)" fill="#00b8ff"/><rect width="14.466" height="1.061" transform="translate(61.192 24.01)" fill="#00b8ff"/><rect width="14.466" height="1.061" transform="translate(61.192 27.042)" fill="#00b8ff"/><rect width="14.466" height="1.061" transform="translate(61.192 30.074)" fill="#00b8ff"/><rect width="18.024" height="6.357" transform="translate(17.183 29.523)" fill="#ff6101"/><rect width="14.4" height="15.42" transform="translate(64.842 11.688)" fill="#ffe51c"/><rect width="6.13" height="6.564" transform="translate(66.178 13.113)" fill="#ff9c00"/><rect width="2.273" height="2.434" transform="translate(75.029 15.178)" fill="#ff9c00"/><rect width="2.273" height="2.434" transform="translate(75.029 19.999)" fill="#ff9c00"/><rect width="10.652" height="11.406" transform="translate(37.263 13.695)" fill="#ffe51c"/><rect width="8.166" height="0.445" transform="translate(38.506 14.984)" fill="#410890"/><rect width="8.166" height="0.445" transform="translate(38.506 17.39)" fill="#410890"/><rect width="8.166" height="0.445" transform="translate(38.506 19.795)" fill="#410890"/><rect width="8.166" height="0.445" transform="translate(38.506 22.201)" fill="#410890"/></g><g transform="translate(0 0.716)"><g transform="translate(0 61.746)"><g transform="translate(0 0)"><g transform="translate(117.505 2.868)"><path d="M-1043.565,322.838c.3.224,8.182,8.183,8.182,8.183v-8.183Z" transform="translate(1043.565 -322.838)" fill="#ff8700"/></g><g transform="translate(4.822 2.868)"><path d="M-1109.686,322.838c-.3.224-8.182,8.183-8.182,8.183v-8.183Z" transform="translate(1117.868 -322.838)" fill="#ff8700"/></g><g transform="translate(4.312 3.949)"><rect width="2.727" height="62.644" fill="#ff9c00"/><g transform="translate(0 57.19)"><rect width="2.727" height="5.453" fill="#000053"/></g></g><rect width="133.279" height="3.949" transform="translate(133.279 3.949) rotate(180)" fill="#ffb200"/><g transform="translate(123.47 3.949)"><g transform="translate(0 0)"><rect width="2.727" height="62.644" transform="translate(2.727 62.644) rotate(180)" fill="#ff9c00"/></g><g transform="translate(0 57.19)"><rect width="2.727" height="5.453" transform="translate(2.727 5.453) rotate(180)" fill="#000053"/></g></g></g></g><g transform="translate(10.365)"><g transform="translate(39.153 91.866)"><path d="M-1071.973,342.314s.033,16.649-15.457,31.731l-.966-2.376,7.815-30.86Z" transform="translate(1088.396 -340.808)" fill="#00143e"/></g><g transform="translate(63.433 121.991)"><path d="M-1072.386,360.672l2.782.734,10.874,5.018-12.2,0Z" transform="translate(1072.386 -360.672)" fill="#000f1f"/></g><g transform="translate(38.854 121.991)"><path d="M-1088.593,360.672l2.782.734,10.874,5.018-12.2,0Z" transform="translate(1088.593 -360.672)" fill="#000f1f"/></g><g transform="translate(26.687 93.403)"><g transform="translate(23.698)"><path d="M-1065.928,378.462a.959.959,0,0,0,.35-.068.927.927,0,0,0,.508-1.206l-14.136-34.789a.929.929,0,0,0-1.207-.51.927.927,0,0,0-.509,1.207l14.137,34.788A.927.927,0,0,0-1065.928,378.462Z" transform="translate(1080.99 -341.822)" fill="#5884ff"/></g><g transform="translate(0 0.001)"><path d="M-1081.551,378.462a.949.949,0,0,0,.349-.068.924.924,0,0,0,.508-1.206l-14.139-34.789a.927.927,0,0,0-1.207-.508.925.925,0,0,0-.508,1.206l14.139,34.788A.93.93,0,0,0-1081.551,378.462Z" transform="translate(1096.616 -341.822)" fill="#5884ff"/></g></g><g transform="translate(1.138 93.404)"><path d="M-1112.536,378.462a.928.928,0,0,0,.859-.578l14.136-34.788a.928.928,0,0,0-.508-1.207.931.931,0,0,0-1.209.51l-14.135,34.789a.927.927,0,0,0,.508,1.206A.96.96,0,0,0-1112.536,378.462Z" transform="translate(1113.463 -341.822)" fill="#5884ff"/><g transform="translate(23.695)"><path d="M-1096.913,378.462a.927.927,0,0,0,.858-.578l14.137-34.788a.927.927,0,0,0-.51-1.207.928.928,0,0,0-1.207.51l-14.135,34.789a.924.924,0,0,0,.508,1.206A.952.952,0,0,0-1096.913,378.462Z" transform="translate(1097.839 -341.822)" fill="#5884ff"/></g></g><g transform="translate(32.827 74.539)"><path d="M-1067.016,329.383l28.341,10.742-20.5,37.445-2.783-.736s-.215-19.974,7.36-27.662h-22.531l-12.043-2.463-3.391-5.567,1.06-4.9,9.712-5.632" transform="translate(1092.567 -329.383)" fill="#001f5e"/></g><g transform="translate(10.23 91.865)"><path d="M0,0H51.433A1.77,1.77,0,0,1,53.2,1.77V4.926a0,0,0,0,1,0,0H1.77A1.77,1.77,0,0,1,0,3.156V0A0,0,0,0,1,0,0Z" transform="translate(53.202 4.926) rotate(180)" fill="#fff"/></g><path d="M-1080.847,283.227a12.674,12.674,0,0,1-.872-1.806c-3.27-.1-9.126.4-10.088,5.109,0,0-8.734,6.956,1.583,16.031l3.226.356,4.656-3.843,6.363-8.861a7.534,7.534,0,0,0,1.673-.293A20.22,20.22,0,0,1-1080.847,283.227Z" transform="translate(1124.004 -279.624)" fill="#131647"/><path d="M-1089.657,299.563a14.66,14.66,0,0,0,2.354-5.346s-3.412-.705-2.835-3.192c.481-2.066,3.079-1.371,3.905.408V293.8s1.336-.035,1.571-4.585l1.565-2h5.4a21.754,21.754,0,0,1,1.374,10.1,11.831,11.831,0,0,1-.329,1.973,16.731,16.731,0,0,1-1.045,3.223h-5.385v3.932l-3.089,1.4-2.663.843-2.267-1.036-.84-2.892v-5.191Z" transform="translate(1125.719 -276.625)" fill="url(#a)"/><path d="M-1086.331,291.256a17.266,17.266,0,0,0,8.838.394l-1.425-1.121s5.273-1.971,3.527-10.3l-9.833,1.8h-1.107l.351,4.055" transform="translate(1128.615 -280.232)" fill="#131647"/><g transform="translate(21.86 27.287)"><path d="M-1084.828,357.237s14.856-1.093,21.547-11.759a262.045,262.045,0,0,1-7.069-27.622c-2.648-13.948-3.743-18.05-8.391-19.143a27.56,27.56,0,0,0-10.091,0s-10.42,5.469-10.968,25.434c0,20.511,3.9,29.536,3.9,29.536Z" transform="translate(1099.799 -298.225)" fill="url(#i)"/></g><g transform="translate(0 43.861)"><path d="M-1074.317,357.159l-9.257-33.247s-4.471-14.758-20.408-14.758c-14.76,0-9.207,17.02-9.207,17.02l9.207,30.984Z" transform="translate(1114.213 -309.154)" fill="#d6d9ff"/></g></g><path d="M-1064.635,321.113s3.941,1.658,7.231-.828h1.022l1.912,1.709h1.539l-1.3-3.13-5.361-1.859h-5.764Z" transform="translate(1149.813 -261.237)" fill="#ffcda9"/><g transform="translate(49.084 30.774)"><path d="M-1084.28,300.618s-6.25.678-3.856,10.335c2.47,9.97,10.5,18.511,10.5,18.511s14.081,2.93,25.78.77V324.99s-12.058.155-20.543-2.931c0,0-4.627-12.185-5.862-16.2S-1081.55,300.082-1084.28,300.618Z" transform="translate(1088.682 -300.524)" fill="url(#f)"/></g></g></g><g transform="translate(78.536 0)"><g transform="translate(0 0.002)" opacity="0.2"><path d="M-1000.145,290.576l-66.324-.071a4.975,4.975,0,0,1-4.97-4.979l.064-70.413a4.972,4.972,0,0,1,4.977-4.97l66.324.071a4.974,4.974,0,0,1,4.97,4.977l-.064,70.414A4.974,4.974,0,0,1-1000.145,290.576Z" transform="translate(1071.439 -210.143)" fill="#dadbfc" opacity="0.2"/></g><g transform="translate(0.056)" opacity="0.75"><path d="M-998.64,210.215l-69.23-.073a3.522,3.522,0,0,0-3.524,3.518l-.008,9.445,76.271.08.009-9.447A3.523,3.523,0,0,0-998.64,210.215Z" transform="translate(1071.402 -210.142)" fill="#dadbfc"/></g><g transform="translate(5.015 16.868)" opacity="0.81"><path d="M-1004.732,280.594l-59.3-.064a4.1,4.1,0,0,1-4.1-4.1l.045-51.063a4.1,4.1,0,0,1,4.1-4.1l59.3.064a4.1,4.1,0,0,1,4.1,4.1l-.046,51.063A4.1,4.1,0,0,1-1004.732,280.594Z" transform="translate(1068.132 -221.265)" fill="#3c03a5"/></g><g transform="translate(3.505 2.983)" opacity="0.3"><path d="M-1062.122,215.615a3.5,3.5,0,0,1-3.506,3.5,3.5,3.5,0,0,1-3.5-3.506,3.5,3.5,0,0,1,3.506-3.5A3.5,3.5,0,0,1-1062.122,215.615Z" transform="translate(1069.128 -212.109)" fill="#002ab4"/></g><g transform="translate(4.29 3.769)" opacity="0.75"><path d="M-1063.175,215.348a2.718,2.718,0,0,1-2.719,2.715,2.718,2.718,0,0,1-2.716-2.719,2.718,2.718,0,0,1,2.721-2.716A2.717,2.717,0,0,1-1063.175,215.348Z" transform="translate(1068.61 -212.627)" fill="#c6d2e0"/></g><g transform="translate(4.807 4.286)"><path d="M-1063.866,215.17a2.2,2.2,0,0,1-2.2,2.2,2.2,2.2,0,0,1-2.2-2.2,2.2,2.2,0,0,1,2.2-2.2A2.2,2.2,0,0,1-1063.866,215.17Z" transform="translate(1068.269 -212.968)" fill="#ff2232"/></g><g transform="translate(5.687 5.165)"><path d="M-1065.047,214.87a1.319,1.319,0,0,1-1.321,1.319,1.321,1.321,0,0,1-1.321-1.322,1.322,1.322,0,0,1,1.322-1.319A1.32,1.32,0,0,1-1065.047,214.87Z" transform="translate(1067.689 -213.548)" fill="#b51413"/></g><g transform="translate(13.655 2.992)" opacity="0.3"><path d="M-1055.428,215.621a3.5,3.5,0,0,1-3.506,3.5,3.5,3.5,0,0,1-3.5-3.506,3.5,3.5,0,0,1,3.506-3.5A3.5,3.5,0,0,1-1055.428,215.621Z" transform="translate(1062.435 -212.115)" fill="#002ab4"/></g><g transform="translate(14.44 3.778)" opacity="0.75"><path d="M-1056.482,215.354a2.718,2.718,0,0,1-2.719,2.715,2.718,2.718,0,0,1-2.716-2.721,2.718,2.718,0,0,1,2.721-2.715A2.718,2.718,0,0,1-1056.482,215.354Z" transform="translate(1061.917 -212.633)" fill="#c6d2e0"/></g><g transform="translate(14.939 4.277)"><path d="M-1057.149,215.182a2.221,2.221,0,0,1-2.222,2.219,2.22,2.22,0,0,1-2.217-2.222,2.218,2.218,0,0,1,2.22-2.217A2.219,2.219,0,0,1-1057.149,215.182Z" transform="translate(1061.588 -212.962)" fill="#ffc500"/></g><g transform="translate(15.819 5.156)"><path d="M-1058.33,214.883a1.339,1.339,0,0,1-1.341,1.338,1.34,1.34,0,0,1-1.338-1.341,1.341,1.341,0,0,1,1.341-1.338A1.339,1.339,0,0,1-1058.33,214.883Z" transform="translate(1061.008 -213.542)" fill="#ff9700"/></g><g transform="translate(23.805 3.001)" opacity="0.3"><path d="M-1048.735,215.627a3.5,3.5,0,0,1-3.506,3.5,3.5,3.5,0,0,1-3.5-3.506,3.5,3.5,0,0,1,3.506-3.5A3.5,3.5,0,0,1-1048.735,215.627Z" transform="translate(1055.742 -212.121)" fill="#002ab4"/></g><g transform="translate(24.591 3.787)" opacity="0.75"><path d="M-1049.789,215.358a2.718,2.718,0,0,1-2.721,2.716,2.718,2.718,0,0,1-2.715-2.721,2.718,2.718,0,0,1,2.721-2.715A2.718,2.718,0,0,1-1049.789,215.358Z" transform="translate(1055.224 -212.639)" fill="#c6d2e0"/></g><g transform="translate(25.09 4.286)"><path d="M-1050.458,215.188a2.218,2.218,0,0,1-2.22,2.217,2.217,2.217,0,0,1-2.217-2.22,2.217,2.217,0,0,1,2.22-2.217A2.217,2.217,0,0,1-1050.458,215.188Z" transform="translate(1054.895 -212.968)" fill="#3dff76"/></g><g transform="translate(25.969 5.165)"><path d="M-1051.637,214.889a1.341,1.341,0,0,1-1.341,1.338,1.339,1.339,0,0,1-1.338-1.341,1.339,1.339,0,0,1,1.34-1.338A1.339,1.339,0,0,1-1051.637,214.889Z" transform="translate(1054.315 -213.548)" fill="#1a9f58"/></g><g transform="translate(7.859 19.854)"><path d="M-1063.046,229.661a.484.484,0,0,1-.347-.144l-2.721-2.724a.5.5,0,0,1-.142-.347.492.492,0,0,1,.142-.346l2.728-2.724a.489.489,0,0,1,.693,0,.488.488,0,0,1,0,.693l-2.381,2.376,2.373,2.378a.488.488,0,0,1,0,.693A.488.488,0,0,1-1063.046,229.661Z" transform="translate(1066.257 -223.234)" fill="#12d77e"/></g><g transform="translate(17.432 19.86)"><path d="M-1059.454,229.665a.491.491,0,0,1-.347-.143.492.492,0,0,1,0-.695l2.378-2.373-2.375-2.381a.488.488,0,0,1,0-.693.489.489,0,0,1,.693,0l2.722,2.727a.492.492,0,0,1,0,.695l-2.724,2.719A.489.489,0,0,1-1059.454,229.665Z" transform="translate(1059.945 -223.238)" fill="#12d77e"/></g><g transform="translate(12.852 19.859)"><path d="M-1062.474,230.13a.492.492,0,0,1-.168-.03.49.49,0,0,1-.293-.629l2.167-5.911a.494.494,0,0,1,.63-.293.492.492,0,0,1,.293.629l-2.167,5.911A.492.492,0,0,1-1062.474,230.13Z" transform="translate(1062.965 -223.237)" fill="#12d77e"/></g><g transform="translate(22.771 25.549)"><path d="M-1054.888,227.758a.769.769,0,0,1-.769.769.769.769,0,0,1-.767-.77.768.768,0,0,1,.769-.767A.767.767,0,0,1-1054.888,227.758Z" transform="translate(1056.424 -226.989)" fill="#12d77e"/></g><g transform="translate(25.951 25.552)"><path d="M-1052.789,227.76a.769.769,0,0,1-.769.769.771.771,0,0,1-.769-.77.77.77,0,0,1,.771-.767A.767.767,0,0,1-1052.789,227.76Z" transform="translate(1054.327 -226.991)" fill="#12d77e"/></g><g transform="translate(29.133 25.555)"><path d="M-1050.691,227.762a.769.769,0,0,1-.771.767.769.769,0,0,1-.767-.769.768.768,0,0,1,.769-.767A.769.769,0,0,1-1050.691,227.762Z" transform="translate(1052.229 -226.993)" fill="#12d77e"/></g><g transform="translate(9.213 31.353)"><path d="M-1019.883,231.844h0l-44.991-.047a.491.491,0,0,1-.49-.491.491.491,0,0,1,.49-.49h0l44.991.047a.493.493,0,0,1,.49.491A.49.49,0,0,1-1019.883,231.844Z" transform="translate(1065.364 -230.816)" fill="#12d77e"/></g><g transform="translate(59.172 31.405)"><path d="M-1029.873,231.837h0l-2.059-.006a.489.489,0,0,1-.489-.491.491.491,0,0,1,.49-.49h0l2.058.006a.491.491,0,0,1,.49.491A.492.492,0,0,1-1029.873,231.837Z" transform="translate(1032.421 -230.85)" fill="#12d77e"/></g><g transform="translate(64.774 31.414)"><path d="M-1025.544,231.84h0l-2.692,0a.491.491,0,0,1-.491-.491.491.491,0,0,1,.491-.49h0l2.692,0a.491.491,0,0,1,.492.491A.491.491,0,0,1-1025.544,231.84Z" transform="translate(1028.727 -230.856)" fill="#12d77e"/></g><g transform="translate(9.207 37.798)"><path d="M-1033.222,236.084h0l-31.656-.036a.491.491,0,0,1-.49-.491.491.491,0,0,1,.49-.49h0l31.656.036a.49.49,0,0,1,.49.49A.492.492,0,0,1-1033.222,236.084Z" transform="translate(1065.368 -235.066)" fill="#12ffff"/></g><g transform="translate(48.487 37.841)"><path d="M-1037.034,236.077h0l-1.943,0a.49.49,0,0,1-.488-.491.49.49,0,0,1,.49-.49h0l1.941,0a.492.492,0,0,1,.49.491A.49.49,0,0,1-1037.034,236.077Z" transform="translate(1039.467 -235.094)" fill="#12ffff"/></g><g transform="translate(35.834 41.537)"><path d="M-1042.294,238.515h0l-5.024,0a.491.491,0,0,1-.492-.49.49.49,0,0,1,.492-.49h0l5.024,0a.491.491,0,0,1,.49.491A.49.49,0,0,1-1042.294,238.515Z" transform="translate(1047.81 -237.531)" fill="#12ffff"/></g><g transform="translate(26.818 41.527)"><path d="M-1048.239,238.511h0l-5.026,0a.49.49,0,0,1-.49-.491.49.49,0,0,1,.49-.49h0l5.026,0a.492.492,0,0,1,.49.491A.491.491,0,0,1-1048.239,238.511Z" transform="translate(1053.755 -237.525)" fill="#12ffff"/></g><g transform="translate(16.821 41.512)"><path d="M-1054.831,238.5h0l-5.024,0a.491.491,0,0,1-.491-.491.49.49,0,0,1,.491-.49h0l5.024,0a.492.492,0,0,1,.491.491A.49.49,0,0,1-1054.831,238.5Z" transform="translate(1060.347 -237.515)" fill="#12ffff"/></g><g transform="translate(16.818 46.018)"><path d="M-1019.072,241.511h0l-40.787-.044a.492.492,0,0,1-.49-.491.49.49,0,0,1,.49-.49h0l40.787.044a.491.491,0,0,1,.49.49A.491.491,0,0,1-1019.072,241.511Z" transform="translate(1060.349 -240.486)" fill="#ff3181"/></g><g transform="translate(9.204 41.505)"><path d="M-1063.066,238.493h0l-1.812,0a.491.491,0,0,1-.491-.491.491.491,0,0,1,.491-.49h0l1.812,0a.49.49,0,0,1,.49.491A.49.49,0,0,1-1063.066,238.493Z" transform="translate(1065.37 -237.51)" fill="#12ffff"/></g><g transform="translate(9.201 46.01)"><path d="M-1063.07,241.464h-1.812a.49.49,0,0,1-.49-.49.49.49,0,0,1,.49-.491h1.812a.491.491,0,0,1,.491.491A.49.49,0,0,1-1063.07,241.464Z" transform="translate(1065.372 -240.481)" fill="#12ffff"/></g><g transform="translate(9.196 50.517)"><path d="M-1063.071,244.436h-1.812a.491.491,0,0,1-.491-.491.49.49,0,0,1,.491-.49h1.812a.49.49,0,0,1,.49.49A.49.49,0,0,1-1063.071,244.436Z" transform="translate(1065.375 -243.453)" fill="#12ffff"/></g><g transform="translate(9.192 55.023)"><path d="M-1063.074,247.407h0l-1.814,0a.493.493,0,0,1-.49-.491.49.49,0,0,1,.49-.49h0l1.814,0a.491.491,0,0,1,.49.491A.491.491,0,0,1-1063.074,247.407Z" transform="translate(1065.378 -246.424)" fill="#12ffff"/></g><g transform="translate(16.629 50.524)"><path d="M-1046.52,244.458h0l-13.462-.02a.49.49,0,0,1-.49-.491.491.491,0,0,1,.49-.49h0l13.462.02a.49.49,0,0,1,.49.491A.491.491,0,0,1-1046.52,244.458Z" transform="translate(1060.474 -243.457)" fill="#ff3181"/></g><g transform="translate(16.624 55.14)"><path d="M-1046.523,247.5h0l-13.464-.02a.491.491,0,0,1-.49-.491.491.491,0,0,1,.491-.49h0l13.464.02a.491.491,0,0,1,.49.491A.492.492,0,0,1-1046.523,247.5Z" transform="translate(1060.477 -246.501)" fill="#ff3181"/></g><g transform="translate(16.62 59.756)"><path d="M-1046.525,250.546h0l-13.464-.02a.491.491,0,0,1-.49-.491.491.491,0,0,1,.491-.49h0l13.464.02a.49.49,0,0,1,.49.491A.491.491,0,0,1-1046.525,250.546Z" transform="translate(1060.48 -249.545)" fill="#ff3181"/></g><g transform="translate(16.615 64.373)"><path d="M-1046.528,253.59h0l-13.464-.02a.491.491,0,0,1-.49-.491.492.492,0,0,1,.491-.49h0l13.462.02a.491.491,0,0,1,.49.491A.491.491,0,0,1-1046.528,253.59Z" transform="translate(1060.483 -252.589)" fill="#ff3181"/></g><g transform="translate(44.263 64.404)"><path d="M-1026.882,253.6h0l-14.879-.014a.491.491,0,0,1-.491-.49.491.491,0,0,1,.491-.491h0l14.879.014a.491.491,0,0,1,.49.491A.49.49,0,0,1-1026.882,253.6Z" transform="translate(1042.252 -252.61)" fill="#ffd000"/></g><g transform="translate(51.417 59.794)"><path d="M-1029.315,250.559h0l-7.729-.008a.491.491,0,0,1-.491-.49.491.491,0,0,1,.491-.491h0l7.729.008a.491.491,0,0,1,.491.491A.491.491,0,0,1-1029.315,250.559Z" transform="translate(1037.535 -249.57)" fill="#ffd000"/></g><g transform="translate(52.076 55.069)"><path d="M-1029.536,247.441h0l-7.073-.006a.491.491,0,0,1-.491-.491.491.491,0,0,1,.491-.49h0l7.073.006a.491.491,0,0,1,.491.491A.491.491,0,0,1-1029.536,247.441Z" transform="translate(1037.1 -246.454)" fill="#ffd000"/></g></g><g transform="translate(50.29 23.305)"><g transform="translate(0 0.002)" opacity="0.2"><path d="M-1050.416,303.453l-36.6-.044a3.054,3.054,0,0,1-3.051-3.056l.04-71.793a3.052,3.052,0,0,1,3.056-3.05l36.6.042a3.052,3.052,0,0,1,3.05,3.056l-.038,71.795A3.053,3.053,0,0,1-1050.416,303.453Z" transform="translate(1090.064 -225.51)" fill="#dadbfc" opacity="0.2"/></g><g transform="translate(0.035)" opacity="0.75"><path d="M-1049.492,225.555l-38.38-.046a2.162,2.162,0,0,0-2.164,2.16l0,5.8,42.7.049.006-5.8A2.162,2.162,0,0,0-1049.492,225.555Z" transform="translate(1090.041 -225.509)" fill="#dadbfc"/></g><g transform="translate(3.078 10.353)" opacity="0.81"><path d="M-1053.231,297.326l-32.289-.038a2.518,2.518,0,0,1-2.514-2.521l.027-59.917a2.517,2.517,0,0,1,2.521-2.514l32.289.039a2.516,2.516,0,0,1,2.514,2.519l-.027,59.917A2.517,2.517,0,0,1-1053.231,297.326Z" transform="translate(1088.034 -232.336)" fill="#3c03a5"/></g><g transform="translate(2.152 1.832)" opacity="0.3"><path d="M-1084.344,228.869a2.15,2.15,0,0,1-2.152,2.147,2.15,2.15,0,0,1-2.149-2.152,2.15,2.15,0,0,1,2.152-2.147A2.15,2.15,0,0,1-1084.344,228.869Z" transform="translate(1088.645 -226.717)" fill="#002ab4"/></g><g transform="translate(2.634 2.313)" opacity="0.75"><path d="M-1084.991,228.7a1.668,1.668,0,0,1-1.67,1.667,1.666,1.666,0,0,1-1.667-1.67,1.668,1.668,0,0,1,1.67-1.667A1.67,1.67,0,0,1-1084.991,228.7Z" transform="translate(1088.327 -227.034)" fill="#c6d2e0"/></g><g transform="translate(2.951 2.63)"><path d="M-1085.416,228.6a1.351,1.351,0,0,1-1.353,1.35,1.349,1.349,0,0,1-1.35-1.351,1.352,1.352,0,0,1,1.353-1.351A1.352,1.352,0,0,1-1085.416,228.6Z" transform="translate(1088.118 -227.243)" fill="#ff2232"/></g><g transform="translate(3.491 3.171)"><path d="M-1086.141,228.411a.81.81,0,0,1-.811.81.811.811,0,0,1-.81-.811.81.81,0,0,1,.811-.81A.81.81,0,0,1-1086.141,228.411Z" transform="translate(1087.762 -227.6)" fill="#b51413"/></g><g transform="translate(8.382 1.837)" opacity="0.3"><path d="M-1080.238,228.872a2.151,2.151,0,0,1-2.152,2.149,2.149,2.149,0,0,1-2.148-2.152,2.151,2.151,0,0,1,2.152-2.149A2.15,2.15,0,0,1-1080.238,228.872Z" transform="translate(1084.537 -226.72)" fill="#002ab4"/></g><g transform="translate(8.864 2.319)" opacity="0.75"><path d="M-1080.884,228.708a1.668,1.668,0,0,1-1.668,1.667,1.668,1.668,0,0,1-1.667-1.67,1.668,1.668,0,0,1,1.67-1.667A1.667,1.667,0,0,1-1080.884,228.708Z" transform="translate(1084.219 -227.038)" fill="#c6d2e0"/></g><g transform="translate(9.169 2.625)"><path d="M-1081.293,228.6a1.362,1.362,0,0,1-1.363,1.36,1.363,1.363,0,0,1-1.362-1.363,1.361,1.361,0,0,1,1.363-1.36A1.363,1.363,0,0,1-1081.293,228.6Z" transform="translate(1084.018 -227.24)" fill="#ffc500"/></g><g transform="translate(9.71 3.165)"><path d="M-1082.019,228.418a.821.821,0,0,1-.822.822.821.821,0,0,1-.821-.823.821.821,0,0,1,.822-.82A.82.82,0,0,1-1082.019,228.418Z" transform="translate(1083.661 -227.596)" fill="#ff9700"/></g><g transform="translate(14.61 1.843)" opacity="0.3"><path d="M-1076.129,228.876a2.149,2.149,0,0,1-2.152,2.147,2.151,2.151,0,0,1-2.149-2.152,2.151,2.151,0,0,1,2.154-2.147A2.149,2.149,0,0,1-1076.129,228.876Z" transform="translate(1080.43 -226.724)" fill="#002ab4"/></g><g transform="translate(15.092 2.325)" opacity="0.75"><path d="M-1076.776,228.712a1.668,1.668,0,0,1-1.67,1.667,1.67,1.67,0,0,1-1.667-1.67,1.668,1.668,0,0,1,1.67-1.667A1.666,1.666,0,0,1-1076.776,228.712Z" transform="translate(1080.112 -227.042)" fill="#c6d2e0"/></g><g transform="translate(15.399 2.63)"><path d="M-1077.186,228.606a1.362,1.362,0,0,1-1.362,1.362,1.363,1.363,0,0,1-1.362-1.363,1.364,1.364,0,0,1,1.363-1.362A1.362,1.362,0,0,1-1077.186,228.606Z" transform="translate(1079.91 -227.243)" fill="#3dff76"/></g><g transform="translate(15.939 3.171)"><path d="M-1077.91,228.422a.823.823,0,0,1-.822.822.825.825,0,0,1-.822-.823.822.822,0,0,1,.823-.82A.821.821,0,0,1-1077.91,228.422Z" transform="translate(1079.554 -227.6)" fill="#1a9f58"/></g><g transform="translate(4.824 12.186)"><path d="M-1084.913,237.49a.3.3,0,0,1-.212-.089l-1.67-1.671a.3.3,0,0,1-.088-.214.3.3,0,0,1,.088-.212l1.674-1.671a.3.3,0,0,1,.425,0,.3.3,0,0,1,0,.425l-1.46,1.459,1.456,1.459a.3.3,0,0,1,0,.426A.3.3,0,0,1-1084.913,237.49Z" transform="translate(1086.883 -233.544)" fill="#ffd000"/></g><g transform="translate(10.699 12.19)"><path d="M-1082.707,237.492a.3.3,0,0,1-.214-.088.3.3,0,0,1,0-.426l1.46-1.456-1.459-1.462a.3.3,0,0,1,0-.425.3.3,0,0,1,.426,0l1.671,1.674a.3.3,0,0,1,.088.212.305.305,0,0,1-.088.214l-1.673,1.668A.3.3,0,0,1-1082.707,237.492Z" transform="translate(1083.009 -233.547)" fill="#ffd000"/></g><g transform="translate(7.889 12.188)"><path d="M-1084.562,237.777a.271.271,0,0,1-.1-.02.3.3,0,0,1-.179-.385l1.33-3.629a.3.3,0,0,1,.387-.179.3.3,0,0,1,.179.387l-1.33,3.629A.3.3,0,0,1-1084.562,237.777Z" transform="translate(1084.862 -233.546)" fill="#ffd000"/></g><g transform="translate(13.825 15.531)"><path d="M-1080.325,237h0a.625.625,0,0,1-.623-.623.625.625,0,0,1,.623-.622.623.623,0,0,1,.622.622v0A.623.623,0,0,1-1080.325,237Zm0-.945a.322.322,0,0,0-.322.322.322.322,0,0,0,.322.322h0a.324.324,0,0,0,.322-.322A.324.324,0,0,0-1080.325,236.05Zm.472.322h0Z" transform="translate(1080.948 -235.75)" fill="#ffd000"/></g><g transform="translate(15.778 15.532)"><path d="M-1079.038,237h0a.619.619,0,0,1-.441-.184.621.621,0,0,1-.181-.44.624.624,0,0,1,.182-.44.624.624,0,0,1,.44-.182h0a.623.623,0,0,1,.622.623.618.618,0,0,1-.183.44A.618.618,0,0,1-1079.038,237Zm0-.943a.318.318,0,0,0-.226.094.319.319,0,0,0-.094.226.318.318,0,0,0,.093.227.319.319,0,0,0,.228.094h0a.319.319,0,0,0,.227-.094.318.318,0,0,0,.094-.226.321.321,0,0,0-.32-.322Z" transform="translate(1079.66 -235.751)" fill="#ffd000"/></g><g transform="translate(17.73 15.534)"><path d="M-1077.75,237h0a.624.624,0,0,1-.623-.623.625.625,0,0,1,.623-.622.623.623,0,0,1,.622.623h0A.623.623,0,0,1-1077.75,237Zm0-.943a.321.321,0,0,0-.321.32.322.322,0,0,0,.321.322h0a.323.323,0,0,0,.322-.32A.322.322,0,0,0-1077.75,236.054Zm.472.322h0Z" transform="translate(1078.373 -235.752)" fill="#ffd000"/></g><g transform="translate(5.655 19.243)"><path d="M-1058.42,238.829h0l-27.615-.029a.3.3,0,0,1-.3-.3.3.3,0,0,1,.3-.3h0l27.613.029a.3.3,0,0,1,.3.3A.3.3,0,0,1-1058.42,238.829Z" transform="translate(1086.335 -238.198)" fill="#12d77e"/></g><g transform="translate(5.655 53.243)"><path d="M-1069.7,261.248h0l-16.333-.029a.3.3,0,0,1-.3-.3.3.3,0,0,1,.3-.3h0l16.333.029a.3.3,0,0,1,.3.3A.3.3,0,0,1-1069.7,261.248Z" transform="translate(1086.335 -260.617)" fill="#12d77e"/></g><g transform="translate(5.655 56.784)"><path d="M-1069.7,263.584h0l-16.333-.029a.3.3,0,0,1-.3-.3.3.3,0,0,1,.3-.3h0l16.333.03a.3.3,0,0,1,.3.3A.3.3,0,0,1-1069.7,263.584Z" transform="translate(1086.335 -262.952)" fill="#12d77e"/></g><g transform="translate(5.655 60.326)"><path d="M-1069.7,265.919h0l-16.333-.029a.3.3,0,0,1-.3-.3.3.3,0,0,1,.3-.3h0l16.333.029a.3.3,0,0,1,.3.3A.3.3,0,0,1-1069.7,265.919Z" transform="translate(1086.335 -265.288)" fill="#12d77e"/></g><g transform="translate(5.655 63.869)"><path d="M-1069.7,268.255h0l-16.333-.029a.3.3,0,0,1-.3-.3.3.3,0,0,1,.3-.3h0l16.333.029a.3.3,0,0,1,.3.3A.3.3,0,0,1-1069.7,268.255Z" transform="translate(1086.335 -267.624)" fill="#12d77e"/></g><g transform="translate(5.655 67.41)"><path d="M-1069.7,270.59h0l-16.333-.029a.3.3,0,0,1-.3-.3.3.3,0,0,1,.3-.3h0l16.333.029a.3.3,0,0,1,.3.3A.3.3,0,0,1-1069.7,270.59Z" transform="translate(1086.335 -269.959)" fill="#12d77e"/></g><g transform="translate(5.655 70.953)"><path d="M-1069.7,272.926h0l-16.333-.029a.3.3,0,0,1-.3-.3.3.3,0,0,1,.3-.3h0l16.333.029a.3.3,0,0,1,.3.3A.3.3,0,0,1-1069.7,272.926Z" transform="translate(1086.335 -272.295)" fill="#12d77e"/></g><g transform="translate(36.318 19.275)"><path d="M-1064.552,238.824h0l-1.263,0a.3.3,0,0,1-.3-.3.3.3,0,0,1,.3-.3h0l1.265,0a.3.3,0,0,1,.3.3A.3.3,0,0,1-1064.552,238.824Z" transform="translate(1066.116 -238.219)" fill="#12d77e"/></g><g transform="translate(5.652 23.2)"><path d="M-1066.608,241.43h0l-19.428-.021a.3.3,0,0,1-.3-.3.3.3,0,0,1,.3-.3h0l19.427.021a.3.3,0,0,1,.3.3A.3.3,0,0,1-1066.608,241.43Z" transform="translate(1086.337 -240.807)" fill="#12ffff"/></g><g transform="translate(29.759 23.226)"><path d="M-1068.949,241.428h0l-1.192,0a.3.3,0,0,1-.3-.3.3.3,0,0,1,.3-.3h1.192a.3.3,0,0,1,.3.3A.3.3,0,0,1-1068.949,241.428Z" transform="translate(1070.441 -240.824)" fill="#12ffff"/></g><g transform="translate(21.994 25.493)"><path d="M-1072.176,242.924h0l-3.085,0a.3.3,0,0,1-.3-.3.3.3,0,0,1,.3-.3h0l3.085,0a.3.3,0,0,1,.3.3A.3.3,0,0,1-1072.176,242.924Z" transform="translate(1075.561 -242.319)" fill="#12ffff"/></g><g transform="translate(16.461 25.488)"><path d="M-1075.825,242.921h0l-3.085,0a.3.3,0,0,1-.3-.3.3.3,0,0,1,.3-.3h0l3.085,0a.3.3,0,0,1,.3.3A.3.3,0,0,1-1075.825,242.921Z" transform="translate(1079.21 -242.316)" fill="#12ffff"/></g><g transform="translate(10.325 25.478)"><path d="M-1079.871,242.914h0l-3.083,0a.3.3,0,0,1-.3-.3.3.3,0,0,1,.3-.3h0l3.083,0a.3.3,0,0,1,.3.3A.3.3,0,0,1-1079.871,242.914Z" transform="translate(1083.256 -242.309)" fill="#12ffff"/></g><g transform="translate(10.321 28.244)"><path d="M-1057.923,244.762h0l-25.033-.027a.3.3,0,0,1-.3-.3.3.3,0,0,1,.3-.3h0l25.033.027a.3.3,0,0,1,.3.3A.3.3,0,0,1-1057.923,244.762Z" transform="translate(1083.258 -244.133)" fill="#ff3181"/></g><g transform="translate(5.649 25.475)"><path d="M-1084.924,242.909h-1.113a.3.3,0,0,1-.3-.3.3.3,0,0,1,.3-.3h1.113a.3.3,0,0,1,.3.3A.3.3,0,0,1-1084.924,242.909Z" transform="translate(1086.339 -242.307)" fill="#12ffff"/></g><g transform="translate(5.648 28.239)"><path d="M-1084.927,244.734h0l-1.113,0a.3.3,0,0,1-.3-.3.3.3,0,0,1,.3-.3h1.113a.3.3,0,0,1,.3.3A.3.3,0,0,1-1084.927,244.734Z" transform="translate(1086.34 -244.13)" fill="#12ffff"/></g><g transform="translate(5.644 31.006)"><path d="M-1084.929,246.558h0l-1.113,0a.3.3,0,0,1-.3-.3.3.3,0,0,1,.3-.3h0l1.113,0a.3.3,0,0,1,.3.3A.3.3,0,0,1-1084.929,246.558Z" transform="translate(1086.342 -245.954)" fill="#12ffff"/></g><g transform="translate(5.641 33.772)"><path d="M-1084.929,248.38h-1.113a.3.3,0,0,1-.3-.3.3.3,0,0,1,.3-.3h1.113a.3.3,0,0,1,.3.3A.3.3,0,0,1-1084.929,248.38Z" transform="translate(1086.344 -247.778)" fill="#12ffff"/></g><g transform="translate(10.206 31.009)"><path d="M-1074.77,246.57h0l-8.264-.011a.3.3,0,0,1-.3-.3.3.3,0,0,1,.3-.3h0l8.263.012a.3.3,0,0,1,.3.3A.3.3,0,0,1-1074.77,246.57Z" transform="translate(1083.334 -245.956)" fill="#ff3181"/></g><g transform="translate(10.203 33.843)"><path d="M-1074.77,248.439h0l-8.264-.012a.3.3,0,0,1-.3-.3.3.3,0,0,1,.3-.3h0l8.264.012a.3.3,0,0,1,.3.3A.3.3,0,0,1-1074.77,248.439Z" transform="translate(1083.336 -247.825)" fill="#ff3181"/></g><g transform="translate(10.202 36.676)"><path d="M-1074.773,250.307h0l-8.264-.012a.3.3,0,0,1-.3-.3.3.3,0,0,1,.3-.3h0l8.262.012a.3.3,0,0,1,.3.3A.3.3,0,0,1-1074.773,250.307Z" transform="translate(1083.337 -249.693)" fill="#ff3181"/></g><g transform="translate(10.199 39.51)"><path d="M-1074.775,252.175h0l-8.264-.011a.3.3,0,0,1-.3-.3.3.3,0,0,1,.3-.3h0l8.264.011a.3.3,0,0,1,.3.3A.3.3,0,0,1-1074.775,252.175Z" transform="translate(1083.339 -251.562)" fill="#ff3181"/></g><g transform="translate(21.988 48.902)"><path d="M-1075.263,258.375a.3.3,0,0,1-.3-.3.3.3,0,0,1,.3-.3l14.628-.017h0a.3.3,0,0,1,.3.3.3.3,0,0,1-.3.3l-14.629.018Z" transform="translate(1075.565 -257.755)" fill="#ff3181"/></g><g transform="translate(31.856 51.669)"><path d="M-1068.756,260.189a.3.3,0,0,1-.3-.3.3.3,0,0,1,.3-.3l4.827-.008h0a.3.3,0,0,1,.3.3.3.3,0,0,1-.3.3l-4.828.008Z" transform="translate(1069.058 -259.579)" fill="#ff3181"/></g><g transform="translate(31.859 54.501)"><path d="M-1068.756,262.058a.3.3,0,0,1-.3-.3.3.3,0,0,1,.3-.3l4.829-.009h0a.3.3,0,0,1,.3.3.3.3,0,0,1-.3.3l-4.829.009Z" transform="translate(1069.056 -261.447)" fill="#ff3181"/></g><g transform="translate(31.861 57.334)"><path d="M-1068.753,263.926a.3.3,0,0,1-.3-.3.3.3,0,0,1,.3-.3l4.829-.009h0a.3.3,0,0,1,.3.3.3.3,0,0,1-.3.3l-4.83.009Z" transform="translate(1069.055 -263.315)" fill="#ff3181"/></g><g transform="translate(31.864 60.169)"><path d="M-1068.751,265.8a.3.3,0,0,1-.3-.3.3.3,0,0,1,.3-.3l4.827-.009h0a.3.3,0,0,1,.3.3.3.3,0,0,1-.3.3l-4.829.009Z" transform="translate(1069.053 -265.184)" fill="#ff3181"/></g><g transform="translate(27.169 39.529)"><path d="M-1062.718,252.185h0l-9.131-.008a.3.3,0,0,1-.3-.3.3.3,0,0,1,.3-.3h0l9.131.009a.3.3,0,0,1,.3.3A.3.3,0,0,1-1062.718,252.185Z" transform="translate(1072.149 -251.574)" fill="#ffd000"/></g><g transform="translate(14.045 44.773)"><path d="M-1071.37,255.643h0l-9.131-.008a.3.3,0,0,1-.3-.3.3.3,0,0,1,.3-.3h0l9.131.009a.3.3,0,0,1,.3.3A.3.3,0,0,1-1071.37,255.643Z" transform="translate(1080.803 -255.032)" fill="#ffd000"/></g><g transform="translate(14.045 46.462)"><path d="M-1071.37,256.756h0l-9.131-.008a.3.3,0,0,1-.3-.3.3.3,0,0,1,.3-.3h0l9.131.008a.3.3,0,0,1,.3.3A.3.3,0,0,1-1071.37,256.756Z" transform="translate(1080.803 -256.146)" fill="#ffd000"/></g><g transform="translate(31.558 36.7)"><path d="M-1064.209,250.316h0l-4.744,0a.3.3,0,0,1-.3-.3.3.3,0,0,1,.3-.3h0l4.744,0a.3.3,0,0,1,.3.3A.3.3,0,0,1-1064.209,250.316Z" transform="translate(1069.255 -249.709)" fill="#ffd000"/></g><g transform="translate(31.964 33.799)"><path d="M-1064.345,248.4h0l-4.342,0a.3.3,0,0,1-.3-.3.3.3,0,0,1,.3-.3h0l4.342,0a.3.3,0,0,1,.3.3A.3.3,0,0,1-1064.345,248.4Z" transform="translate(1068.987 -247.796)" fill="#ffd000"/></g><g transform="translate(20.769 36.7)"><path d="M-1071.323,250.316h0l-4.745,0a.3.3,0,0,1-.3-.3.3.3,0,0,1,.3-.3h0l4.745,0a.3.3,0,0,1,.3.3A.3.3,0,0,1-1071.323,250.316Z" transform="translate(1076.369 -249.709)" fill="#ffd000"/></g><g transform="translate(21.175 33.799)"><path d="M-1071.461,248.4h0l-4.34,0a.3.3,0,0,1-.3-.3.3.3,0,0,1,.3-.3h0l4.34,0a.3.3,0,0,1,.3.3A.3.3,0,0,1-1071.461,248.4Z" transform="translate(1076.101 -247.796)" fill="#ffd000"/></g><g transform="translate(27.386 36.7)"><path d="M-1070.2,250.311h-1.507a.3.3,0,0,1-.3-.3.3.3,0,0,1,.3-.3h1.507a.3.3,0,0,1,.3.3A.3.3,0,0,1-1070.2,250.311Z" transform="translate(1072.006 -249.709)" fill="#ffd000"/></g><g transform="translate(27.516 33.799)"><path d="M-1070.238,248.4h-1.38a.3.3,0,0,1-.3-.3.3.3,0,0,1,.3-.3h1.38a.3.3,0,0,1,.3.3A.3.3,0,0,1-1070.238,248.4Z" transform="translate(1071.92 -247.796)" fill="#ffd000"/></g><g transform="translate(25.516 63.751)"><path d="M-1071.43,268.15h0l-1.509,0a.3.3,0,0,1-.3-.3.3.3,0,0,1,.3-.3h1.509a.3.3,0,0,1,.3.3A.3.3,0,0,1-1071.43,268.15Z" transform="translate(1073.239 -267.546)" fill="#ffd000"/></g><g transform="translate(25.646 60.85)"><path d="M-1071.471,266.237h-1.38a.3.3,0,0,1-.3-.3.3.3,0,0,1,.3-.3h1.38a.3.3,0,0,1,.3.3A.3.3,0,0,1-1071.471,266.237Z" transform="translate(1073.153 -265.633)" fill="#ffd000"/></g><g transform="translate(25.516 70.272)"><path d="M-1071.43,272.45h-1.509a.3.3,0,0,1-.3-.3.3.3,0,0,1,.3-.3h1.509a.3.3,0,0,1,.3.3A.3.3,0,0,1-1071.43,272.45Z" transform="translate(1073.239 -271.846)" fill="#ffd000"/></g><g transform="translate(25.646 67.371)"><path d="M-1071.471,270.537h0l-1.38,0a.3.3,0,0,1-.3-.3.3.3,0,0,1,.3-.3h1.38a.3.3,0,0,1,.3.3A.3.3,0,0,1-1071.471,270.537Z" transform="translate(1073.153 -269.933)" fill="#ffd000"/></g><g transform="translate(29.004 70.272)"><path d="M-1069.13,272.45h-1.509a.3.3,0,0,1-.3-.3.3.3,0,0,1,.3-.3h1.508a.3.3,0,0,1,.3.3A.3.3,0,0,1-1069.13,272.45Z" transform="translate(1070.939 -271.846)" fill="#ffd000"/></g><g transform="translate(29.134 67.371)"><path d="M-1069.171,270.537h0l-1.38,0a.3.3,0,0,1-.3-.3.3.3,0,0,1,.3-.3h1.38a.3.3,0,0,1,.3.3A.3.3,0,0,1-1069.171,270.537Z" transform="translate(1070.853 -269.933)" fill="#ffd000"/></g><g transform="translate(32.492 70.272)"><path d="M-1066.83,272.45h-1.509a.3.3,0,0,1-.3-.3.3.3,0,0,1,.3-.3h1.509a.3.3,0,0,1,.3.3A.3.3,0,0,1-1066.83,272.45Z" transform="translate(1068.639 -271.846)" fill="#ffd000"/></g><g transform="translate(32.622 67.371)"><path d="M-1066.871,270.537h0l-1.38,0a.3.3,0,0,1-.3-.3.3.3,0,0,1,.3-.3h1.38a.3.3,0,0,1,.3.3A.3.3,0,0,1-1066.871,270.537Z" transform="translate(1068.553 -269.933)" fill="#ffd000"/></g><g transform="translate(35.98 70.272)"><path d="M-1064.53,272.45h-1.508a.3.3,0,0,1-.3-.3.3.3,0,0,1,.3-.3h1.508a.3.3,0,0,1,.3.3A.3.3,0,0,1-1064.53,272.45Z" transform="translate(1066.339 -271.846)" fill="#ffd000"/></g><g transform="translate(36.11 67.371)"><path d="M-1064.571,270.537h0l-1.38,0a.3.3,0,0,1-.3-.3.3.3,0,0,1,.3-.3h1.38a.3.3,0,0,1,.3.3A.3.3,0,0,1-1064.571,270.537Z" transform="translate(1066.253 -269.933)" fill="#ffd000"/></g></g></g></g></svg>